<?xml version="1.0" encoding="UTF-8" standalone="no"?>
<!-- Created with Inkscape (http://www.inkscape.org/) -->

<svg
   width="60.959999mm"
   height="128.5mm"
   viewBox="0 0 60.959999 128.5"
   version="1.1"
   id="svg1"
   inkscape:version="1.4 (e7c3feb1, 2024-10-09)"
   sodipodi:docname="attoff.svg"
   xmlns:inkscape="http://www.inkscape.org/namespaces/inkscape"
   xmlns:sodipodi="http://sodipodi.sourceforge.net/DTD/sodipodi-0.dtd"
   xmlns="http://www.w3.org/2000/svg"
   xmlns:svg="http://www.w3.org/2000/svg">
  <sodipodi:namedview
     id="namedview1"
     pagecolor="#ffffff"
     bordercolor="#000000"
     borderopacity="0.25"
     inkscape:showpageshadow="2"
     inkscape:pageopacity="0.0"
     inkscape:pagecheckerboard="0"
     inkscape:deskcolor="#d1d1d1"
     inkscape:document-units="mm"
     inkscape:zoom="1.6441932"
     inkscape:cx="86.972747"
     inkscape:cy="386.51176"
     inkscape:window-width="1424"
     inkscape:window-height="730"
     inkscape:window-x="314"
     inkscape:window-y="1105"
     inkscape:window-maximized="0"
     inkscape:current-layer="layer1"
     showgrid="false" />
  <defs
     id="defs1" />
  <rect
     style="fill:#e6e6e6;stroke-width:0.264583"
     id="rect1"
     width="60.959999"
     height="128.5"
     x="0"
     y="0" />
  <g
     inkscape:label="Layer 1"
     inkscape:groupmode="layer"
     id="layer1">
    <path
       style="font-size:3.175px;stroke-width:0.264583"
       d="M 19.471228,7.2293215 H 19.181324 V 7.0448366 q -0.03876,0.026355 -0.10542,0.074414 -0.06511,0.046509 -0.127124,0.074414 -0.07286,0.035657 -0.167432,0.058911 -0.09457,0.024805 -0.221692,0.024805 -0.234094,0 -0.396875,-0.1550293 Q 18,6.967322 18,6.7270266 q 0,-0.1968872 0.08372,-0.3178101 0.08527,-0.1224731 0.241846,-0.1922363 0.15813,-0.069763 0.379822,-0.094568 0.221692,-0.024805 0.47594,-0.037207 v -0.044958 q 0,-0.099219 -0.03566,-0.1643311 -0.03411,-0.065112 -0.09922,-0.1023193 -0.06201,-0.035657 -0.148828,-0.048059 -0.08682,-0.012402 -0.181384,-0.012402 -0.114722,0 -0.255799,0.031006 -0.141076,0.029456 -0.291455,0.086816 h -0.0155 V 5.5348513 q 0.08527,-0.023254 0.246497,-0.05116 0.16123,-0.027905 0.31781,-0.027905 0.182935,0 0.31781,0.031006 0.136426,0.029456 0.235645,0.1023193 0.09767,0.071314 0.148828,0.1844849 0.05116,0.1131714 0.05116,0.280603 z M 19.181324,6.8029909 V 6.3208498 q -0.133326,0.00775 -0.31471,0.023254 -0.179834,0.015503 -0.285254,0.044958 -0.125573,0.035657 -0.203088,0.1116211 -0.07751,0.074414 -0.07751,0.206189 0,0.1488281 0.08992,0.2247924 0.08992,0.074414 0.274402,0.074414 0.153479,0 0.280603,-0.058911 0.127124,-0.060461 0.235645,-0.1441773 z m 1.75028,0.4108277 q -0.08216,0.021704 -0.179834,0.035657 -0.09612,0.013953 -0.172082,0.013953 -0.2651,0 -0.403076,-0.1426269 Q 20.038636,6.978174 20.038636,6.6634646 V 5.7425905 H 19.841748 V 5.4976443 h 0.196888 V 5.0000002 h 0.291455 v 0.4976441 h 0.601513 v 0.2449462 h -0.601513 v 0.7890992 q 0,0.1364257 0.0062,0.2139404 0.0062,0.075964 0.04341,0.1426269 0.03411,0.062012 0.09302,0.091467 0.06046,0.027905 0.182934,0.027905 0.07131,0 0.148828,-0.020154 0.07751,-0.021704 0.111621,-0.035657 h 0.0155 z m 1.251087,0 q -0.08217,0.021704 -0.179834,0.035657 -0.09612,0.013953 -0.172083,0.013953 -0.2651,0 -0.403076,-0.1426269 Q 21.289722,6.978174 21.289722,6.6634646 V 5.7425905 H 21.092835 V 5.4976443 h 0.196887 V 5.0000002 h 0.291455 v 0.4976441 h 0.601514 v 0.2449462 h -0.601514 v 0.7890992 q 0,0.1364257 0.0062,0.2139404 0.0062,0.075964 0.04341,0.1426269 0.03411,0.062012 0.09302,0.091467 0.06046,0.027905 0.182934,0.027905 0.07131,0 0.148829,-0.020154 0.07751,-0.021704 0.111621,-0.035657 h 0.0155 z"
       id="text1"
       aria-label="att" />
    <path
       d="m 39.598354,6.5626952 q 0,0.42323 -0.217041,0.6681763 -0.217041,0.2449463 -0.58136,0.2449463 -0.36742,0 -0.584461,-0.2449463 -0.21549,-0.2449463 -0.21549,-0.6681763 0,-0.4232299 0.21549,-0.6681762 0.217041,-0.2464966 0.584461,-0.2464966 0.364319,0 0.58136,0.2464966 0.217041,0.2449463 0.217041,0.6681762 z m -0.300757,0 q 0,-0.3364135 -0.131775,-0.4991943 -0.131775,-0.1643311 -0.365869,-0.1643311 -0.237195,0 -0.36897,0.1643311 -0.130225,0.1627808 -0.130225,0.4991943 0,0.3255615 0.131775,0.4945435 0.131775,0.1674316 0.36742,0.1674316 0.232544,0 0.364319,-0.1658813 0.133325,-0.1674317 0.133325,-0.4960938 z m 1.683618,-1.265039 h -0.0155 q -0.04806,-0.013953 -0.125574,-0.027905 -0.07751,-0.015503 -0.136426,-0.015503 -0.187585,0 -0.272851,0.083716 -0.08372,0.082166 -0.08372,0.2992065 v 0.058911 h 0.525549 V 5.9410278 H 40.356447 V 7.4277587 H 40.064992 V 5.9410278 H 39.868105 V 5.6960815 h 0.196887 v -0.057361 q 0,-0.3085083 0.153479,-0.4728393 0.153479,-0.1658814 0.443383,-0.1658814 0.09767,0 0.175184,0.0093 0.07906,0.0093 0.144177,0.021704 z m 1.116211,0 h -0.0155 q -0.04806,-0.013953 -0.125574,-0.027905 -0.07752,-0.015503 -0.136426,-0.015503 -0.187585,0 -0.272851,0.083716 -0.08372,0.082166 -0.08372,0.2992065 v 0.058911 h 0.525549 V 5.9410278 H 41.472658 V 7.4277587 H 41.181203 V 5.9410278 H 40.984315 V 5.6960815 h 0.196888 v -0.057361 q 0,-0.3085083 0.153479,-0.4728393 0.153479,-0.1658814 0.443383,-0.1658814 0.09767,0 0.175184,0.0093 0.07906,0.0093 0.144177,0.021704 z"
       id="text2"
       style="font-size:3.175px;stroke-width:0.264583"
       aria-label="off" />
    <path
       d="m 26.679795,120.35645 h -0.327112 l -0.226343,-0.64337 h -0.998389 l -0.226342,0.64337 H 24.59 l 0.840259,-2.30838 h 0.409277 z m -0.648023,-0.90692 -0.404626,-1.13326 -0.406177,1.13326 z m 2.458765,-1.12861 h -0.824756 v 2.03553 h -0.306958 v -2.03553 h -0.824756 v -0.27285 h 1.95647 z m 1.847949,0 H 29.51373 v 2.03553 h -0.306958 v -2.03553 h -0.824756 v -0.27285 h 1.95647 z m 1.953369,-0.008 q 0.141076,0.15503 0.215491,0.37982 0.07596,0.22479 0.07596,0.51004 0,0.28526 -0.07751,0.5116 -0.07596,0.22479 -0.21394,0.37517 -0.142627,0.15658 -0.337964,0.23565 -0.193787,0.0791 -0.443384,0.0791 -0.243396,0 -0.443384,-0.0806 -0.198437,-0.0806 -0.337963,-0.2341 -0.139527,-0.15348 -0.215491,-0.37672 -0.07441,-0.22324 -0.07441,-0.51005 0,-0.28215 0.07441,-0.50539 0.07441,-0.22479 0.217041,-0.38447 0.136426,-0.15193 0.337964,-0.23255 0.203088,-0.0806 0.441833,-0.0806 0.248047,0 0.444934,0.0822 0.198438,0.0806 0.336414,0.231 z m -0.0279,0.88986 q 0,-0.44958 -0.201539,-0.69298 -0.201538,-0.24494 -0.550354,-0.24494 -0.351916,0 -0.553454,0.24494 -0.199988,0.2434 -0.199988,0.69298 0,0.45424 0.204639,0.69609 0.204638,0.24029 0.548803,0.24029 0.344166,0 0.547254,-0.24029 0.204639,-0.24185 0.204639,-0.69609 z m 2.280481,-0.88211 h -1.16737 v 0.65112 H 34.3801 v 0.27285 h -1.003039 v 1.11156 h -0.306958 v -2.30838 h 1.474328 z m 1.824695,0 h -1.167371 v 0.65112 h 1.00304 v 0.27285 h -1.00304 v 1.11156 h -0.306958 v -2.30838 h 1.474329 z"
       id="text3"
       style="font-size:3.175px;stroke-width:0.264583"
       aria-label="ATTOFF" />
  </g>
  <g
     inkscape:groupmode="layer"
     id="layer2"
     inkscape:label="components"
     style="display:inline">
    <ellipse
       style="fill:#00ff00;stroke-width:0.264583"
       id="path6"
       cx="5.8494859"
       cy="19.624083"
       rx="1.8869309"
       ry="1.6982378"
       inkscape:label="in1" />
    <ellipse
       style="fill:#00ff00;stroke-width:0.264583"
       id="path7"
       cx="5.2834063"
       cy="32.549561"
       rx="1.5095447"
       ry="1.4151982"
       inkscape:label="in2" />
    <circle
       style="fill:#00ff00;stroke-width:0.264583"
       id="path8"
       cx="5.4720998"
       cy="42.644638"
       r="1.5095447"
       inkscape:label="in3" />
    <ellipse
       style="fill:#00ff00;stroke-width:0.264583"
       id="path9"
       cx="5.5664463"
       cy="54.909691"
       rx="1.7925844"
       ry="1.5095447"
       inkscape:label="in4" />
    <ellipse
       style="fill:#00ff00;stroke-width:0.264583"
       id="path10"
       cx="5.5664463"
       cy="68.11821"
       rx="1.6038914"
       ry="1.3208516"
       inkscape:label="in5" />
    <ellipse
       style="fill:#00ff00;stroke-width:0.264583"
       id="path11"
       cx="5.6607928"
       cy="81.609764"
       rx="1.3208516"
       ry="1.7925844"
       inkscape:label="in6" />
    <ellipse
       style="fill:#00ff00;stroke-width:0.264583"
       id="path12"
       cx="5.8494859"
       cy="95.195663"
       rx="1.5095447"
       ry="1.9812776"
       inkscape:label="in7" />
    <ellipse
       style="fill:#00ff00;stroke-width:0.264583"
       id="path13"
       cx="5.7551398"
       cy="108.78157"
       rx="1.6038914"
       ry="1.4151982"
       inkscape:label="in8" />
    <ellipse
       style="fill:#ff0000;stroke-width:0.264583"
       id="path6-8"
       cx="19.886999"
       cy="19.689857"
       rx="1.887"
       ry="1.6982378"
       inkscape:label="aff1" />
    <ellipse
       style="fill:#ff0000;stroke-width:0.264583"
       id="path7-5"
       cx="19.509544"
       cy="32.615334"
       rx="1.5095447"
       ry="1.4151982"
       inkscape:label="aff2" />
    <circle
       style="fill:#ff0000;stroke-width:0.264583"
       id="path8-9"
       cx="18.896151"
       cy="42.710411"
       r="1.5095447"
       inkscape:label="aff3" />
    <ellipse
       style="fill:#ff0000;stroke-width:0.264583"
       id="path9-4"
       cx="18.990498"
       cy="54.975479"
       rx="1.7925844"
       ry="1.5095447"
       inkscape:label="aff4" />
    <ellipse
       style="fill:#ff0000;stroke-width:0.264583"
       id="path10-3"
       cx="18.990498"
       cy="68.184006"
       rx="1.6038914"
       ry="1.3208516"
       inkscape:label="aff5" />
    <ellipse
       style="fill:#ff0000;stroke-width:0.264583"
       id="path11-9"
       cx="19.084845"
       cy="81.675598"
       rx="1.3208516"
       ry="1.7925844"
       inkscape:label="aff6" />
    <ellipse
       style="fill:#ff0000;stroke-width:0.264583"
       id="path12-0"
       cx="19.273539"
       cy="95.261742"
       rx="1.5095447"
       ry="1.9812776"
       inkscape:label="aff7" />
    <ellipse
       style="fill:#ff0000;stroke-width:0.264583"
       id="path13-5"
       cx="19.179192"
       cy="108.84782"
       rx="1.6038914"
       ry="1.4151982"
       inkscape:label="aff8" />
    <ellipse
       style="fill:#ff0000;stroke-width:0.264583"
       id="path6-4"
       cx="40.175629"
       cy="19.425322"
       rx="1.8869309"
       ry="1.6982378"
       inkscape:label="off1" />
    <ellipse
       style="fill:#ff0000;stroke-width:0.264583"
       id="path7-0"
       cx="39.60955"
       cy="32.350803"
       rx="1.5095447"
       ry="1.4151982"
       inkscape:label="off2" />
    <circle
       style="fill:#ff0000;stroke-width:0.264583"
       id="path8-7"
       cx="39.798244"
       cy="42.445892"
       r="1.5095447"
       inkscape:label="off3" />
    <ellipse
       style="fill:#ff0000;stroke-width:0.264583"
       id="path9-5"
       cx="39.89259"
       cy="54.71096"
       rx="1.7925844"
       ry="1.5095447"
       inkscape:label="off4" />
    <ellipse
       style="fill:#ff0000;stroke-width:0.264583"
       id="path10-7"
       cx="39.89259"
       cy="67.919487"
       rx="1.6038914"
       ry="1.3208516"
       inkscape:label="off5" />
    <ellipse
       style="fill:#ff0000;stroke-width:0.264583"
       id="path11-5"
       cx="39.986938"
       cy="81.411049"
       rx="1.3208516"
       ry="1.7925844"
       inkscape:label="off6" />
    <ellipse
       style="fill:#ff0000;stroke-width:0.264583"
       id="path12-06"
       cx="40.175629"
       cy="94.996948"
       rx="1.5095447"
       ry="1.9812776"
       inkscape:label="off7" />
    <ellipse
       style="fill:#ff0000;stroke-width:0.264583"
       id="path13-4"
       cx="40.081284"
       cy="108.58281"
       rx="1.6038914"
       ry="1.4151982"
       inkscape:label="off8" />
    <ellipse
       style="fill:#0000ff;stroke-width:0.264583"
       id="path6-9"
       cx="54.992294"
       cy="19.425318"
       rx="1.8869309"
       ry="1.6982378"
       inkscape:label="out1" />
    <ellipse
       style="fill:#0000ff;stroke-width:0.264583"
       id="path7-9"
       cx="54.426216"
       cy="32.350807"
       rx="1.5095447"
       ry="1.4151982"
       inkscape:label="out2" />
    <circle
       style="fill:#0000ff;stroke-width:0.264583"
       id="path8-3"
       cx="54.61491"
       cy="42.4459"
       r="1.5095447"
       inkscape:label="out3" />
    <ellipse
       style="fill:#0000ff;stroke-width:0.264583"
       id="path9-3"
       cx="54.709255"
       cy="54.710953"
       rx="1.7925844"
       ry="1.5095447"
       inkscape:label="out4" />
    <ellipse
       style="fill:#0000ff;stroke-width:0.264583"
       id="path10-77"
       cx="54.709255"
       cy="67.919472"
       rx="1.6038914"
       ry="1.3208516"
       inkscape:label="out5" />
    <ellipse
       style="fill:#0000ff;stroke-width:0.264583"
       id="path11-3"
       cx="54.803604"
       cy="81.411026"
       rx="1.3208516"
       ry="1.7925844"
       inkscape:label="out6" />
    <ellipse
       style="fill:#0000ff;stroke-width:0.264583"
       id="path12-2"
       cx="54.992294"
       cy="94.996925"
       rx="1.5095447"
       ry="1.9812776"
       inkscape:label="out7" />
    <ellipse
       style="fill:#0000ff;stroke-width:0.264583"
       id="path13-56"
       cx="54.897949"
       cy="108.58281"
       rx="1.6038914"
       ry="1.4151982"
       inkscape:label="out8" />
  </g>
</svg>
