<?xml version="1.0" encoding="UTF-8" standalone="no"?>
<!-- Created with Inkscape (http://www.inkscape.org/) -->

<svg
   width="60.959999mm"
   height="128.5mm"
   viewBox="0 0 60.959999 128.5"
   version="1.1"
   id="svg1"
   inkscape:version="1.4 (e7c3feb1, 2024-10-09)"
   sodipodi:docname="attoff.svg"
   xmlns:inkscape="http://www.inkscape.org/namespaces/inkscape"
   xmlns:sodipodi="http://sodipodi.sourceforge.net/DTD/sodipodi-0.dtd"
   xmlns="http://www.w3.org/2000/svg"
   xmlns:svg="http://www.w3.org/2000/svg">
  <sodipodi:namedview
     id="namedview1"
     pagecolor="#ffffff"
     bordercolor="#000000"
     borderopacity="0.25"
     inkscape:showpageshadow="2"
     inkscape:pageopacity="0.0"
     inkscape:pagecheckerboard="0"
     inkscape:deskcolor="#d1d1d1"
     inkscape:document-units="mm"
     inkscape:zoom="1.0755993"
     inkscape:cx="-13.945714"
     inkscape:cy="179.89971"
     inkscape:window-width="1424"
     inkscape:window-height="730"
     inkscape:window-x="16"
     inkscape:window-y="29"
     inkscape:window-maximized="0"
     inkscape:current-layer="layer1"
     showgrid="false" />
  <defs
     id="defs1">
    <rect
       x="81.803537"
       y="25.078456"
       width="63.890353"
       height="24.48135"
       id="rect7" />
    <rect
       x="190.2049"
       y="71.818557"
       width="20.297253"
       height="17.75588"
       id="rect6" />
    <rect
       x="21.106866"
       y="75.812415"
       width="21.96837"
       height="8.6150472"
       id="rect4" />
  </defs>
  <rect
     style="fill:#e6e6e6;stroke-width:0.264583"
     id="rect1"
     width="60.959999"
     height="128.5"
     x="0"
     y="0" />
  <rect
     style="fill:#000000;stroke-width:0.294289"
     id="rect5"
     width="7.8934202"
     height="4.8331208"
     x="51.176697"
     y="18.799175"
     ry="1.7754323" />
  <g
     inkscape:label="Layer 1"
     inkscape:groupmode="layer"
     id="layer1">
    <path
       style="font-size:3.175px;stroke-width:0.264583"
       d="m 19.471228,22.229321 h -0.289904 v -0.184485 q -0.03876,0.02635 -0.10542,0.07441 -0.06511,0.04651 -0.127124,0.07441 -0.07286,0.03566 -0.167432,0.05891 -0.09457,0.02481 -0.221692,0.02481 -0.234094,0 -0.396875,-0.155029 Q 18,21.967322 18,21.727026 q 0,-0.196887 0.08372,-0.31781 0.08527,-0.122473 0.241846,-0.192236 0.15813,-0.06976 0.379822,-0.09457 0.221692,-0.02481 0.47594,-0.03721 v -0.04496 q 0,-0.09922 -0.03566,-0.164331 -0.03411,-0.06511 -0.09922,-0.102319 -0.06201,-0.03566 -0.148828,-0.04806 -0.08682,-0.0124 -0.181384,-0.0124 -0.114722,0 -0.255799,0.03101 -0.141076,0.02946 -0.291455,0.08682 h -0.0155 v -0.296107 q 0.08527,-0.02325 0.246497,-0.05116 0.16123,-0.02791 0.31781,-0.02791 0.182935,0 0.31781,0.03101 0.136426,0.02946 0.235645,0.102319 0.09767,0.07131 0.148828,0.184485 0.05116,0.113172 0.05116,0.280603 z m -0.289904,-0.42633 V 21.32085 q -0.133326,0.0078 -0.31471,0.02325 -0.179834,0.0155 -0.285254,0.04496 -0.125573,0.03566 -0.203088,0.111621 -0.07751,0.07441 -0.07751,0.206189 0,0.148828 0.08992,0.224792 0.08992,0.07441 0.274402,0.07441 0.153479,0 0.280603,-0.05891 0.127124,-0.06046 0.235645,-0.144177 z m 1.75028,0.410827 q -0.08216,0.0217 -0.179834,0.03566 -0.09612,0.01395 -0.172082,0.01395 -0.2651,0 -0.403076,-0.142626 -0.137976,-0.142628 -0.137976,-0.457338 V 20.74259 h -0.196888 v -0.244946 h 0.196888 V 20 h 0.291455 v 0.497644 h 0.601513 v 0.244946 h -0.601513 v 0.7891 q 0,0.136425 0.0062,0.21394 0.0062,0.07596 0.04341,0.142627 0.03411,0.06201 0.09302,0.09147 0.06046,0.02791 0.182934,0.02791 0.07131,0 0.148828,-0.02015 0.07751,-0.0217 0.111621,-0.03566 h 0.0155 z m 1.251087,0 q -0.08217,0.0217 -0.179834,0.03566 -0.09612,0.01395 -0.172083,0.01395 -0.2651,0 -0.403076,-0.142626 -0.137976,-0.142628 -0.137976,-0.457338 V 20.74259 h -0.196887 v -0.244946 h 0.196887 V 20 h 0.291455 v 0.497644 h 0.601514 v 0.244946 h -0.601514 v 0.7891 q 0,0.136425 0.0062,0.21394 0.0062,0.07596 0.04341,0.142627 0.03411,0.06201 0.09302,0.09147 0.06046,0.02791 0.182934,0.02791 0.07131,0 0.148829,-0.02015 0.07751,-0.0217 0.111621,-0.03566 h 0.0155 z"
       id="text1"
       aria-label="att" />
    <path
       d="m 39.598189,21.562695 q 0,0.42323 -0.217019,0.668177 -0.217018,0.244946 -0.5813,0.244946 -0.367382,0 -0.5844,-0.244946 -0.215468,-0.244947 -0.215468,-0.668177 0,-0.423229 0.215468,-0.668176 0.217018,-0.246496 0.5844,-0.246496 0.364282,0 0.5813,0.246496 0.217019,0.244947 0.217019,0.668176 z m -0.300726,0 q 0,-0.336413 -0.131762,-0.499194 -0.131761,-0.164331 -0.365831,-0.164331 -0.23717,0 -0.368932,0.164331 -0.130211,0.162781 -0.130211,0.499194 0,0.325562 0.131761,0.494544 0.131762,0.167432 0.367382,0.167432 0.23252,0 0.364282,-0.165882 0.133311,-0.167431 0.133311,-0.496094 z m 1.683444,-1.265039 h -0.0155 q -0.04805,-0.01395 -0.125561,-0.02791 -0.0775,-0.0155 -0.136412,-0.0155 -0.187565,0 -0.272823,0.08372 -0.08371,0.08217 -0.08371,0.299207 v 0.05891 h 0.525495 v 0.244946 h -0.516193 v 1.486731 h -0.291425 v -1.486731 h -0.196866 v -0.244946 h 0.196866 v -0.05736 q 0,-0.308509 0.153463,-0.47284 Q 40.371705,20 40.661579,20 q 0.09766,0 0.175165,0.0093 0.07905,0.0093 0.144163,0.0217 z m 1.116095,0 h -0.0155 q -0.04806,-0.01395 -0.125561,-0.02791 -0.07751,-0.0155 -0.136412,-0.0155 -0.187566,0 -0.272823,0.08372 -0.08371,0.08217 -0.08371,0.299207 v 0.05891 h 0.525494 v 0.244946 h -0.516192 v 1.486731 h -0.291425 v -1.486731 h -0.196868 v -0.244946 h 0.196868 v -0.05736 q 0,-0.308509 0.153463,-0.47284 Q 41.4878,20 41.777674,20 q 0.09766,0 0.175166,0.0093 0.07905,0.0093 0.144162,0.0217 z"
       id="text2"
       style="font-size:3.175px;stroke-width:0.264569"
       aria-label="off" />
    <path
       d="M 4.0126621,20.302307 H 3.684 V 20 h 0.3286621 z m -0.018604,2.021582 H 3.7026035 v -1.731677 h 0.2914551 z m 2.0246826,0 H 5.7272861 v -0.985987 q 0,-0.119372 -0.013953,-0.223242 -0.013953,-0.10542 -0.05116,-0.164331 -0.038757,-0.06511 -0.1116211,-0.09612 -0.072864,-0.03256 -0.1891357,-0.03256 -0.1193726,0 -0.2495972,0.05891 -0.1302246,0.05891 -0.2495971,0.150378 v 1.292945 H 4.5707676 v -1.731677 h 0.2914551 v 0.192236 q 0.1364257,-0.113172 0.2821533,-0.176734 0.1457275,-0.06356 0.2992065,-0.06356 0.280603,0 0.4278809,0.168982 0.1472778,0.168982 0.1472778,0.486792 z M 7.817081,21.824694 q 0,0.237195 -0.1968872,0.389124 -0.1953369,0.151929 -0.5348511,0.151929 -0.1922363,0 -0.3534668,-0.04496 -0.1596801,-0.04651 -0.2682006,-0.100769 v -0.327112 h 0.015503 q 0.1379761,0.10387 0.306958,0.165882 0.1689819,0.06046 0.3240112,0.06046 0.1922363,0 0.3007568,-0.06201 0.1085206,-0.06201 0.1085206,-0.195337 0,-0.102319 -0.058911,-0.155029 -0.058911,-0.05271 -0.2263427,-0.08992 -0.062012,-0.01395 -0.1627808,-0.03256 -0.099219,-0.0186 -0.1813843,-0.04031 -0.227893,-0.06046 -0.3240112,-0.176733 -0.094568,-0.117822 -0.094568,-0.288354 0,-0.106971 0.043408,-0.201539 0.044958,-0.09457 0.1348755,-0.168981 0.086816,-0.07286 0.2201416,-0.114722 0.1348755,-0.04341 0.3007568,-0.04341 0.1550293,0 0.3131592,0.03876 0.1596802,0.03721 0.2651001,0.09147 v 0.311609 H 7.7333652 Q 7.6217441,20.910022 7.4620639,20.854211 7.3023837,20.79685 7.1489047,20.79685 q -0.1596801,0 -0.2697509,0.06201 -0.1100708,0.06046 -0.1100708,0.181384 0,0.10697 0.066663,0.161231 0.065112,0.05426 0.2108398,0.08837 0.080615,0.0186 0.179834,0.03721 0.100769,0.0186 0.1674316,0.03411 0.2030884,0.04651 0.3131592,0.15968 0.1100708,0.114722 0.1100708,0.303857 z"
       id="text5"
       style="font-size:3.175px;-inkscape-font-specification:'sans-serif, Normal';stroke-width:0.264583"
       aria-label="ins" />
    <path
       style="font-size:6.83508px;font-family:Phosphate;-inkscape-font-specification:'Phosphate, Normal';stroke-width:0.569589"
       d="m 29.292975,4.6791588 h 1.093613 l 1.729275,4.5589985 H 30.680496 L 30.530124,8.8280525 H 29.149438 L 28.999067,9.2381573 H 27.5637 Z M 30.14736,7.8232957 29.839781,7.0235913 29.532203,7.8232957 Z m -1.565233,0.8680552 0.129866,-0.341754 h 2.255577 l 0.129866,0.341754 h 0.191382 l -1.31917,-3.4653857 h -0.259733 l -1.319171,3.4653857 z m 1.257654,-3.3013438 1.066273,2.7955478 h -2.132545 z m 2.467456,0.4852907 h -0.840715 v -1.196139 h 3.185147 v 1.196139 h -0.840715 v 3.3628595 h -1.503717 z m 0.840714,2.8160531 V 5.3900071 h 0.977417 V 5.2259652 h -2.132545 v 0.1640419 h 0.977416 v 3.3013438 z m 2.549488,-2.8160531 h -0.840715 v -1.196139 h 3.185147 v 1.196139 h -0.840715 v 3.3628595 h -1.503717 z m 0.840715,2.8160531 V 5.3900071 H 37.51557 V 5.2259652 h -2.132545 v 0.1640419 h 0.977416 v 3.3013438 z m 1.435359,-1.7292753 q 0,-0.4921258 0.184547,-0.9295709 0.191382,-0.4374451 0.512631,-0.7586939 0.328084,-0.3280839 0.765529,-0.512631 0.437445,-0.1913823 0.929571,-0.1913823 0.492125,0 0.929571,0.1913823 0.437445,0.1845471 0.758694,0.512631 0.328083,0.3212488 0.512631,0.7586939 0.191382,0.4374451 0.191382,0.9295709 0,0.4921258 -0.191382,0.9295709 -0.184548,0.4374451 -0.512631,0.765529 -0.321249,0.3212487 -0.758694,0.512631 -0.437446,0.1845471 -0.929571,0.1845471 -0.492126,0 -0.929571,-0.1845471 Q 38.998775,8.9784242 38.670691,8.6571755 38.349442,8.3290916 38.15806,7.8916465 37.973513,7.4542014 37.973513,6.9620756 Z m 0.642497,0 q 0,0.3622592 0.136702,0.683508 0.136701,0.3144137 0.375929,0.5536415 0.239228,0.2392278 0.553642,0.3759294 0.321248,0.1367016 0.683508,0.1367016 0.362259,0 0.676673,-0.1367016 0.321248,-0.1367016 0.560476,-0.3759294 0.239228,-0.2392278 0.37593,-0.5536415 0.136701,-0.3212488 0.136701,-0.683508 0,-0.3622593 -0.136701,-0.676673 Q 41.842168,5.9641539 41.60294,5.7249261 41.363712,5.4856983 41.042464,5.3489967 40.72805,5.2122951 40.365791,5.2122951 q -0.36226,0 -0.683508,0.1367016 -0.314414,0.1367016 -0.553642,0.3759294 -0.239228,0.2392278 -0.375929,0.5604765 -0.136702,0.3144137 -0.136702,0.676673 z m 0.792869,0 q 0,0.1982173 0.07519,0.3759294 0.07519,0.170877 0.205053,0.3007435 0.129866,0.1298665 0.300743,0.2050524 0.177712,0.075186 0.37593,0.075186 0.198217,0 0.369094,-0.075186 0.177712,-0.075186 0.307579,-0.2050524 0.129866,-0.1298665 0.205052,-0.3007435 0.07519,-0.1777121 0.07519,-0.3759294 0,-0.1982173 -0.07519,-0.3690943 -0.07519,-0.1777121 -0.205052,-0.3075787 -0.129867,-0.1298665 -0.307579,-0.2050524 -0.170877,-0.075186 -0.369094,-0.075186 -0.198218,0 -0.37593,0.075186 -0.170877,0.075186 -0.300743,0.2050524 -0.129867,0.1298666 -0.205053,0.3075787 -0.07519,0.170877 -0.07519,0.3690943 z m 0.956912,1.5720684 q -0.328084,0 -0.615157,-0.1230314 Q 39.470395,8.2880811 39.251673,8.0761936 39.039785,7.8574711 38.916754,7.5772328 38.793722,7.2901594 38.793722,6.9620756 q 0,-0.3280839 0.123032,-0.6083221 0.123031,-0.2870734 0.334919,-0.4989609 0.218722,-0.2187226 0.498961,-0.341754 0.287073,-0.1230315 0.615157,-0.1230315 0.328084,0 0.608322,0.1230315 0.287073,0.1230314 0.498961,0.341754 0.218722,0.2118875 0.341754,0.4989609 0.123031,0.2802382 0.123031,0.6083221 0,0.3280838 -0.123031,0.6151572 -0.123032,0.2802383 -0.341754,0.4989608 -0.211888,0.2118875 -0.498961,0.334919 -0.280238,0.1230314 -0.608322,0.1230314 z m 2.768206,-3.8549852 h 2.686186 v 1.196139 h -1.230314 v 0.505796 h 1.209809 v 1.1346233 h -1.209809 v 1.7224402 h -1.455872 z m 0.86122,4.0121921 V 7.0304264 h 1.298665 V 6.8663845 H 43.995217 V 5.3900071 h 1.367016 V 5.2259652 h -1.544728 v 3.4653857 z m 2.200895,-4.0121921 h 2.686187 v 1.196139 h -1.230315 v 0.505796 h 1.209809 v 1.1346233 h -1.209809 v 1.7224402 h -1.455872 z m 0.86122,4.0121921 V 7.0304264 h 1.298666 V 6.8663845 H 47.057332 V 5.3900071 h 1.367016 V 5.2259652 H 46.87962 v 3.4653857 z"
       id="text8"
       transform="scale(0.79742559,1.2540355)"
       aria-label="ATTOFF" />
    <path
       style="font-size:3.175px;-inkscape-font-specification:'sans-serif, Normal';fill:#ffffff;stroke-width:0.264583"
       d="m 53.37535,21.364257 q 0,0.42323 -0.217041,0.668176 -0.217041,0.244947 -0.58136,0.244947 -0.367419,0 -0.58446,-0.244947 -0.215491,-0.244946 -0.215491,-0.668176 0,-0.42323 0.215491,-0.668176 0.217041,-0.246497 0.58446,-0.246497 0.364319,0 0.58136,0.246497 0.217041,0.244946 0.217041,0.668176 z m -0.300757,0 q 0,-0.336414 -0.131775,-0.499194 -0.131774,-0.164331 -0.365869,-0.164331 -0.237195,0 -0.368969,0.164331 -0.130225,0.16278 -0.130225,0.499194 0,0.325562 0.131775,0.494544 0.131775,0.167431 0.367419,0.167431 0.232544,0 0.364319,-0.165881 0.133325,-0.167432 0.133325,-0.496094 z m 2.187464,0.865064 h -0.291455 v -0.192237 q -0.147278,0.116272 -0.282154,0.178284 -0.134875,0.06201 -0.297656,0.06201 -0.272852,0 -0.42478,-0.165882 -0.151929,-0.167431 -0.151929,-0.489892 v -1.123963 h 0.291455 v 0.985987 q 0,0.131775 0.0124,0.226342 0.0124,0.09302 0.05271,0.159681 0.04186,0.06821 0.108521,0.09922 0.06666,0.03101 0.193787,0.03101 0.113171,0 0.246496,-0.05891 0.134876,-0.05891 0.251148,-0.150378 v -1.292945 h 0.291455 z m 1.472778,-0.0155 q -0.08217,0.0217 -0.179834,0.03566 -0.09612,0.01395 -0.172083,0.01395 -0.2651,0 -0.403076,-0.142627 -0.137976,-0.142627 -0.137976,-0.457336 V 20.74259 h -0.196887 v -0.244947 h 0.196887 v -0.497644 h 0.291455 v 0.497644 h 0.601514 v 0.244947 h -0.601514 v 0.789099 q 0,0.136425 0.0062,0.21394 0.0062,0.07596 0.04341,0.142627 0.03411,0.06201 0.09302,0.09147 0.06046,0.02791 0.182935,0.02791 0.07131,0 0.148828,-0.02015 0.07751,-0.0217 0.111621,-0.03566 h 0.0155 z m 1.58905,-0.483692 q 0,0.237195 -0.196887,0.389124 -0.195337,0.151928 -0.534851,0.151928 -0.192236,0 -0.353467,-0.04496 -0.15968,-0.04651 -0.268201,-0.100769 v -0.327112 h 0.0155 q 0.137976,0.10387 0.306958,0.165881 0.168982,0.06046 0.324012,0.06046 0.192236,0 0.300756,-0.06201 0.108521,-0.06201 0.108521,-0.195337 0,-0.102319 -0.05891,-0.155029 -0.05891,-0.05271 -0.226343,-0.08992 -0.06201,-0.01395 -0.162781,-0.03256 -0.09922,-0.0186 -0.181384,-0.04031 -0.227893,-0.06046 -0.324011,-0.176733 -0.09457,-0.117822 -0.09457,-0.288355 0,-0.10697 0.04341,-0.201538 0.04496,-0.09457 0.134876,-0.168982 0.08682,-0.07286 0.220141,-0.114721 0.134876,-0.04341 0.300757,-0.04341 0.155029,0 0.313159,0.03876 0.15968,0.03721 0.2651,0.09147 v 0.311609 h -0.0155 q -0.111621,-0.08217 -0.271301,-0.137976 -0.15968,-0.05736 -0.313159,-0.05736 -0.15968,0 -0.269751,0.06201 -0.110071,0.06046 -0.110071,0.181384 0,0.10697 0.06666,0.16123 0.06511,0.05426 0.21084,0.08837 0.08062,0.0186 0.179834,0.03721 0.100769,0.0186 0.167431,0.03411 0.203089,0.04651 0.313159,0.15968 0.110071,0.114721 0.110071,0.303857 z"
       id="text6"
       aria-label="outs" />
  </g>
  <g
     inkscape:groupmode="layer"
     id="layer2"
     inkscape:label="components"
     style="display:inline" />
</svg>
