<?xml version="1.0" encoding="UTF-8" standalone="no"?>
<!-- Created with Inkscape (http://www.inkscape.org/) -->

<svg
   width="20.32mm"
   height="128.5mm"
   viewBox="0 0 20.32 128.5"
   version="1.1"
   id="svg1"
   inkscape:version="1.4 (e7c3feb1, 2024-10-09)"
   sodipodi:docname="depot.svg"
   xmlns:inkscape="http://www.inkscape.org/namespaces/inkscape"
   xmlns:sodipodi="http://sodipodi.sourceforge.net/DTD/sodipodi-0.dtd"
   xmlns="http://www.w3.org/2000/svg"
   xmlns:svg="http://www.w3.org/2000/svg">
  <sodipodi:namedview
     id="namedview1"
     pagecolor="#ffffff"
     bordercolor="#000000"
     borderopacity="0.25"
     inkscape:showpageshadow="2"
     inkscape:pageopacity="0.0"
     inkscape:pagecheckerboard="0"
     inkscape:deskcolor="#d1d1d1"
     inkscape:document-units="mm"
     inkscape:zoom="1.314055"
     inkscape:cx="-34.245142"
     inkscape:cy="274.72214"
     inkscape:window-width="1104"
     inkscape:window-height="761"
     inkscape:window-x="0"
     inkscape:window-y="25"
     inkscape:window-maximized="0"
     inkscape:current-layer="layer1" />
  <defs
     id="defs1" />
  <g
     inkscape:label="Layer 1"
     inkscape:groupmode="layer"
     id="layer1">
    <rect
       style="fill:#ebebeb;fill-opacity:1;stroke-width:0.648094"
       id="rect1"
       width="20.32"
       height="128.5"
       x="0"
       y="0"
       ry="0"
       inkscape:label="back" />
    <path
       style="font-size:5.29167px;font-family:'Brush Script MT';-inkscape-font-specification:'Brush Script MT, Normal';stroke-width:0.79375"
       d="m 2.1839513,7.916663 q 0,0.018087 0.03359,0.018087 0.023254,0 0.2092896,-0.031006 Q 2.61545,7.872738 2.7678956,7.870154 2.5973633,7.916663 2.4733398,7.965756 2.3519001,8.012265 2.2201251,8.0716927 q -0.1291912,0.056844 -0.1860353,0.077515 -0.056844,0.018087 -0.098185,0.018087 -0.1317749,0 -0.1317749,-0.1705323 0,-0.43925 0.2222088,-0.6175338 0.090434,-0.072347 0.2893881,-0.1705323 0.2015383,-0.1007691 0.4521691,-0.1886191 0.2532147,-0.090434 0.555522,-0.1550294 0.3023073,-0.064596 0.5968631,-0.064596 0.3023073,0 0.555522,0.08785 0.2532147,0.08785 0.423747,0.248047 0.1705323,0.1576133 0.2609662,0.3875735 0.093018,0.2299603 0.093018,0.5167646 0,0.4366662 -0.2532147,0.847494 -0.2506308,0.4108279 -0.671794,0.7260544 -0.4185794,0.3126426 -0.9456793,0.4960937 -0.5270999,0.183452 -1.0386969,0.183452 -0.095601,0 -0.1524456,-0.02067 -0.05426,-0.02067 -0.077515,-0.08268 -0.023254,-0.05943 -0.023254,-0.178284 0,-0.1472779 0.023254,-0.2402955 0.023254,-0.093018 0.077515,-0.2144574 Q 2.5637733,8.7331512 3.4861981,7.4825807 3.3001629,7.5032513 3.0779541,7.5626793 2.8557453,7.6195234 2.6567909,7.6892866 2.4578365,7.7590498 2.3208939,7.8236454 2.1839513,7.888241 2.1839513,7.916663 Z M 3.561129,7.4670778 q 0,0.00517 0.010335,0.059428 0.010335,0.051677 0.010335,0.090434 0,0.059428 -0.062012,0.1679486 Q 3.4603599,7.8908248 3.2820761,8.1647101 3.1037923,8.4385953 2.977185,8.6453012 2.8505776,8.852007 2.6774615,9.1775687 q -0.05426,0.103353 -0.074931,0.1395265 -0.020671,0.036173 -0.067179,0.1188559 -0.043925,0.082682 -0.064596,0.1421102 -0.020671,0.059428 -0.020671,0.090434 0,0.067179 0.072347,0.095601 0.074931,0.025838 0.2118735,0.025838 0.3513999,0 0.7441411,-0.1266073 Q 3.8711878,9.5341363 4.2148363,9.3067599 4.5610686,9.0793835 4.7677744,8.7925791 4.9744803,8.5057747 4.9744803,8.1931321 q 0,-0.3565676 -0.2609662,-0.5477705 -0.2609661,-0.1937867 -0.759644,-0.1937867 -0.2092896,0 -0.3927411,0.015503 z M 8.7727004,6.9322264 v 0.1757 q 0,0.1085206 -0.043925,0.1369426 Q 8.6874344,7.273291 8.4161328,7.3973146 8.1474152,7.5213381 7.8993682,7.6892866 7.9949702,7.5497601 8.0724844,7.4825807 8.1525834,7.4154017 8.2869417,7.3146322 8.1706696,7.2681232 7.9639638,7.2681232 q -0.3203941,0 -0.6924646,0.1266074 Q 6.9020125,7.5213381 6.6410463,7.6970381 6.382664,7.872738 6.382664,7.9915939 q 0,0.062012 0.077515,0.1033529 0.080099,0.038757 0.2532147,0.062012 0.1756999,0.020671 0.4366661,0.028422 0.2609661,0.00775 0.643372,0.00775 0.2790529,0 0.3591514,0.020671 0.080099,0.020671 0.080099,0.095601 0,0.095601 -0.095602,0.2196249 Q 8.0440623,8.6504688 7.8890329,8.6737232 7.6487374,8.7124806 7.5066271,8.7409026 7.3645168,8.7667409 7.1681462,8.8313364 6.9743595,8.895932 6.7366478,9.0173717 6.382664,9.203407 6.1837096,9.3946099 5.9847552,9.5858128 5.9847552,9.7330907 q 0,0.1266074 0.1421103,0.1989544 0.1421103,0.069763 0.4082441,0.069763 0.9172572,0 1.8681041,-0.8242395 0.00517,0.2532147 -0.056844,0.4470014 -0.059428,0.191203 -0.2454632,0.3669029 -0.1550294,0.1472782 -0.4547529,0.2816372 -0.2971396,0.134358 -0.6511234,0.214457 -0.3514,0.0801 -0.6614587,0.0801 -0.3591515,0 -0.5942794,-0.173116 -0.2351279,-0.170533 -0.2351279,-0.4547531 0,-0.2067059 0.1136882,-0.4108279 Q 5.7315406,9.3248467 5.9666685,9.1388114 6.2017964,8.9501923 6.5609478,8.7977467 6.922683,8.6453012 7.3929389,8.5574512 q 0.067179,-0.012919 0.067179,-0.041341 0,-0.031006 -0.080099,-0.036174 Q 7.302505,8.472185 7.0906316,8.4696012 6.8813419,8.4670174 6.7211448,8.4515144 6.5609478,8.4360115 6.382664,8.384335 6.1992126,8.3274909 6.0984435,8.1853806 6.0002582,8.0432704 6.0002582,7.8701542 q 0,-0.2222088 0.160197,-0.4470014 Q 6.3206522,7.1983602 6.6126243,7.0174926 6.9045963,6.836625 7.318008,6.7281044 7.7340035,6.617 8.2275137,6.617 q 0.2842206,0 0.395325,0.03359 0.1136882,0.031006 0.131775,0.085266 0.018087,0.051677 0.018087,0.1963704 z M 9.6641191,8.6530526 10.452185,7.4774131 q -0.268717,0.010335 -0.5658571,0.077515 -0.2971396,0.067179 -0.5090131,0.1446941 -0.2118735,0.074931 -0.379822,0.1446941 -0.1653647,0.067179 -0.2377118,0.095601 -0.018087,0 -0.036174,-0.012919 -0.018087,-0.012919 -0.018087,-0.031006 0,-0.020671 0.1188559,-0.2532147 Q 8.9458163,7.4102337 9.1085972,7.1440999 10.012935,6.821122 10.7054,6.821122 q 0.800985,0 1.111044,0.3410647 0.111104,0.1188558 0.170532,0.2945558 0.06201,0.1731162 0.06201,0.3436485 0,0.3875735 -0.162781,0.7053837 -0.160197,0.3152264 -0.45992,0.5477705 -0.299724,0.2325441 -0.705384,0.3565676 -0.40566,0.1214397 -0.8888354,0.1214397 -0.085266,0 -0.3488161,-0.031006 l -0.2325441,0.423747 q 0.036174,0.05426 0.036174,0.08785 0,0.0801 -0.036174,0.134359 -0.051676,0.07752 -0.1369426,0.204122 -0.085266,0.126608 -0.116272,0.167949 -0.028422,0.04134 -0.067179,0.07235 -0.036174,0.03101 -0.072347,0.03101 -0.074931,0 -0.095601,-0.04651 -0.020671,-0.04392 -0.020671,-0.124024 0,-0.113688 0.1111044,-0.359151 Q 8.9664854,9.8441949 9.1938618,9.4359509 9.0724221,9.3894419 9.0052427,9.3145112 q -0.067179,-0.074931 -0.067179,-0.147278 0,-0.160197 0.1834515,-0.2971396 Q 9.3049666,8.733151 9.664118,8.6530524 Z m 0.2687176,0.069763 -0.1472779,0.248047 q 0.098185,0.00517 0.1731162,0.010335 0.077515,0.00517 0.129191,0.00517 0.452169,0 0.782899,-0.1214397 0.333313,-0.1214396 0.527099,-0.2997234 0.196371,-0.1808677 0.284221,-0.3617353 0.08785,-0.1808676 0.08785,-0.3023073 0,-0.1679485 -0.134359,-0.26355 -0.134359,-0.095601 -0.387573,-0.1291911 -0.250631,-0.036173 -0.64854,-0.036173 0.0052,0.028422 0.0052,0.069763 0,0.1343588 -0.142111,0.3539838 l -0.449585,0.7053837 0.338481,-0.038757 q 0.04134,0 0.04134,0.038757 0,0.03359 -0.06718,0.046509 z M 13.886086,7.536841 q 0.06976,-0.018087 0.139527,-0.036173 0.07235,-0.018087 0.144694,-0.031006 0.07493,-0.012919 0.144694,-0.012919 0.149862,0 0.255799,0.067179 0.10852,0.067179 0.160197,0.1834515 0.05426,0.1136882 0.05426,0.248047 0,0.2092897 -0.07752,0.4805911 -0.07493,0.2687176 -0.217041,0.5477705 -0.14211,0.2790529 -0.333313,0.5270999 -0.260966,0.335897 -0.627869,0.542603 -0.364319,0.204122 -0.66921,0.204122 -0.224793,0 -0.397909,-0.12144 -0.170532,-0.124023 -0.268718,-0.3565674 -0.0956,-0.2351279 -0.0956,-0.5503543 0,-0.423747 0.22996,-0.847494 0.232544,-0.4263308 0.583944,-0.7699793 0.353984,-0.3462323 0.713135,-0.5529382 0.359152,-0.2092896 0.583944,-0.2092896 0.183452,0 0.281637,0.1136882 0.09819,0.1111044 0.183451,0.3617352 -0.240295,0.00775 -0.418579,0.059428 -0.178284,0.049093 -0.369487,0.1524455 z M 13.234963,8.0613571 Q 13.054095,8.2551439 12.86806,8.5626188 12.684609,8.86751 12.57092,9.1620658 12.457232,9.4566216 12.457232,9.611651 q 0,0.3849897 0.359152,0.3849897 0.25063,0 0.645955,-0.3384808 0.397909,-0.3384809 0.689881,-0.8139043 0.294556,-0.4780073 0.294556,-0.8681646 0,-0.2868044 -0.227376,-0.2868044 -0.1757,0 -0.428915,0.1395264 -0.253215,0.1395265 -0.485759,0.395325 -0.08268,0.093018 -0.328145,0.4547529 0.04651,-0.2428794 0.258382,-0.6175338 z m 3.800804,1.6123057 0.08527,0.064596 q -0.03359,0.072347 -0.0646,0.1266073 -0.03101,0.05426 -0.07493,0.131775 -0.04392,0.077515 -0.06718,0.1162719 -0.193787,0.338481 -0.364319,0.338481 -0.07235,0 -0.124024,-0.05684 -0.05168,-0.05684 -0.05168,-0.155029 0,-0.139527 0.09819,-0.3824063 0.100769,-0.2428793 0.307475,-0.5968631 0.20929,-0.3565676 0.524516,-0.8061528 0.315227,-0.4495853 0.710552,-0.9482631 -0.227377,-0.03359 -0.540019,-0.03359 -0.359152,0 -0.800986,0.080099 -0.43925,0.080099 -0.767395,0.1860352 -0.325562,0.103353 -0.325562,0.1524456 0,0.018087 0.01292,0.025838 0.01292,0.00517 0.04134,0.010335 0.03101,0.00258 0.07752,0.00775 0.302307,0.041341 0.302307,0.093018 0,0.025838 -0.131774,0.025838 -0.131775,-0.00258 -0.317811,-0.00258 -0.147278,0 -0.214457,-0.010335 -0.0646,-0.012919 -0.08785,-0.043925 -0.02067,-0.03359 -0.02067,-0.1007691 0,-0.043925 0.02584,-0.191203 0.04909,-0.2738852 0.149861,-0.4392499 0.103353,-0.1653647 0.312643,-0.2687176 0.211873,-0.1059368 0.58136,-0.1679485 0.620118,-0.1059368 1.025778,-0.1059368 0.299723,0 0.47284,0.025838 0.173116,0.023254 0.253214,0.069763 0.08268,0.046509 0.103353,0.093018 0.02326,0.043925 0.05943,0.1550294 l 0.0801,0.2377117 q 0.0078,0.023254 0.01292,0.038757 0.0052,0.012919 0.0078,0.028422 0.0052,0.015503 0.0052,0.028422 0,0.1007691 -0.04651,0.1808676 -0.04392,0.080099 -0.165365,0.2402956 -0.118855,0.160197 -0.1757,0.2506308 -0.666626,1.0826219 -0.909505,1.6019704 z"
       id="text1"
       aria-label="DEPOT" />
    <path
       style="font-size:2.11667px;-inkscape-font-specification:'sans-serif, Normal';stroke-width:0.79375"
       d="M 2.8591503,32.760766 H 2.2142274 v -0.187069 h 0.6449229 z m 1.2784769,0.57981 H 3.3046018 V 33.18348 H 3.6249962 V 32.152016 H 3.3046018 v -0.14056 q 0.065112,0 0.1395266,-0.01034 0.074414,-0.01137 0.1126548,-0.03204 0.047542,-0.02584 0.074414,-0.06511 0.027905,-0.04031 0.032039,-0.107487 H 3.823434 v 1.386998 h 0.3141932 z m 1.4314393,-0.76998 q 0,0.414446 -0.1302248,0.608749 -0.1291913,0.193271 -0.4020433,0.193271 -0.2769861,0 -0.4051438,-0.196371 -0.1271242,-0.196371 -0.1271242,-0.603582 0,-0.410311 0.1291913,-0.605648 0.1291912,-0.196371 0.4030767,-0.196371 0.2769861,0 0.4041104,0.199471 0.1281577,0.198438 0.1281577,0.600481 z m -0.2718184,0.469223 q 0.036174,-0.08372 0.048576,-0.196371 0.013436,-0.113688 0.013436,-0.272852 0,-0.157096 -0.013436,-0.272852 -0.012402,-0.115755 -0.04961,-0.196371 -0.036173,-0.07958 -0.099219,-0.119889 -0.062012,-0.04031 -0.1601972,-0.04031 -0.097152,0 -0.1612307,0.04031 -0.063045,0.04031 -0.1002524,0.121956 -0.03514,0.07648 -0.048576,0.199472 -0.012402,0.12299 -0.012402,0.269751 0,0.161231 0.011369,0.269752 0.011369,0.10852 0.048576,0.194303 0.034107,0.08062 0.096118,0.12299 0.063045,0.04237 0.1663983,0.04237 0.097152,0 0.1612308,-0.04031 0.064079,-0.04031 0.099219,-0.121956 z M 6.5974291,31.732403 5.856388,33.654769 H 5.6775872 L 6.4155278,31.732403 Z M 7.790123,33.340576 H 6.9570976 V 33.18348 H 7.277492 V 32.152016 H 6.9570976 v -0.14056 q 0.065112,0 0.1395266,-0.01034 0.074414,-0.01137 0.1126548,-0.03204 0.047542,-0.02584 0.074414,-0.06511 0.027905,-0.04031 0.032039,-0.107487 H 7.4759298 V 33.18348 H 7.790123 Z m 1.4314394,-0.76998 q 0,0.414446 -0.1302248,0.608749 -0.1291913,0.193271 -0.4020433,0.193271 -0.2769861,0 -0.4051438,-0.196371 -0.1271243,-0.196371 -0.1271243,-0.603582 0,-0.410311 0.1291913,-0.605648 0.1291913,-0.196371 0.4030768,-0.196371 0.2769861,0 0.4041103,0.199471 0.1281578,0.198438 0.1281578,0.600481 z m -0.2718185,0.469223 q 0.036174,-0.08372 0.048576,-0.196371 0.013436,-0.113688 0.013436,-0.272852 0,-0.157096 -0.013436,-0.272852 -0.012402,-0.115755 -0.049609,-0.196371 -0.036174,-0.07958 -0.099219,-0.119889 -0.062012,-0.04031 -0.1601972,-0.04031 -0.097152,0 -0.1612307,0.04031 -0.063045,0.04031 -0.1002524,0.121956 -0.03514,0.07648 -0.048576,0.199472 -0.012402,0.12299 -0.012402,0.269751 0,0.161231 0.011369,0.269752 0.011369,0.10852 0.048576,0.194303 0.034107,0.08062 0.096118,0.12299 0.063045,0.04237 0.1663984,0.04237 0.097152,0 0.1612307,-0.04031 0.064079,-0.04031 0.099219,-0.121956 z"
       id="text2"
       aria-label="-10/10" />
    <path
       d="m 13.533209,32.407976 q 0,0.414445 -0.130225,0.608749 -0.129191,0.19327 -0.402043,0.19327 -0.276987,0 -0.405144,-0.196371 -0.127125,-0.19637 -0.127125,-0.603581 0,-0.410312 0.129192,-0.605649 0.129191,-0.196371 0.403077,-0.196371 0.276986,0 0.40411,0.199472 0.128158,0.198437 0.128158,0.600481 z m -0.271819,0.469222 q 0.03617,-0.08372 0.04858,-0.19637 0.01344,-0.113689 0.01344,-0.272852 0,-0.157097 -0.01344,-0.272852 -0.0124,-0.115756 -0.04961,-0.196371 -0.03617,-0.07958 -0.09922,-0.11989 -0.06201,-0.04031 -0.160197,-0.04031 -0.09715,0 -0.161231,0.04031 -0.06305,0.04031 -0.100253,0.121957 -0.03514,0.07648 -0.04858,0.199471 -0.0124,0.12299 -0.0124,0.269752 0,0.16123 0.01137,0.269751 0.01137,0.108521 0.04858,0.194304 0.03411,0.08062 0.09612,0.12299 0.06305,0.04237 0.166399,0.04237 0.09715,0 0.16123,-0.04031 0.06408,-0.04031 0.09922,-0.121957 z m 1.300181,-1.307415 -0.741041,1.922366 h -0.178801 l 0.737941,-1.922366 z m 1.192694,1.608173 H 14.92124 v -0.157097 h 0.320394 V 31.989396 H 14.92124 v -0.14056 q 0.06511,0 0.139526,-0.01034 0.07441,-0.01137 0.112655,-0.03204 0.04754,-0.02584 0.07441,-0.06511 0.02791,-0.04031 0.03204,-0.107488 h 0.160197 v 1.386998 h 0.314193 z m 1.431439,-0.76998 q 0,0.414445 -0.130224,0.608749 -0.129192,0.19327 -0.402044,0.19327 -0.276986,0 -0.405143,-0.196371 -0.127125,-0.19637 -0.127125,-0.603581 0,-0.410312 0.129192,-0.605649 0.129191,-0.196371 0.403076,-0.196371 0.276986,0 0.404111,0.199472 0.128157,0.198437 0.128157,0.600481 z m -0.271818,0.469222 q 0.03617,-0.08372 0.04858,-0.19637 0.01344,-0.113689 0.01344,-0.272852 0,-0.157097 -0.01344,-0.272852 -0.0124,-0.115756 -0.04961,-0.196371 -0.03617,-0.07958 -0.09922,-0.11989 -0.06201,-0.04031 -0.160198,-0.04031 -0.09715,0 -0.16123,0.04031 -0.06305,0.04031 -0.100253,0.121957 -0.03514,0.07648 -0.04858,0.199471 -0.0124,0.12299 -0.0124,0.269752 0,0.16123 0.01137,0.269751 0.01137,0.108521 0.04858,0.194304 0.03411,0.08062 0.09612,0.12299 0.06305,0.04237 0.166398,0.04237 0.09715,0 0.161231,-0.04031 0.06408,-0.04031 0.09922,-0.121957 z"
       id="text3"
       style="font-size:2.11667px;-inkscape-font-specification:'sans-serif, Normal';stroke-width:0.79375"
       aria-label="0/10" />
    <path
       d="M 3.4803208,57.928362 H 2.8353979 v -0.187069 h 0.6449229 z m 1.3539246,0.09095 q 0,0.107487 -0.039274,0.205672 -0.039274,0.09819 -0.1074871,0.165365 -0.074414,0.07235 -0.1777672,0.111621 -0.1023195,0.03824 -0.237712,0.03824 -0.1260906,0 -0.2428796,-0.02687 Q 3.9123366,58.4875 3.8317213,58.4503 v -0.218075 h 0.014469 q 0.08475,0.05374 0.1984378,0.09198 0.1136883,0.03721 0.2232425,0.03721 0.073381,0 0.1415937,-0.02067 0.069246,-0.02067 0.1229901,-0.07235 0.045475,-0.04444 0.068213,-0.106454 0.023771,-0.06201 0.023771,-0.143661 0,-0.07958 -0.027905,-0.134359 -0.026872,-0.05478 -0.075448,-0.08785 -0.053744,-0.03927 -0.1312583,-0.05478 -0.076481,-0.01654 -0.171566,-0.01654 -0.090951,0 -0.1757002,0.0124 -0.083716,0.0124 -0.1446942,0.02481 v -0.792715 h 0.9260434 v 0.180868 H 4.0973383 v 0.409278 q 0.044442,-0.0041 0.090951,-0.0062 0.046509,-0.0021 0.080615,-0.0021 0.1250571,0 0.2191084,0.0217 0.094051,0.02067 0.1725995,0.07441 0.082682,0.05684 0.1281578,0.146761 0.045475,0.08992 0.045475,0.22531 z M 5.8729432,56.9 5.1319021,58.822366 H 4.9531013 L 5.6910419,56.9 Z m 1.2681416,1.119313 q 0,0.107487 -0.039274,0.205672 -0.039274,0.09819 -0.1074871,0.165365 -0.074414,0.07235 -0.1777672,0.111621 -0.1023195,0.03824 -0.2377119,0.03824 -0.1260907,0 -0.2428796,-0.02687 -0.116789,-0.02584 -0.1974043,-0.06304 v -0.218075 h 0.014469 q 0.08475,0.05374 0.1984378,0.09198 0.1136883,0.03721 0.2232425,0.03721 0.073381,0 0.1415937,-0.02067 0.069247,-0.02067 0.1229901,-0.07235 0.045475,-0.04444 0.068213,-0.106454 0.023771,-0.06201 0.023771,-0.143661 0,-0.07958 -0.027905,-0.134359 -0.026872,-0.05478 -0.075448,-0.08785 -0.053743,-0.03927 -0.1312583,-0.05478 -0.076481,-0.01654 -0.171566,-0.01654 -0.090951,0 -0.1757002,0.0124 -0.083716,0.0124 -0.1446942,0.02481 v -0.792716 h 0.9260434 v 0.180868 H 6.4041777 v 0.409278 q 0.044442,-0.0041 0.090951,-0.0062 0.046509,-0.0021 0.080615,-0.0021 0.1250571,0 0.2191084,0.0217 0.094051,0.02067 0.1725995,0.07441 0.082682,0.05684 0.1281578,0.146761 0.045475,0.08992 0.045475,0.22531 z"
       id="text4"
       style="font-size:2.11667px;-inkscape-font-specification:'sans-serif, Normal';stroke-width:0.79375"
       aria-label="-5/5" />
    <path
       d="m 13.657925,57.623193 q 0,0.414446 -0.130224,0.608749 -0.129192,0.19327 -0.402044,0.19327 -0.276986,0 -0.405144,-0.19637 -0.127124,-0.196371 -0.127124,-0.603582 0,-0.410311 0.129191,-0.605649 0.129192,-0.19637 0.403077,-0.19637 0.276986,0 0.404111,0.199471 0.128157,0.198438 0.128157,0.600481 z m -0.271818,0.469223 q 0.03617,-0.08372 0.04858,-0.196371 0.01344,-0.113688 0.01344,-0.272852 0,-0.157097 -0.01344,-0.272852 -0.0124,-0.115755 -0.04961,-0.196371 -0.03617,-0.07958 -0.09922,-0.119889 -0.06201,-0.04031 -0.160197,-0.04031 -0.09715,0 -0.16123,0.04031 -0.06305,0.04031 -0.100253,0.121956 -0.03514,0.07648 -0.04858,0.199472 -0.0124,0.12299 -0.0124,0.269751 0,0.161231 0.01137,0.269751 0.01137,0.108521 0.04858,0.194304 0.03411,0.08062 0.09612,0.12299 0.06305,0.04237 0.166398,0.04237 0.09715,0 0.161231,-0.04031 0.06408,-0.04031 0.09922,-0.121956 z M 14.686288,56.785 13.945247,58.707366 H 13.766446 L 14.504387,56.785 Z m 1.268142,1.119313 q 0,0.107487 -0.03927,0.205673 -0.03927,0.09819 -0.107487,0.165365 -0.07441,0.07235 -0.177767,0.111621 -0.102319,0.03824 -0.237712,0.03824 -0.126091,0 -0.24288,-0.02687 -0.116788,-0.02584 -0.197404,-0.06305 v -0.218075 h 0.01447 q 0.08475,0.05374 0.198437,0.09199 0.113689,0.03721 0.223243,0.03721 0.07338,0 0.141594,-0.02067 0.06925,-0.02067 0.12299,-0.07235 0.04547,-0.04444 0.06821,-0.106454 0.02377,-0.06201 0.02377,-0.14366 0,-0.07958 -0.02791,-0.134359 -0.02687,-0.05478 -0.07545,-0.08785 -0.05374,-0.03927 -0.131258,-0.05478 -0.07648,-0.01654 -0.171567,-0.01654 -0.09095,0 -0.1757,0.0124 -0.08372,0.0124 -0.144694,0.02481 v -0.792718 h 0.926043 v 0.180868 h -0.726572 v 0.409278 q 0.04444,-0.0041 0.09095,-0.0062 0.04651,-0.0021 0.08061,-0.0021 0.125058,0 0.219109,0.0217 0.09405,0.02067 0.172599,0.07441 0.08268,0.05684 0.128158,0.146762 0.04548,0.08992 0.04548,0.225309 z"
       id="text5"
       style="font-size:2.11667px;-inkscape-font-specification:'sans-serif, Normal';stroke-width:0.79375"
       aria-label="0/5" />
    <path
       d="M 3.7987374,83.494362 H 3.1538145 v -0.187069 h 0.6449229 z m 1.2784769,0.579811 H 4.2441889 V 83.917076 H 4.5645833 V 82.885613 H 4.2441889 v -0.14056 q 0.065112,0 0.1395266,-0.01034 0.074414,-0.01137 0.1126548,-0.03204 0.047542,-0.02584 0.074414,-0.06511 0.027905,-0.04031 0.032039,-0.107488 h 0.1601972 v 1.386998 H 5.0772143 Z M 6.1913598,82.466 5.4503187,84.388366 H 5.2715179 L 6.0094585,82.466 Z m 1.1926939,1.608173 H 6.5510283 V 83.917076 H 6.8714227 V 82.885613 H 6.5510283 v -0.14056 q 0.065112,0 0.1395266,-0.01034 0.074414,-0.01137 0.1126548,-0.03204 0.047542,-0.02584 0.074414,-0.06511 0.027905,-0.04031 0.032039,-0.107488 h 0.1601972 v 1.386998 h 0.3141932 z"
       id="text6"
       style="font-size:2.11667px;-inkscape-font-specification:'sans-serif, Normal';stroke-width:0.79375"
       aria-label="-1/1" />
    <path
       d="m 13.136304,83.344193 q 0,0.414446 -0.130225,0.608749 -0.129191,0.19327 -0.402043,0.19327 -0.276987,0 -0.405144,-0.19637 -0.127124,-0.196371 -0.127124,-0.603582 0,-0.410311 0.129191,-0.605649 0.129191,-0.19637 0.403077,-0.19637 0.276986,0 0.40411,0.199471 0.128158,0.198438 0.128158,0.600481 z m -0.271819,0.469223 q 0.03617,-0.08372 0.04858,-0.196371 0.01344,-0.113688 0.01344,-0.272852 0,-0.157097 -0.01344,-0.272852 -0.0124,-0.115755 -0.04961,-0.196371 -0.03617,-0.07958 -0.09922,-0.119889 -0.06201,-0.04031 -0.160197,-0.04031 -0.09715,0 -0.161231,0.04031 -0.06305,0.04031 -0.100253,0.121956 -0.03514,0.07648 -0.04857,0.199472 -0.0124,0.12299 -0.0124,0.269751 0,0.161231 0.01137,0.269751 0.01137,0.108521 0.04858,0.194304 0.03411,0.08061 0.09612,0.12299 0.06305,0.04237 0.166399,0.04237 0.09715,0 0.16123,-0.04031 0.06408,-0.04031 0.09922,-0.121956 z M 14.164666,82.506 13.423625,84.428366 H 13.244824 L 13.982765,82.506 Z m 1.192694,1.608173 h -0.833025 v -0.157097 h 0.320394 v -1.031463 h -0.320394 v -0.14056 q 0.06511,0 0.139526,-0.01033 0.07441,-0.01137 0.112655,-0.03204 0.04754,-0.02584 0.07441,-0.06511 0.02791,-0.04031 0.03204,-0.107487 h 0.160197 v 1.386997 h 0.314193 z"
       id="text7"
       style="font-size:2.11667px;-inkscape-font-specification:'sans-serif, Normal';stroke-width:0.79375"
       aria-label="0/1" />
  </g>
  <g
     inkscape:groupmode="layer"
     id="layer2"
     inkscape:label="components" />
</svg>
