<?xml version="1.0" encoding="UTF-8" standalone="no"?>
<!-- Created with Inkscape (http://www.inkscape.org/) -->

<svg
   width="60.959999mm"
   height="128.5mm"
   viewBox="0 0 60.959999 128.5"
   version="1.1"
   id="svg1"
   inkscape:version="1.4 (e7c3feb1, 2024-10-09)"
   sodipodi:docname="detours.svg"
   xml:space="preserve"
   xmlns:inkscape="http://www.inkscape.org/namespaces/inkscape"
   xmlns:sodipodi="http://sodipodi.sourceforge.net/DTD/sodipodi-0.dtd"
   xmlns="http://www.w3.org/2000/svg"
   xmlns:svg="http://www.w3.org/2000/svg"><sodipodi:namedview
     id="namedview1"
     pagecolor="#ffffff"
     bordercolor="#000000"
     borderopacity="0.25"
     inkscape:showpageshadow="2"
     inkscape:pageopacity="0.0"
     inkscape:pagecheckerboard="0"
     inkscape:deskcolor="#d1d1d1"
     inkscape:document-units="mm"
     inkscape:zoom="1.7179234"
     inkscape:cx="36.672182"
     inkscape:cy="137.08411"
     inkscape:window-width="1104"
     inkscape:window-height="760"
     inkscape:window-x="0"
     inkscape:window-y="25"
     inkscape:window-maximized="0"
     inkscape:current-layer="layer1" /><defs
     id="defs1" /><g
     inkscape:label="Layer 1"
     inkscape:groupmode="layer"
     id="layer1"><rect
       style="fill:#ebebeb;stroke:#ebebeb;stroke-width:0.86951"
       id="rect1"
       width="60.959999"
       height="128.5"
       x="0"
       y="0"
       ry="6.2853014e-17" /><g
       id="g27"
       inkscape:label="circles"><g
         id="g1"
         transform="translate(-18.0907,29.031998)"><circle
           style="fill:#d77706;fill-opacity:1;stroke:#ebebeb;stroke-width:0;opacity:1"
           id="circle2"
           cx="28.0907"
           cy="35.968002"
           r="4.7969999" /><circle
           style="fill:#c13c05;fill-opacity:1;stroke:#ebebeb;stroke-width:0"
           id="circle1"
           cx="32.4207"
           cy="28.468002"
           r="4.7969999" /><circle
           style="fill:#a91c03;fill-opacity:1;stroke:#ebebeb;stroke-width:0"
           id="path1"
           cx="23.7607"
           cy="28.468002"
           r="4.7969999" /></g><g
         id="g26"
         transform="translate(22.8693,83.531998)"><circle
           style="opacity:1;fill:#d77706;fill-opacity:1;stroke:#ebebeb;stroke-width:0"
           id="circle24"
           cx="28.0907"
           cy="35.968002"
           r="4.7969999" /><circle
           style="fill:#c13c05;fill-opacity:1;stroke:#ebebeb;stroke-width:0"
           id="circle25"
           cx="32.4207"
           cy="28.468002"
           r="4.7969999" /><circle
           style="fill:#a91c03;fill-opacity:1;stroke:#ebebeb;stroke-width:0"
           id="circle26"
           cx="23.7607"
           cy="28.468002"
           r="4.7969999" /></g><g
         id="g5"
         transform="translate(9.4092997,68.351998)"><circle
           style="opacity:1;fill:#d77706;fill-opacity:1;stroke:#ebebeb;stroke-width:0"
           id="circle3"
           cx="28.0907"
           cy="35.968002"
           r="4.7969999" /><circle
           style="fill:#c13c05;fill-opacity:1;stroke:#ebebeb;stroke-width:0"
           id="circle4"
           cx="32.4207"
           cy="28.468002"
           r="4.7969999" /><circle
           style="fill:#a91c03;fill-opacity:1;stroke:#ebebeb;stroke-width:0"
           id="circle5"
           cx="23.7607"
           cy="28.468002"
           r="4.7969999" /></g><g
         id="g8"
         transform="translate(22.8693,53.531998)"><circle
           style="opacity:1;fill:#d77706;fill-opacity:1;stroke:#ebebeb;stroke-width:0"
           id="circle6"
           cx="28.0907"
           cy="35.968002"
           r="4.7969999" /><circle
           style="fill:#c13c05;fill-opacity:1;stroke:#ebebeb;stroke-width:0"
           id="circle7"
           cx="32.4207"
           cy="28.468002"
           r="4.7969999" /><circle
           style="fill:#a91c03;fill-opacity:1;stroke:#ebebeb;stroke-width:0"
           id="circle8"
           cx="23.7607"
           cy="28.468002"
           r="4.7969999" /></g><g
         id="g11"
         transform="translate(9.4092997,38.351998)"><circle
           style="opacity:1;fill:#d77706;fill-opacity:1;stroke:#ebebeb;stroke-width:0"
           id="circle9"
           cx="28.0907"
           cy="35.968002"
           r="4.7969999" /><circle
           style="fill:#c13c05;fill-opacity:1;stroke:#ebebeb;stroke-width:0"
           id="circle10"
           cx="32.4207"
           cy="28.468002"
           r="4.7969999" /><circle
           style="fill:#a91c03;fill-opacity:1;stroke:#ebebeb;stroke-width:0"
           id="circle11"
           cx="23.7607"
           cy="28.468002"
           r="4.7969999" /></g><g
         id="g14"
         transform="translate(22.8693,23.531998)"><circle
           style="opacity:1;fill:#d77706;fill-opacity:1;stroke:#ebebeb;stroke-width:0"
           id="circle12"
           cx="28.0907"
           cy="35.968002"
           r="4.7969999" /><circle
           style="fill:#c13c05;fill-opacity:1;stroke:#ebebeb;stroke-width:0"
           id="circle13"
           cx="32.4207"
           cy="28.468002"
           r="4.7969999" /><circle
           style="fill:#a91c03;fill-opacity:1;stroke:#ebebeb;stroke-width:0"
           id="circle14"
           cx="23.7607"
           cy="28.468002"
           r="4.7969999" /></g><g
         id="g17"
         transform="translate(9.4092997,8.5319976)"><circle
           style="opacity:1;fill:#d77706;fill-opacity:1;stroke:#ebebeb;stroke-width:0"
           id="circle15"
           cx="28.0907"
           cy="35.968002"
           r="4.7969999" /><circle
           style="fill:#c13c05;fill-opacity:1;stroke:#ebebeb;stroke-width:0"
           id="circle16"
           cx="32.4207"
           cy="28.468002"
           r="4.7969999" /><circle
           style="fill:#a91c03;fill-opacity:1;stroke:#ebebeb;stroke-width:0"
           id="circle17"
           cx="23.7607"
           cy="28.468002"
           r="4.7969999" /></g><g
         id="g20"
         transform="translate(22.8693,-6.4680024)"><circle
           style="opacity:1;fill:#d77706;fill-opacity:1;stroke:#ebebeb;stroke-width:0"
           id="circle18"
           cx="28.0907"
           cy="35.968002"
           r="4.7969999" /><circle
           style="fill:#c13c05;fill-opacity:1;stroke:#ebebeb;stroke-width:0"
           id="circle19"
           cx="32.4207"
           cy="28.468002"
           r="4.7969999" /><circle
           style="fill:#a91c03;fill-opacity:1;stroke:#ebebeb;stroke-width:0"
           id="circle20"
           cx="23.7607"
           cy="28.468002"
           r="4.7969999" /></g><g
         id="g23"
         transform="translate(9.4092997,-21.468002)"
         inkscape:label="g23"><circle
           style="opacity:1;fill:#d77706;fill-opacity:1;stroke:#ebebeb;stroke-width:0"
           id="circle21"
           cx="28.0907"
           cy="35.968002"
           r="4.7969999" /><circle
           style="fill:#c13c05;fill-opacity:1;stroke:#ebebeb;stroke-width:0"
           id="circle22"
           cx="32.4207"
           cy="28.468002"
           r="4.7969999" /><circle
           style="fill:#a91c03;fill-opacity:1;stroke:#ebebeb;stroke-width:0"
           id="circle23"
           cx="23.7607"
           cy="28.468002"
           r="4.7969999" /></g></g><rect
       style="opacity:1;fill:#a6a6a6;fill-opacity:1;stroke:#5ad7ff;stroke-width:0;stroke-opacity:1"
       id="rect29"
       width="1"
       height="105.5"
       x="24.5"
       y="9.5" /><text
       xml:space="preserve"
       style="font-size:7.05556px;font-family:'Avenir Next';-inkscape-font-specification:'Avenir Next, Normal';text-align:start;writing-mode:lr-tb;direction:ltr;text-anchor:start;display:none;opacity:1;fill:#a6a6a6;fill-opacity:1;stroke:#5ad7ff;stroke-width:0;stroke-opacity:1"
       x="9.9736834"
       y="-0.34012786"
       id="text29"
       transform="rotate(70)"><tspan
         sodipodi:role="line"
         id="tspan29"
         style="font-style:normal;font-variant:normal;font-weight:bold;font-stretch:normal;font-size:7.05556px;font-family:'Al Bayan';-inkscape-font-specification:'Al Bayan Bold';font-variant-ligatures:normal;font-variant-caps:normal;font-variant-numeric:normal;font-variant-east-asian:normal;fill:#a91c03;fill-opacity:1;stroke-width:0"
         x="9.9736834"
         y="-0.34012786">DETOURS</tspan></text><path
       style="font-weight:bold;font-size:7.05556px;font-family:'Al Bayan';-inkscape-font-specification:'Al Bayan Bold';fill:#a91c03;stroke:#5ad7ff;stroke-width:0"
       d="m 5.1673698,40.823041 q 0.6733653,0.245085 1.0955875,0.747049 0.4189849,0.500787 0.5330178,1.07389 0.08523,0.430637 0.016222,0.882126 -0.069007,0.451488 -0.2787435,1.027734 l -0.6186037,1.699599 -4.8203886,-1.754478 0.6362782,-1.74816 q 0.2144491,-0.589193 0.470341,-0.979994 0.2526547,-0.39198 0.5399918,-0.617355 0.4857664,-0.38779 1.1074295,-0.484149 0.6196037,-0.100773 1.3188676,0.153738 z M 4.6898761,42.104727 Q 4.2139882,41.931517 3.8136774,41.983792 3.4113081,42.031649 3.0836236,42.33766 2.9202214,42.494493 2.8147941,42.683424 2.7073076,42.867941 2.5611994,43.26937 L 2.4469048,43.583392 5.4640991,44.68156 5.5783936,44.367539 Q 5.7398196,43.924024 5.7763828,43.702695 5.8097084,43.480188 5.774752,43.243827 5.7042327,42.83321 5.4382359,42.556751 5.1690016,42.279114 4.6898761,42.104727 Z m 4.4970935,-4.841361 -1.2690213,3.486608 -4.8203888,-1.754478 1.2690213,-3.486608 0.9323518,0.339349 -0.8189135,2.249946 0.8319945,0.302821 0.7599989,-2.088079 0.9323518,0.339348 -0.7599988,2.08808 1.1913385,0.433611 0.8189135,-2.249946 z m -2.1359155,-6.229043 -0.547906,1.505359 3.8880369,1.41513 -0.4524647,1.243136 -3.888037,-1.415129 -0.547906,1.505359 -0.9323518,-0.339348 1.5482766,-4.253855 z m 3.4578149,-4.897002 q 1.15249,0.419472 1.591959,1.32733 0.436231,0.906678 0.01205,2.072118 -0.423007,1.162203 -1.339981,1.576356 -0.9202121,0.412974 -2.0727027,-0.0065 Q 7.5379869,30.68362 7.1049933,29.778119 6.6687625,28.87144 7.0917696,27.709237 7.5135985,26.550272 8.431751,26.132882 q 0.9149154,-0.418568 2.077118,0.0044 z m 0.620724,2.092018 Q 10.975438,27.967925 10.709418,27.772114 10.44016,27.575122 10.035494,27.427836 9.6016911,27.269944 9.2608548,27.259542 q -0.3408364,-0.0104 -0.5875164,0.08312 -0.2543329,0.09441 -0.4206864,0.279493 -0.1651758,0.18185 -0.2500129,0.414938 -0.086015,0.236326 -0.078433,0.477388 0.00876,0.237824 0.1393719,0.483339 0.1223763,0.22785 0.4051666,0.448096 0.2807315,0.21583 0.7015848,0.369008 0.4305653,0.156713 0.7702234,0.170353 0.3375993,0.0092 0.5875163,-0.08312 0.249917,-0.09235 0.419508,-0.276257 0.169591,-0.183908 0.256785,-0.423471 0.08719,-0.239563 0.07549,-0.489456 -0.01494,-0.251073 -0.150262,-0.483637 z m 1.924663,-7.02049 q 0.893504,0.325209 1.171438,1.042291 0.277935,0.71708 -0.107366,1.775688 -0.385302,1.058608 -1.059144,1.429272 -0.672662,0.367425 -1.562929,0.04339 l -3.0787033,-1.120556 0.4548211,-1.249611 3.0074822,1.094634 q 0.501787,0.182635 0.824413,0.06176 0.322626,-0.120877 0.494657,-0.593527 0.169674,-0.466176 0.01112,-0.765855 -0.157379,-0.302917 -0.67859,-0.492622 L 9.5239687,21.339082 9.9787898,20.089471 Z m -0.192361,-4.44745 q -0.181291,-0.06599 -0.337886,-0.03866 -0.156595,0.02733 -0.297037,0.181517 -0.09775,0.107402 -0.168734,0.27221 -0.07422,0.163628 -0.155522,0.387003 l -0.163783,0.44999 1.29817,0.472495 0.139039,-0.382005 q 0.108403,-0.297835 0.152321,-0.509154 0.04392,-0.211319 -0.01019,-0.384993 -0.05323,-0.16602 -0.151798,-0.267888 -0.10063,-0.106288 -0.304582,-0.18052 z m 4.049962,-0.721987 -0.552619,1.51831 -2.245971,0.671009 -0.208558,0.573008 1.767584,0.643348 -0.450108,1.236661 -4.820389,-1.754478 0.758821,-2.084843 q 0.155535,-0.427328 0.316032,-0.7172 0.160498,-0.289872 0.420163,-0.499656 0.260843,-0.213021 0.577566,-0.277387 0.314664,-0.06878 0.703144,0.07261 0.53416,0.194419 0.780114,0.566235 0.247132,0.368581 0.30319,0.909584 z m 0.08741,-4.954213 q 0.712213,0.259224 0.938624,1.027209 0.224352,0.76357 -0.152702,1.799517 -0.217984,0.598907 -0.484183,1.007953 -0.268258,0.404632 -0.57152,0.734196 l -1.155728,-0.42065 0.04949,-0.135968 q 0.447763,-0.273304 0.786076,-0.6891 0.339491,-0.419032 0.499739,-0.859309 0.04124,-0.113307 0.08898,-0.304905 0.04774,-0.191598 0.04483,-0.324637 -0.0064,-0.163653 -0.06084,-0.286112 -0.05324,-0.125699 -0.224816,-0.188148 -0.158629,-0.05774 -0.321424,0.03699 -0.164854,0.09031 -0.320627,0.326911 -0.163723,0.24837 -0.329517,0.532648 -0.167854,0.279863 -0.351881,0.51351 -0.418997,0.536743 -0.853478,0.6829 -0.43654,0.14174 -0.938326,-0.04089 -0.673366,-0.245085 -0.878294,-1.001586 -0.206987,-0.760916 0.138253,-1.709455 0.173209,-0.475887 0.435588,-0.904655 0.260319,-0.433184 0.523245,-0.722437 l 1.110405,0.404154 -0.04831,0.132731 q -0.339134,0.206523 -0.648882,0.574055 -0.311808,0.363117 -0.472055,0.803394 -0.05656,0.155392 -0.09046,0.319033 -0.03595,0.159224 -0.02953,0.322876 0.0026,0.14393 0.06997,0.271102 0.06413,0.125992 0.190385,0.171945 0.191002,0.06952 0.34762,-0.03846 0.153381,-0.109153 0.384838,-0.483184 0.151655,-0.24543 0.291824,-0.469377 0.141348,-0.227185 0.334504,-0.475841 0.382779,-0.4876 0.792242,-0.635529 0.407404,-0.152345 0.905953,0.02911 z"
       id="text30"
       aria-label="DETOURS" /><rect
       style="opacity:1;fill:#a91c03;fill-opacity:1;stroke:#5ad7ff;stroke-width:0;stroke-opacity:1"
       id="rect30"
       width="39.285099"
       height="1"
       x="-41.618748"
       y="22.350183"
       ry="2.9941361e-17"
       transform="rotate(-70)" /></g><g
     inkscape:groupmode="layer"
     id="layer4"
     inkscape:label="deco"><g
       style="fill:none"
       id="g28"
       transform="matrix(0.25625,0,0,0.29166667,15,97.916667)"><path
         d="M 8,6 V 2 h 2 l 6,6 -6,6 H 8 V 10 H -1.74845e-7 L -3.01991e-7,6 Z"
         fill="#000000"
         id="path1-4" /></g><g
       style="fill:none"
       id="g29"
       transform="matrix(-0.25625,0,0,-0.29166667,19.1,117.58334)"><path
         d="M 8,6 V 2 h 2 l 6,6 -6,6 H 8 V 10 H -1.74845e-7 L -3.01991e-7,6 Z"
         fill="#000000"
         id="path28" /></g></g><g
     inkscape:groupmode="layer"
     id="layer2"
     inkscape:label="components" /></svg>
