<?xml version="1.0" encoding="UTF-8" standalone="no"?>
<!-- Created with Inkscape (http://www.inkscape.org/) -->

<svg
   width="30.48mm"
   height="128.5mm"
   viewBox="0 0 30.48 128.5"
   version="1.1"
   id="svg1"
   inkscape:version="1.4 (e7c3feb1, 2024-10-09)"
   sodipodi:docname="fork.svg"
   xmlns:inkscape="http://www.inkscape.org/namespaces/inkscape"
   xmlns:sodipodi="http://sodipodi.sourceforge.net/DTD/sodipodi-0.dtd"
   xmlns="http://www.w3.org/2000/svg"
   xmlns:svg="http://www.w3.org/2000/svg">
  <sodipodi:namedview
     id="namedview1"
     pagecolor="#ffffff"
     bordercolor="#000000"
     borderopacity="0.25"
     inkscape:showpageshadow="2"
     inkscape:pageopacity="0.0"
     inkscape:pagecheckerboard="0"
     inkscape:deskcolor="#d1d1d1"
     inkscape:document-units="mm"
     inkscape:zoom="1.4118673"
     inkscape:cx="26.206429"
     inkscape:cy="322.97653"
     inkscape:window-width="1104"
     inkscape:window-height="759"
     inkscape:window-x="0"
     inkscape:window-y="25"
     inkscape:window-maximized="0"
     inkscape:current-layer="layer1" />
  <defs
     id="defs1">
    <rect
       x="32.108787"
       y="11.071995"
       width="46.133314"
       height="13.286394"
       id="rect2" />
  </defs>
  <rect
     style="fill:#ebebeb;stroke-width:0.264583;fill-opacity:1"
     id="rect1"
     width="30.48"
     height="128.5"
     x="0"
     y="0"
     inkscape:label="base" />
  <g
     inkscape:label="Layer 1"
     inkscape:groupmode="layer"
     id="layer1">
    <path
       style="font-size:7.19518px;font-family:Trattatello;-inkscape-font-specification:Trattatello;stroke-width:0.599597"
       d="m 8.8154106,6.4086255 q 0.043163,0 0.1582655,0.028786 0.1151021,0.028786 0.1654593,0.028786 h 0.3165309 0.1222961 l 0.2373981,-0.043179 0.1007144,0.043179 h 0.1798471 l 0.179848,-0.057571 h 0.158265 q 0.07914,0 0.158266,0.071965 0.08632,0.071965 0.08632,0.1655189 v 0.4030027 q 0,0.086358 -0.05036,0.1727154 -0.04316,0.086358 -0.12949,0.086358 Q 10.33332,7.2218272 10.189442,7.1498624 10.067146,7.0922907 9.9448505,7.0419153 9.8297483,6.9843435 9.7793911,6.9843435 H 9.5779624 q -0.021582,0 -0.079133,0.0072 -0.050357,0 -0.1079082,0.014393 -0.050357,0.0072 -0.09352,0.035983 -0.043163,0.02159 -0.043163,0.064769 v 0.259073 0.3238414 0.2590733 0.115143 q 0,0.05757 0.050357,0.08636 0.050357,0.02879 0.1151022,0.04318 0.071939,0.0072 0.1366838,0.01439 0.071939,0 0.1007144,0 0.1654593,0 0.2445921,-0.03598 0.086326,-0.04318 0.1294903,-0.09355 0.04316,-0.05037 0.06475,-0.08636 0.02877,-0.04318 0.07914,-0.04318 0.07914,0 0.12949,0.03598 0.05036,0.03598 0.05036,0.07916 l -0.07914,0.4030027 q 0.04316,0.09355 0.02158,0.115144 -0.02158,0.02159 -0.02158,0.06477 0,0.06477 0.03597,0.100751 0.02158,0.02159 0.04316,0.03598 0,0.09355 -0.06475,0.1799117 -0.06475,0.08636 -0.115102,0.08636 -0.07914,0 -0.115102,-0.05757 -0.03597,-0.06477 -0.079133,-0.1367367 -0.043163,-0.07916 -0.1151021,-0.143929 -0.064745,-0.06477 -0.2086227,-0.06477 -0.057551,0 -0.12949,0.0072 -0.064745,0 -0.1294898,0.02159 -0.057552,0.01439 -0.1007144,0.05757 -0.043163,0.04318 -0.043163,0.115144 v 0.1223397 q 0,0.05757 -0.028776,0.143929 -0.028776,0.08636 -0.028776,0.194305 0,0.06477 0.0072,0.100751 0.0072,0.02879 0.014387,0.05757 0.014387,0.02879 0.021582,0.07916 0.014387,0.04318 0.014387,0.14393 v 0.05757 q 0,0.09355 0.043163,0.187108 0.050357,0.08636 0.1007144,0.1295374 0.064745,0.02879 0.1510716,0.05038 0.09352,0.02159 0.1726532,0.04318 0.09352,0.02879 0.1942348,0.05038 0.03597,0 0.079133,0.01439 0.021581,0.0072 0.043164,0.0072 0.04316,0 0.08632,0.03598 0.05036,0.03598 0.05036,0.07916 0,0.07916 -0.05755,0.12234 -0.05036,0.05037 -0.1222966,0.07197 -0.064745,0.02879 -0.1294898,0.03598 -0.064745,0.01439 -0.086327,0.01439 -0.1007144,0 -0.1654593,-0.01439 -0.064745,-0.0072 -0.1151022,-0.02159 -0.043163,-0.0072 -0.086326,-0.02159 -0.03597,-0.0072 -0.079133,-0.0072 H 8.9377067 8.6931145 q -0.1870409,0 -0.3165309,-0.03598 -0.071939,-0.02159 -0.122296,-0.04318 -0.1007144,0 -0.1438776,0.0072 -0.043163,0 -0.071939,0.03598 -0.014387,0.01439 -0.057551,0.02159 -0.03597,0.01439 -0.122296,0.01439 H 7.7147463 7.5996441 q -0.064745,0 -0.1654593,-0.05757 -0.1007144,-0.05039 -0.1007144,-0.136748 0,-0.07196 0.057552,-0.115144 0.064745,-0.04318 0.1366838,-0.05757 0.079133,-0.02159 0.1510716,-0.02159 0.079133,-0.0072 0.1007144,-0.0072 h 0.079133 0.1798471 0.2014287 q 0.021582,0 0.050357,-0.0072 0.028776,-0.0072 0.064745,-0.02159 0.03597,-0.01439 0.079133,-0.03598 h 0.043163 q 0.09352,0 0.1222961,-0.09355 0.014387,-0.04318 0.014387,-0.100751 v -0.122334 -0.12234 l -0.057551,-0.3958087 0.057551,-0.179912 q -0.014387,-0.07196 -0.028776,-0.1367297 -0.014387,-0.05757 -0.021582,-0.107947 -0.0072,-0.05757 -0.0072,-0.07916 V 8.5243889 8.1501722 q 0.014387,-0.07196 0.028776,-0.136733 0.014387,-0.05757 0.021582,-0.107947 0.0072,-0.057571 0.0072,-0.079161 V 7.6248299 q 0,-0.02159 -0.014387,-0.1007507 -0.0072,-0.086358 -0.03597,-0.1799119 -0.028776,-0.093554 -0.079133,-0.165519 -0.043163,-0.071965 -0.1079083,-0.071965 -0.1007143,0 -0.2373981,0.079161 Q 8.0096955,7.2578096 7.916175,7.3081849 7.8154607,7.3513638 7.6428075,7.444918 7.4701543,7.5384721 7.3334704,7.6248299 7.2759193,7.6752052 7.232756,7.8047418 7.1895927,7.9270822 7.1536233,8.0638152 7.11046,8.2221372 7.0744906,8.4092452 v 0.2374847 q 0,0.10075 -0.064745,0.194304 -0.064745,0.08636 -0.1582654,0.1655197 -0.086327,0.07196 -0.187041,0.115143 -0.1007144,0.04318 -0.1654594,0.04318 -0.1510715,0 -0.2014288,-0.107947 Q 6.24,8.9417846 6.24,8.8482309 6.24,8.7043009 6.283163,8.5243889 6.326327,8.3372812 6.4054593,8.1573692 6.4773981,7.9702602 6.5637248,7.8047418 6.6572452,7.6320264 6.7579596,7.5096862 6.9090312,7.2650061 7.1032661,7.0850942 7.3046949,6.9051823 7.5277053,6.7828423 7.7507157,6.6533056 7.98092,6.566948 8.2183182,6.4733941 8.4341348,6.4086255 q 0.014387,-0.028786 0.071939,-0.028786 0.064745,-0.0072 0.1366838,0 0.079133,0.0072 0.172653,0.028786 z m 4.2803564,0.014393 0.25898,0.064769 h 0.143877 q 0.09352,0.028786 0.172653,0.057571 0.07194,0.028786 0.136684,0.057571 0.06475,0.02159 0.08632,0.043179 0.107908,0.057572 0.244592,0.1007508 0.143878,0.035982 0.237398,0.136733 0.05755,0.050375 0.115102,0.1727154 0.06475,0.12234 0.122296,0.1727154 0.244592,0.2086978 0.309338,0.4030027 0.07194,0.1871084 0.07194,0.3382344 l -0.02159,0.4749677 v 0.201501 q 0,0.07916 -0.06475,0.237484 -0.05755,0.1583217 -0.143877,0.3310377 -0.07914,0.172715 -0.151072,0.3238417 -0.07194,0.143929 -0.09352,0.187108 -0.05036,0.151126 -0.179847,0.251876 -0.122296,0.09355 -0.244592,0.1511267 -0.194235,0.151126 -0.366888,0.273466 -0.16546,0.12234 -0.374082,0.12234 -0.08632,0 -0.172654,-0.02159 -0.07914,-0.01439 -0.22301,-0.01439 -0.02877,0 -0.07194,0 -0.04316,0.0072 -0.09352,0.01439 -0.05755,0.0072 -0.115102,0.0072 h -0.122296 q -0.05755,0 -0.151072,-0.02159 -0.08632,-0.02159 -0.165459,-0.05757 -0.09352,-0.03598 -0.201429,-0.08636 -0.19422,-0.08636 -0.395649,-0.187113 Q 11.441174,10.050042 11.318878,9.8053623 11.167806,9.4455386 11.038316,9.0569286 10.91602,8.6683189 10.91602,8.3084952 q 0,-0.07197 0.01439,-0.129537 0.01439,-0.05757 0.03597,-0.115143 0.02158,-0.06477 0.05036,-0.129537 0.02877,-0.064769 0.05755,-0.1655188 0,-0.1079472 0.02877,-0.2015013 0.03597,-0.093554 0.09352,-0.2015014 0,-0.021589 0.06475,-0.136733 0.06475,-0.1151436 0.158266,-0.2446802 0.09352,-0.1295365 0.194235,-0.2302872 0.107908,-0.1079472 0.179847,-0.1079472 l 0.201429,-0.079161 q 0.09352,0 0.165459,-0.0072 0.07914,-0.0072 0.158266,-0.050375 0.07914,-0.035983 0.15107,-0.057571 0.07194,-0.028786 0.143878,-0.028786 h 0.345307 z m -0.618674,0.561325 q -0.122296,0 -0.244593,0.1655189 -0.122296,0.165519 -0.22301,0.3814133 -0.09352,0.2086978 -0.158265,0.4030025 -0.05755,0.194305 -0.05755,0.251877 v 0.12234 0.4389847 q 0,0.100751 0.122296,0.3094487 0.12949,0.201501 0.31653,0.410199 0.187041,0.2015017 0.395664,0.3598237 0.215817,0.158323 0.38847,0.158323 h 0.136684 q 0.151071,0 0.323725,-0.07916 0.179847,-0.07916 0.323725,-0.215895 0.151071,-0.136733 0.251785,-0.3166447 0.100715,-0.187108 0.100715,-0.38861 V 8.7834629 8.3084952 q 0,-0.151126 -0.04316,-0.237484 -0.03598,-0.09355 -0.100716,-0.172715 -0.06475,-0.086358 -0.151072,-0.1871086 -0.08632,-0.1079471 -0.179846,-0.287859 -0.05755,-0.043179 -0.129491,-0.1079472 -0.06475,-0.064769 -0.143877,-0.1223401 -0.07194,-0.057571 -0.158266,-0.1007506 -0.07913,-0.043179 -0.151071,-0.043179 h -0.136684 q -0.05755,0 -0.136684,-0.0072 -0.07914,-0.0072 -0.158266,-0.021589 -0.08632,-0.014393 -0.18704,-0.035983 z m 5.560878,-0.6548793 q 0.143877,0 0.266173,0.1151436 0.129489,0.1079472 0.230204,0.2015013 0.05755,0.1727155 0.179847,0.2590732 0.04316,0.050375 0.08632,0.1079471 0.04316,0.057572 0.05755,0.136733 0.02877,0 0.05755,0.064769 0.02877,0.057571 0.05036,0.1439295 0.02158,0.079161 0.03597,0.151126 0.01439,0.071965 0.01439,0.093554 0,0.1007506 -0.03597,0.2230906 -0.03597,0.1223397 -0.09352,0.2446807 -0.05036,0.12234 -0.115102,0.237483 -0.05755,0.1079477 -0.100715,0.1799117 -0.02877,0.05037 -0.07914,0.07916 -0.04316,0.02879 -0.08632,0.05757 -0.04316,0.02159 -0.07914,0.06477 -0.02877,0.04318 -0.02877,0.115144 0,0.07916 0.04316,0.2086977 0.04316,0.129537 0.107908,0.259073 0.06475,0.129537 0.12949,0.2302877 0.07194,0.10075 0.115102,0.12234 0.08632,0.05757 0.151071,0.143929 0.07194,0.08636 0.143879,0.172716 0.07914,0.08636 0.165459,0.1583227 0.08632,0.06477 0.201428,0.08636 0.04316,0.01439 0.136684,0.05757 0.09352,0.03598 0.143878,0.08636 0.04316,0.04318 0.04316,0.06477 0.0072,0.01439 -0.0072,0.07197 -0.02159,0.07916 -0.107908,0.115144 -0.07914,0.03598 -0.179847,0.04318 -0.09352,0.01439 -0.172654,0.0072 -0.07914,0 -0.09352,-0.0072 -0.05036,-0.04318 -0.136683,-0.04318 -0.07914,0 -0.129491,-0.01439 -0.194215,-0.115144 -0.273348,-0.187109 -0.07913,-0.07196 -0.187041,-0.136733 -0.04316,-0.02159 -0.107909,-0.07197 -0.06474,-0.05757 -0.143877,-0.129536 -0.07194,-0.07197 -0.151071,-0.1511307 -0.07194,-0.07916 -0.136685,-0.143932 -0.08633,-0.107947 -0.151071,-0.208698 -0.05755,-0.1007507 -0.107908,-0.1871087 -0.04316,-0.09355 -0.08633,-0.165519 -0.04316,-0.07916 -0.09352,-0.12234 -0.100714,-0.05757 -0.151071,-0.107947 -0.04316,-0.05037 -0.143878,-0.05037 -0.08632,0 -0.136683,0.05757 -0.04316,0.05038 -0.07194,0.12234 -0.02159,0.07196 -0.02877,0.151126 -0.0072,0.07916 -0.0072,0.129537 l 0.07914,0.3382337 v 0.14393 q 0,0.1727157 0.107909,0.2590727 0.115102,0.08636 0.244592,0.14393 0.129489,0.05757 0.237398,0.115143 0.115102,0.05038 0.115102,0.158323 0,0.05038 -0.05036,0.08636 -0.05036,0.03598 -0.09352,0.03598 h -0.25898 l -0.402858,-0.05757 H 16.79343 16.455318 16.333022 16.05246 q -0.02159,0 -0.143878,-0.01439 -0.115102,-0.0072 -0.251786,-0.03598 -0.129489,-0.02159 -0.237398,-0.07196 -0.107908,-0.04318 -0.107908,-0.12234 0,-0.02159 0.02159,-0.04318 0.02158,-0.02159 0.05036,-0.04318 0.02877,-0.02879 0.07194,-0.05038 0.02159,0 0.06475,0.0072 0.04316,0.0072 0.08632,0.01439 0.05036,0.0072 0.107907,0.01439 h 0.143878 q 0.143878,0 0.237398,-0.07916 0.100715,-0.08636 0.100715,-0.1799117 V 9.2296426 8.0638142 l 0.05755,-0.5181466 q -0.02159,-0.071965 -0.02877,-0.1727154 -0.0072,-0.1007506 -0.02877,-0.1871084 -0.01439,-0.093554 -0.06475,-0.1655189 -0.04316,-0.071965 -0.136684,-0.093554 h -0.280562 q -0.07914,0 -0.158264,-0.014393 -0.07914,-0.014393 -0.151072,-0.050375 -0.06475,-0.035982 -0.107909,-0.1007506 -0.04316,-0.064769 -0.04316,-0.1727154 0,-0.02159 0.02877,-0.043179 0.03597,-0.028786 0.07194,-0.050375 0.04316,-0.028786 0.100715,-0.050375 l 1.215766,-0.057571 h 0.74097 q 0.02159,0 0.07914,-0.0072 0.05755,-0.0072 0.115102,-0.02159 0.07194,-0.014393 0.151072,-0.028786 z m -0.68342,0.7340406 q -0.02877,0.0072 -0.06475,0.014393 -0.03597,0.014393 -0.07914,0.028786 -0.04316,0.0072 -0.09352,0.043179 -0.05036,0 -0.100715,0.050375 -0.04316,0.043179 -0.04316,0.1439295 V 7.4665074 7.74717 7.86951 q 0,0.057571 -0.02877,0.1079472 -0.02877,0.04318 -0.02877,0.08636 l 0.02877,0.01439 q 0.01439,0.01439 0.02159,0.02879 0.0072,0.0072 0.0072,0.04318 -0.02159,0.07197 0.01439,0.136733 0.03597,0.05757 0.100715,0.107947 0.06475,0.04318 0.136683,0.07196 0.07914,0.02159 0.12949,0.02159 0.06475,-0.02879 0.12949,-0.05757 0.05755,-0.02159 0.100714,-0.04318 0.05036,-0.02159 0.08633,-0.02159 l 0.143878,0.05757 q 0.09352,0 0.158265,-0.07196 0.06475,-0.07916 0.100714,-0.172715 0.04316,-0.100751 0.06475,-0.187109 0.02159,-0.09355 0.03597,-0.1223397 l -0.04316,-0.2015033 q 0,-0.050375 -0.01439,-0.093554 -0.0072,-0.050375 -0.06475,-0.1079471 0,-0.043179 -0.01439,-0.1295366 -0.0072,-0.086358 -0.06475,-0.1295365 -0.02159,0 -0.107908,-0.02159 -0.07914,-0.02159 -0.179847,-0.050375 -0.09352,-0.028786 -0.194235,-0.050375 -0.09352,-0.02159 -0.136684,-0.02159 z m 6.078835,-0.6548793 q 0.151072,0 0.251786,0.1151436 0.107908,0.1151436 0.107908,0.2230908 0,0.1295365 -0.129489,0.1943048 -0.122296,0.057572 -0.280562,0.086358 -0.151072,0.02159 -0.29495,0.02159 -0.136683,0 -0.158265,0 -0.05755,0.043179 -0.172653,0.1151436 -0.107909,0.064769 -0.165459,0.1223401 -0.08633,0.086358 -0.187042,0.2015013 -0.09352,0.1151437 -0.179846,0.2230908 -0.07914,0.1079472 -0.136685,0.2015017 -0.05755,0.09355 -0.05755,0.136733 0,0.05757 0.03597,0.10075 0.03597,0.04318 0.08633,0.136733 0.05036,0.08636 0.115102,0.1655197 0.07194,0.07197 0.136683,0.136733 0.06475,0.06477 0.122296,0.115143 0.05755,0.04318 0.08632,0.06477 0.05036,0.05037 0.107908,0.136733 0.05755,0.08636 0.115103,0.1799117 0.06475,0.09355 0.129489,0.187109 0.06475,0.08636 0.143878,0.136733 0.05755,0.05757 0.143877,0.1295367 0.09352,0.07197 0.179848,0.151126 0.100714,0.08636 0.215816,0.179912 h 0.143878 q 0.05755,0 0.158266,-0.0072 0.100714,-0.0072 0.158265,0.06477 0.03597,0.04318 0.08633,0.1583217 0.05036,0.107947 0.04316,0.223091 0,0.107947 -0.100714,0.194305 -0.09352,0.09355 -0.345307,0.100751 -0.122296,0 -0.194235,-0.0072 -0.07194,0 -0.129489,-0.01439 -0.05755,-0.01439 -0.122296,-0.04318 -0.05755,-0.02879 -0.158266,-0.07197 l -0.136681,-0.07915 q -0.09352,-0.03598 -0.179847,-0.115144 -0.07913,-0.07916 -0.158265,-0.187109 Q 22.562926,9.9205103 22.368691,9.6902233 22.18165,9.4527396 22.030579,9.2440416 21.929864,9.0641296 21.821956,8.9058079 q -0.107908,-0.165519 -0.208623,-0.259073 -0.107908,-0.07916 -0.201429,-0.07916 -0.04316,0 -0.09352,0.04318 -0.04316,0.04318 -0.04316,0.07916 0,0.12234 0.03597,0.2590727 0.04316,0.129537 0.04316,0.215894 v 0.14393 l 0.05755,0.136733 v 0.2015007 q 0,0.201502 0.115102,0.295056 0.115103,0.09355 0.251787,0.1367327 0.143877,0.04318 0.258979,0.07197 0.115103,0.02159 0.115103,0.09355 0,0.08636 -0.04316,0.14393 -0.04316,0.05757 -0.100714,0.09355 -0.05755,0.03598 -0.115103,0.05038 -0.05036,0.01439 -0.06475,0.01439 l -0.100715,-0.03598 q -0.04316,0 -0.05755,0.01439 -0.0072,0.02159 -0.03597,0.02159 h -0.359694 q -0.06475,-0.0072 -0.122296,-0.02879 -0.05036,-0.01439 -0.100715,-0.03598 -0.05036,-0.02159 -0.07914,-0.05757 h -0.201429 q -0.02877,0 -0.136683,0.02879 -0.107909,0.02159 -0.237398,0.05038 -0.12949,0.03598 -0.266174,0.05757 -0.12949,0.02879 -0.201429,0.02879 h -0.07914 q -0.05755,0 -0.122296,-0.03598 -0.06475,-0.02879 -0.07914,-0.107947 0,-0.04318 0.02877,-0.115144 0.03597,-0.07916 0.08632,-0.151126 0.05755,-0.07916 0.115102,-0.136733 0.05755,-0.05757 0.115102,-0.05757 h 0.05755 l 0.223011,-0.05757 h 0.258979 q 0.04316,0 0.05036,-0.04318 0.0072,-0.05038 0.0072,-0.100751 v -0.136746 q 0.0072,-0.04318 0.01439,-0.08636 0.01439,-0.09355 -0.01439,-0.1727147 -0.03597,-0.136733 -0.02159,-0.259074 0.02159,-0.129536 0.02159,-0.2230907 v -0.136738 -0.280663 q 0,-0.09355 -0.0072,-0.1799117 -0.0072,-0.09355 -0.05036,-0.14393 V 7.8263311 q 0.01439,-0.1007506 0.02878,-0.1799118 0.01439,-0.071965 0.02159,-0.1367331 0.0072,-0.064769 0.0072,-0.1007506 0,-0.2230908 -0.115102,-0.3094484 Q 20.361586,7.0131292 20.217708,6.977147 20.081025,6.941165 19.965922,6.912378 19.85082,6.876395 19.85082,6.7468591 q 0,-0.086358 0.04316,-0.1367332 0.05036,-0.057571 0.115103,-0.086358 0.06475,-0.035982 0.136684,-0.043179 0.07194,-0.014393 0.12949,-0.014393 h 0.115102 0.07914 q 0.02158,0 0.07914,0.014393 0.05755,0.0072 0.115102,0.02159 0.06475,0.0072 0.122296,0.014393 0.05755,0.0072 0.08632,0.0072 h 0.201429 l 0.280561,-0.057571 q 0.08633,0 0.201429,0.050375 0.115102,0.050375 0.115102,0.1727154 0,0.043179 -0.0072,0.079161 0,0.035982 -0.02877,0.035982 -0.06475,0 -0.12949,0.035982 -0.05755,0.035983 -0.115102,0.093554 -0.05036,0.050375 -0.08632,0.1295366 -0.02877,0.071965 -0.02877,0.1439295 v 0.136733 q 0,0.071965 0.03597,0.2374837 0.02158,0.086358 0.04316,0.1871084 v 0.057571 q 0.01439,0.043179 0.03597,0.071965 0.01439,0.02879 0.03597,0.05037 0.02159,0.02159 0.04316,0.02159 0.03597,0 0.05755,-0.02879 0.02877,-0.02879 0.06475,-0.071965 0.122296,-0.1583224 0.280561,-0.4605744 0.07914,-0.136733 0.151072,-0.2734661 0.07194,-0.1439295 0.151071,-0.2662696 0.100715,-0.1871084 0.201428,-0.2950555 0.100715,-0.1079472 0.172654,-0.1079472 h 0.08632 q 0.05755,0 0.07914,-0.028786 0.02877,-0.028786 0.115102,-0.028786 z"
       id="text3"
       aria-label="FORK" />
    <path
       d="m 9.4816153,17.523645 q -0.1457275,0.06976 -0.2775024,0.108521 -0.1302246,0.03876 -0.2775025,0.03876 -0.1875854,0 -0.344165,-0.05426 -0.1565796,-0.05581 -0.2682007,-0.167432 -0.1131714,-0.111621 -0.1751831,-0.282153 -0.062012,-0.170532 -0.062012,-0.398425 0,-0.424781 0.2325439,-0.666626 0.2340943,-0.241846 0.6170166,-0.241846 0.1488282,0 0.2914551,0.04186 0.1441772,0.04186 0.2635498,0.102319 v 0.324008 H 9.466112 Q 9.3327868,16.2245 9.1901598,16.168689 q -0.1410766,-0.05581 -0.2759521,-0.05581 -0.2480469,0 -0.3922241,0.167431 -0.142627,0.165882 -0.142627,0.488343 0,0.313159 0.1395264,0.482141 0.1410766,0.167431 0.3953247,0.167431 0.088367,0 0.179834,-0.02325 0.091467,-0.02325 0.164331,-0.06046 0.063562,-0.03256 0.1193726,-0.06821 0.05581,-0.03721 0.088367,-0.06356 h 0.015503 z m 1.8712027,-1.623156 -0.700732,1.731677 H 10.359081 L 9.6629995,15.900489 h 0.3162597 l 0.5364008,1.37821 0.53175,-1.37821 z"
       id="text4"
       style="font-size:3.175px;-inkscape-font-specification:'sans-serif, Normal';stroke-width:0.264583"
       aria-label="cv" />
    <path
       d="m 18.52394,17.353271 q 0,0.440283 -0.199988,0.646472 -0.199988,0.206189 -0.615466,0.206189 -0.137976,0 -0.269751,-0.02015 -0.130225,-0.0186 -0.257349,-0.05426 v -0.297656 h 0.0155 q 0.07131,0.02791 0.226343,0.06821 0.155029,0.04186 0.310058,0.04186 0.148829,0 0.246497,-0.03566 0.09767,-0.03566 0.151929,-0.09922 0.05426,-0.06046 0.07751,-0.145727 0.02326,-0.08527 0.02326,-0.190687 v -0.158129 q -0.131775,0.10542 -0.252698,0.158129 -0.119373,0.05116 -0.305408,0.05116 -0.310058,0 -0.492993,-0.223242 Q 17,17.075767 17,16.668041 q 0,-0.223243 0.06201,-0.384473 0.06356,-0.162781 0.172082,-0.280603 0.100769,-0.110071 0.244946,-0.170532 0.144178,-0.06201 0.286805,-0.06201 0.150378,0 0.251147,0.03101 0.102319,0.02946 0.215491,0.09147 l 0.0186,-0.07441 h 0.272852 z M 18.232485,17.074218 V 16.13009 q -0.116272,-0.05271 -0.217041,-0.07441 -0.09922,-0.02325 -0.198438,-0.02325 -0.240295,0 -0.378271,0.161231 -0.137976,0.16123 -0.137976,0.468188 0,0.291455 0.102319,0.441834 0.102319,0.150378 0.339514,0.150378 0.127124,0 0.254248,-0.04806 0.128675,-0.04961 0.235645,-0.131775 z m 2.210718,0.47594 h -0.289905 v -0.184485 q -0.03876,0.02635 -0.10542,0.07441 -0.06511,0.04651 -0.127124,0.07441 -0.07286,0.03566 -0.167432,0.05891 -0.09457,0.0248 -0.221692,0.0248 -0.234094,0 -0.396875,-0.155029 -0.16278,-0.155029 -0.16278,-0.395325 0,-0.196887 0.08371,-0.31781 0.08527,-0.122473 0.241846,-0.192236 0.15813,-0.06976 0.379822,-0.09457 0.221692,-0.0248 0.47594,-0.03721 v -0.04496 q 0,-0.09922 -0.03566,-0.164331 -0.03411,-0.06511 -0.09922,-0.102319 -0.06201,-0.03566 -0.148828,-0.04806 -0.08682,-0.0124 -0.181384,-0.0124 -0.114722,0 -0.255798,0.03101 -0.141077,0.02946 -0.291456,0.08682 h -0.0155 v -0.296108 q 0.08527,-0.02325 0.246496,-0.05116 0.161231,-0.02791 0.31781,-0.02791 0.182935,0 0.31781,0.03101 0.136426,0.02946 0.235645,0.102319 0.09767,0.07131 0.148828,0.184485 0.05116,0.113171 0.05116,0.280603 z m -0.289905,-0.42633 v -0.482141 q -0.133325,0.0078 -0.31471,0.02325 -0.179834,0.0155 -0.285254,0.04496 -0.125573,0.03566 -0.203088,0.111621 -0.07751,0.07441 -0.07751,0.206188 0,0.148829 0.08992,0.224793 0.08992,0.07441 0.274402,0.07441 0.153479,0 0.280603,-0.05891 0.127124,-0.06046 0.235645,-0.144177 z m 1.75028,0.410827 q -0.08216,0.0217 -0.179834,0.03566 -0.09612,0.01395 -0.172082,0.01395 -0.2651,0 -0.403076,-0.142627 -0.137976,-0.142627 -0.137976,-0.457337 v -0.920874 h -0.196888 v -0.244946 h 0.196888 v -0.497644 h 0.291455 v 0.497644 h 0.601513 v 0.244946 h -0.601513 v 0.7891 q 0,0.136425 0.0062,0.21394 0.0062,0.07596 0.04341,0.142627 0.03411,0.06201 0.09302,0.09147 0.06046,0.02791 0.182934,0.02791 0.07131,0 0.148828,-0.02015 0.07751,-0.0217 0.111621,-0.03566 h 0.0155 z m 1.801441,-0.820105 h -1.275891 q 0,0.159681 0.04806,0.279053 0.04806,0.117822 0.131775,0.193787 0.08062,0.07441 0.190686,0.111621 0.111621,0.03721 0.244946,0.03721 0.176734,0 0.355017,-0.06976 0.179834,-0.07131 0.255799,-0.139527 h 0.0155 v 0.31781 q -0.147278,0.06201 -0.300757,0.10387 -0.153479,0.04186 -0.322461,0.04186 -0.430982,0 -0.672827,-0.232544 -0.241846,-0.234094 -0.241846,-0.663525 0,-0.424781 0.230994,-0.674378 0.232544,-0.249597 0.610815,-0.249597 0.350366,0 0.539502,0.204639 0.190686,0.204638 0.190686,0.58136 z m -0.283704,-0.223242 q -0.0016,-0.229443 -0.116271,-0.355017 -0.113172,-0.125574 -0.345716,-0.125574 -0.234094,0 -0.37362,0.137977 -0.137976,0.137976 -0.15658,0.342614 z"
       id="text5"
       style="font-size:3.175px;-inkscape-font-specification:'sans-serif, Normal';stroke-width:0.264583"
       aria-label="gate" />
    <rect
       style="fill:#999999;fill-opacity:1;stroke-width:0.264583"
       id="rect6"
       width="25.390932"
       height="0.33704776"
       x="2.5450001"
       y="30"
       inkscape:label="div1" />
    <rect
       style="fill:#999999;fill-opacity:1;stroke-width:0.264583"
       id="rect6-8"
       width="25.390932"
       height="0.33704776"
       x="2.5450001"
       y="52.332001"
       inkscape:label="div2" />
    <rect
       style="fill:#999999;fill-opacity:1;stroke-width:0.264583"
       id="rect6-8-7"
       width="25.390932"
       height="0.33704776"
       x="2.5450001"
       y="77.332001"
       inkscape:label="div3" />
    <rect
       style="fill:#999999;fill-opacity:1;stroke-width:0.264583"
       id="rect6-8-7-6"
       width="25.390932"
       height="0.33704776"
       x="2.5445337"
       y="102.332"
       inkscape:label="div4" />
    <rect
       style="fill:#232323;stroke-width:0.380766;fill-opacity:1"
       id="rect3"
       width="21.556362"
       height="9.59445"
       x="4.4619999"
       y="35.200001"
       ry="4.1975718"
       inkscape:label="outs1" />
    <rect
       style="fill:#232323;stroke-width:0.380766;fill-opacity:1"
       id="rect3-3"
       width="21.556362"
       height="9.59445"
       x="4.4619999"
       y="60.200001"
       ry="4.1975718"
       inkscape:label="outs2" />
    <rect
       style="fill:#232323;stroke-width:0.380766;fill-opacity:1"
       id="rect3-3-9"
       width="21.556362"
       height="9.59445"
       x="4.4619999"
       y="85.199997"
       ry="4.1975718"
       inkscape:label="outs3" />
    <rect
       style="fill:#232323;stroke-width:0.380766;fill-opacity:1"
       id="rect3-3-9-3"
       width="21.556362"
       height="9.59445"
       x="4.4619999"
       y="110.2"
       ry="4.1975718"
       inkscape:label="outs4" />
  </g>
  <g
     inkscape:groupmode="layer"
     id="layer2"
     inkscape:label="components"
     style="display:inline" />
</svg>
