<?xml version="1.0" encoding="UTF-8" standalone="no"?>
<!-- Created with Inkscape (http://www.inkscape.org/) -->

<svg
   width="71.120003mm"
   height="128.5mm"
   viewBox="0 0 71.120003 128.5"
   version="1.1"
   id="svg1"
   inkscape:version="1.4 (e7c3feb1, 2024-10-09)"
   sodipodi:docname="fxb.svg"
   xml:space="preserve"
   xmlns:inkscape="http://www.inkscape.org/namespaces/inkscape"
   xmlns:sodipodi="http://sodipodi.sourceforge.net/DTD/sodipodi-0.dtd"
   xmlns="http://www.w3.org/2000/svg"
   xmlns:svg="http://www.w3.org/2000/svg"><sodipodi:namedview
     id="namedview1"
     pagecolor="#ffffff"
     bordercolor="#000000"
     borderopacity="0.25"
     inkscape:showpageshadow="2"
     inkscape:pageopacity="0.0"
     inkscape:pagecheckerboard="0"
     inkscape:deskcolor="#d1d1d1"
     inkscape:document-units="mm"
     inkscape:zoom="0.86425535"
     inkscape:cx="-85.622842"
     inkscape:cy="197.27966"
     inkscape:window-width="1440"
     inkscape:window-height="762"
     inkscape:window-x="0"
     inkscape:window-y="25"
     inkscape:window-maximized="0"
     inkscape:current-layer="layer1" /><defs
     id="defs1"><linearGradient
       id="swatch2"
       inkscape:swatch="solid"><stop
         style="stop-color:#a91c03;stop-opacity:1;"
         offset="0"
         id="stop2" /></linearGradient></defs><g
     inkscape:label="Layer 1"
     inkscape:groupmode="layer"
     id="layer1"><rect
       style="fill:#ebebeb;stroke-width:0.79375;fill-opacity:1"
       id="rect1"
       width="71.120003"
       height="128.5"
       x="0"
       y="0"
       ry="0"
       inkscape:label="back" /><text
       xml:space="preserve"
       style="font-weight:100;font-size:11.5127px;font-family:'GB18030 Bitmap';-inkscape-font-specification:'GB18030 Bitmap Thin';text-align:start;writing-mode:lr-tb;direction:ltr;text-anchor:start;display:none;fill:#002323;fill-opacity:1;stroke:#ebebeb;stroke-width:0"
       x="59.488655"
       y="69.469223"
       id="text7"
       transform="scale(0.94660244,1.0564097)"><tspan
         sodipodi:role="line"
         id="tspan7"
         style="font-style:normal;font-variant:normal;font-weight:900;font-stretch:normal;font-family:'Arial Black';-inkscape-font-specification:'Arial Black,  Heavy';fill:#a91c03;fill-opacity:1;stroke-width:0"
         x="59.488655"
         y="69.469223">F</tspan><tspan
         sodipodi:role="line"
         style="font-style:normal;font-variant:normal;font-weight:900;font-stretch:normal;font-family:'Arial Black';-inkscape-font-specification:'Arial Black,  Heavy';fill:#a91c03;fill-opacity:1;stroke-width:0"
         x="59.488655"
         y="84.187302"
         id="tspan8">X</tspan><tspan
         sodipodi:role="line"
         style="font-style:normal;font-variant:normal;font-weight:900;font-stretch:normal;font-family:'Arial Black';-inkscape-font-specification:'Arial Black,  Heavy';fill:#a91c03;fill-opacity:1;stroke-width:0"
         x="59.488655"
         y="98.90538"
         id="tspan9">B</tspan></text><g
       id="g20"
       style="font-weight:100;font-size:11.5127px;font-family:'GB18030 Bitmap';-inkscape-font-specification:'GB18030 Bitmap Thin';display:inline;fill:#d37506;fill-opacity:0.60000002;stroke:#ebebeb;stroke-width:0"
       transform="matrix(0.94660244,0,0,1.0564097,1.588288,7.4808489)"
       aria-label="F&#10;X&#10;B"><path
         style="font-weight:900;font-family:'Arial Black';-inkscape-font-specification:'Arial Black,  Heavy';fill:#d37506;fill-opacity:0.60000002"
         d="m 62.716488,18.998454 h 6.296008 v 1.770753 h -3.738255 v 1.439087 h 3.192976 v 1.663945 h -3.192976 v 3.36724 h -2.557753 z"
         id="path18" /><path
         style="font-weight:900;font-family:'Arial Black';-inkscape-font-specification:'Arial Black,  Heavy';fill:#d37506;fill-opacity:0.60000002"
         d="m 62.13748,33.716533 h 2.805097 l 1.461573,2.535267 1.416602,-2.535267 h 2.776989 l -2.563375,3.991219 2.805097,4.249805 h -2.861311 l -1.624595,-2.647696 -1.630216,2.647696 h -2.844447 l 2.844447,-4.294777 z"
         id="path19" /><path
         style="font-weight:900;font-family:'Arial Black';-inkscape-font-specification:'Arial Black,  Heavy';fill:#d37506;fill-opacity:0.60000002"
         d="m 62.710867,48.434611 h 4.766977 q 1.191745,0 1.826967,0.590251 0.640843,0.59025 0.640843,1.461573 0,0.730786 -0.455336,1.25358 -0.303557,0.348529 -0.888187,0.550901 0.888187,0.213614 1.304173,0.736408 0.421608,0.517172 0.421608,1.304173 0,0.640843 -0.297936,1.152394 -0.297936,0.511551 -0.815108,0.809487 -0.320422,0.185507 -0.966887,0.269829 -0.86008,0.112428 -1.141152,0.112428 h -4.395962 z m 2.568996,3.232325 h 1.107423 q 0.595872,0 0.826351,-0.202371 0.2361,-0.207994 0.2361,-0.595873 0,-0.359771 -0.2361,-0.562143 -0.230479,-0.202372 -0.809487,-0.202372 h -1.124287 z m 0,3.237947 h 1.298551 q 0.657708,0 0.927537,-0.230479 0.269829,-0.2361 0.269829,-0.6296 0,-0.365394 -0.269829,-0.58463 -0.264207,-0.224857 -0.933158,-0.224857 h -1.29293 z"
         id="path20" /></g><g
       id="g17"
       style="font-weight:100;font-size:11.5127px;font-family:'GB18030 Bitmap';-inkscape-font-specification:'GB18030 Bitmap Thin';fill:#c13c05;fill-opacity:0.80000001;stroke:#ebebeb;stroke-width:0"
       transform="matrix(0.94660244,0,0,1.0564097,2.555288,6.4368489)"
       aria-label="F&#10;X&#10;B"><path
         style="font-weight:900;font-family:'Arial Black';-inkscape-font-specification:'Arial Black,  Heavy';fill:#c13c05;fill-opacity:0.80000001"
         d="m 62.716488,18.998454 h 6.296008 v 1.770753 h -3.738255 v 1.439087 h 3.192976 v 1.663945 h -3.192976 v 3.36724 h -2.557753 z"
         id="path15" /><path
         style="font-weight:900;font-family:'Arial Black';-inkscape-font-specification:'Arial Black,  Heavy';fill:#c13c05;fill-opacity:0.80000001"
         d="m 62.13748,33.716533 h 2.805097 l 1.461573,2.535267 1.416602,-2.535267 h 2.776989 l -2.563375,3.991219 2.805097,4.249805 h -2.861311 l -1.624595,-2.647696 -1.630216,2.647696 h -2.844447 l 2.844447,-4.294777 z"
         id="path16" /><path
         style="font-weight:900;font-family:'Arial Black';-inkscape-font-specification:'Arial Black,  Heavy';fill:#c13c05;fill-opacity:0.80000001"
         d="m 62.710867,48.434611 h 4.766977 q 1.191745,0 1.826967,0.590251 0.640843,0.59025 0.640843,1.461573 0,0.730786 -0.455336,1.25358 -0.303557,0.348529 -0.888187,0.550901 0.888187,0.213614 1.304173,0.736408 0.421608,0.517172 0.421608,1.304173 0,0.640843 -0.297936,1.152394 -0.297936,0.511551 -0.815108,0.809487 -0.320422,0.185507 -0.966887,0.269829 -0.86008,0.112428 -1.141152,0.112428 h -4.395962 z m 2.568996,3.232325 h 1.107423 q 0.595872,0 0.826351,-0.202371 0.2361,-0.207994 0.2361,-0.595873 0,-0.359771 -0.2361,-0.562143 -0.230479,-0.202372 -0.809487,-0.202372 h -1.124287 z m 0,3.237947 h 1.298551 q 0.657708,0 0.927537,-0.230479 0.269829,-0.2361 0.269829,-0.6296 0,-0.365394 -0.269829,-0.58463 -0.264207,-0.224857 -0.933158,-0.224857 h -1.29293 z"
         id="path17" /></g><g
       id="text12"
       style="font-weight:100;font-size:11.5127px;font-family:'GB18030 Bitmap';-inkscape-font-specification:'GB18030 Bitmap Thin';fill:#002323;stroke:#ebebeb;stroke-width:0"
       transform="matrix(0.94660243,0,0,1.0564097,3.5932779,5.3861005)"
       aria-label="F&#10;X&#10;B"><path
         style="font-weight:900;font-family:'Arial Black';-inkscape-font-specification:'Arial Black,  Heavy';fill:#a91c03"
         d="m 62.716488,18.998454 h 6.296008 v 1.770753 h -3.738255 v 1.439087 h 3.192976 v 1.663945 h -3.192976 v 3.36724 h -2.557753 z"
         id="path12" /><path
         style="font-weight:900;font-family:'Arial Black';-inkscape-font-specification:'Arial Black,  Heavy';fill:#a91c03"
         d="m 62.13748,33.716533 h 2.805097 l 1.461573,2.535267 1.416602,-2.535267 h 2.776989 l -2.563375,3.991219 2.805097,4.249805 h -2.861311 l -1.624595,-2.647696 -1.630216,2.647696 h -2.844447 l 2.844447,-4.294777 z"
         id="path13" /><path
         style="font-weight:900;font-family:'Arial Black';-inkscape-font-specification:'Arial Black,  Heavy';fill:#a91c03"
         d="m 62.710867,48.434611 h 4.766977 q 1.191745,0 1.826967,0.590251 0.640843,0.59025 0.640843,1.461573 0,0.730786 -0.455336,1.25358 -0.303557,0.348529 -0.888187,0.550901 0.888187,0.213614 1.304173,0.736408 0.421608,0.517172 0.421608,1.304173 0,0.640843 -0.297936,1.152394 -0.297936,0.511551 -0.815108,0.809487 -0.320422,0.185507 -0.966887,0.269829 -0.86008,0.112428 -1.141152,0.112428 h -4.395962 z m 2.568996,3.232325 h 1.107423 q 0.595872,0 0.826351,-0.202371 0.2361,-0.207994 0.2361,-0.595873 0,-0.359771 -0.2361,-0.562143 -0.230479,-0.202372 -0.809487,-0.202372 h -1.124287 z m 0,3.237947 h 1.298551 q 0.657708,0 0.927537,-0.230479 0.269829,-0.2361 0.269829,-0.6296 0,-0.365394 -0.269829,-0.58463 -0.264207,-0.224857 -0.933158,-0.224857 h -1.29293 z"
         id="path14" /></g></g><g
     inkscape:groupmode="layer"
     id="layer3"
     inkscape:label="deco"><rect
       style="fill:#a91c03;fill-opacity:1;stroke:#ebebeb;stroke-width:0;stroke-dasharray:none"
       id="rect2"
       width="3"
       height="80.5"
       x="52.060001"
       y="12.5"
       inkscape:label="mix" /><rect
       style="fill:#c13c05;fill-opacity:1;stroke:#ebebeb;stroke-width:0;stroke-dasharray:none"
       id="rect2-2"
       width="3"
       height="80.5"
       x="33.060001"
       y="12.5"
       inkscape:label="return" /><rect
       style="fill:#d37506;fill-opacity:1;stroke:#ebebeb;stroke-width:0;stroke-dasharray:none"
       id="rect2-2-0"
       width="3"
       height="80.5"
       x="6.0599999"
       y="12.5"
       inkscape:label="in" /><rect
       style="fill:#c13c05;fill-opacity:1;stroke:#ebebeb;stroke-width:0;stroke-dasharray:none"
       id="rect3"
       width="3"
       height="80.5"
       x="15.06"
       y="12.5"
       inkscape:label="send" /><rect
       style="fill:#a91c03;fill-opacity:1;stroke:#ebebeb;stroke-width:0;stroke-dasharray:none"
       id="rect4"
       width="1.5"
       height="9.7905598"
       x="26.630739"
       y="-57.485081"
       inkscape:label="mixlink"
       transform="rotate(72.23574)" /><rect
       style="fill:#d37506;fill-opacity:1;stroke:#ebebeb;stroke-width:0;stroke-dasharray:none"
       id="rect5"
       width="3"
       height="80.5"
       x="42.060001"
       y="12.5"
       inkscape:label="out" /><rect
       style="fill:#a6a6a6;fill-opacity:1;stroke:#ebebeb;stroke-width:0;stroke-dasharray:none"
       id="rect6"
       width="1"
       height="80.5"
       x="25.059999"
       y="12.5"
       inkscape:label="buttons" /><g
       style="fill:#c13c05;fill-opacity:1"
       id="g6"
       transform="matrix(0,-0.25,0.25,0,14.56,6.5)"><path
         d="M 8,6 V 2 h 2 l 6,6 -6,6 H 8 V 10 H -1.74845e-7 L -3.01991e-7,6 Z"
         fill="#000000"
         id="path1"
         style="fill:#c13c05;fill-opacity:1" /></g><g
       style="fill:#c13c05;fill-opacity:1"
       id="g6-4"
       transform="matrix(0,0.25,-0.25,0,36.56,2.5000001)"><path
         d="M 8,6 V 2 h 2 l 6,6 -6,6 H 8 V 10 H -1.74845e-7 L -3.01991e-7,6 Z"
         fill="#000000"
         id="path1-2"
         style="fill:#c13c05;fill-opacity:1" /></g><g
       id="g7"
       transform="matrix(1.0250787,0,0,0.83038764,-0.53168443,17.777193)"><rect
         style="fill:#232323;fill-opacity:1;stroke:#ebebeb;stroke-width:0"
         id="rect7"
         width="68.866905"
         height="26.008335"
         x="0.77524233"
         y="98.659714"
         ry="1.9839103" /><rect
         style="fill:#ebebeb;fill-opacity:1;stroke:#ebebeb;stroke-width:0"
         id="rect7-7"
         width="66.891449"
         height="23.803341"
         x="1.7624836"
         y="99.761612"
         ry="1.5163045" /></g></g><g
     inkscape:groupmode="layer"
     id="layer2"
     inkscape:label="components" /></svg>
