<?xml version="1.0" encoding="UTF-8" standalone="no"?>
<!-- Created with Inkscape (http://www.inkscape.org/) -->

<svg
   width="20.32mm"
   height="128.5mm"
   viewBox="0 0 20.32 128.5"
   version="1.1"
   id="svg1"
   inkscape:version="1.4 (e7c3feb1, 2024-10-09)"
   sodipodi:docname="gatesync.svg"
   xmlns:inkscape="http://www.inkscape.org/namespaces/inkscape"
   xmlns:sodipodi="http://sodipodi.sourceforge.net/DTD/sodipodi-0.dtd"
   xmlns="http://www.w3.org/2000/svg"
   xmlns:svg="http://www.w3.org/2000/svg">
  <sodipodi:namedview
     id="namedview1"
     pagecolor="#ffffff"
     bordercolor="#000000"
     borderopacity="0.25"
     inkscape:showpageshadow="2"
     inkscape:pageopacity="0.0"
     inkscape:pagecheckerboard="0"
     inkscape:deskcolor="#d1d1d1"
     inkscape:document-units="mm"
     inkscape:zoom="2.3163437"
     inkscape:cx="15.97345"
     inkscape:cy="93.250411"
     inkscape:window-width="1104"
     inkscape:window-height="761"
     inkscape:window-x="0"
     inkscape:window-y="25"
     inkscape:window-maximized="0"
     inkscape:current-layer="layer1" />
  <defs
     id="defs1">
    <rect
       x="10.037556"
       y="7.7562932"
       width="59.769083"
       height="53.8378"
       id="rect4" />
  </defs>
  <g
     inkscape:label="Layer 1"
     inkscape:groupmode="layer"
     id="layer1">
    <rect
       style="fill:#ebebeb;stroke-width:0.79375"
       id="rect1"
       width="20.319998"
       height="128.5"
       x="0"
       y="0"
       ry="0"
       inkscape:label="back" />
    <rect
       style="fill:#232323;stroke:#ebebeb;stroke-width:0"
       id="rect2"
       width="9.045908"
       height="89.594002"
       x="10.16"
       y="35.202999"
       ry="2.3690717" />
    <rect
       style="fill:#232323;stroke:#ebebeb;stroke-width:0"
       id="rect3"
       width="9.045908"
       height="9.5939999"
       x="10.16"
       y="18.202999"
       ry="3.8630724" />
    <path
       style="font-weight:bold;font-size:20px;font-family:Monospace;-inkscape-font-specification:'Monospace Bold';white-space:pre;fill:#232323;stroke:#ebebeb;stroke-width:0"
       d="M 6.6742271,9.536909 Q 6.227226,9.865054 5.6846236,9.865054 q -0.710551,0 -1.0774535,-0.48059 -0.3669027,-0.4831754 -0.3669027,-1.4107675 0,-0.8965862 0.3539834,-1.3952636 0.3565676,-0.4986776 1.0903728,-0.4986776 0.2635498,0 0.5219319,0.067179 0.2583823,0.067179 0.4159953,0.1782839 L 6.4830244,6.6585313 Q 6.1187056,6.4518256 5.6846236,6.4518256 q -0.5012614,0 -0.7493082,0.3669027 -0.245463,0.3669027 -0.245463,1.1549682 0,1.5192875 0.9947712,1.5192875 0.3746542,0 0.5658569,-0.157613 V 8.4362006 H 5.5941898 V 8.0692978 H 6.6742271 Z M 10.126213,9.795291 H 9.6817958 L 9.2787193,8.5188829 H 8.08241 L 7.6741661,9.795291 H 7.2349165 L 8.4260582,6.1495185 H 8.9350711 Z M 9.1572798,8.1493965 8.6792727,6.6404447 8.2038495,8.1493965 Z M 13.190626,6.4931667 H 12.066663 V 9.795291 H 11.6455 V 6.4931667 H 10.51637 V 6.1495185 h 2.674256 z M 16.004407,9.795291 H 14.100131 V 6.1495185 h 1.888773 V 6.5190049 H 14.523877 V 7.6481351 H 15.93206 V 8.0176215 H 14.523877 V 9.425805 h 1.48053 z m -9.7280883,3.627867 q -0.3255616,-0.111104 -0.6175333,-0.111104 -0.3307291,0 -0.5400188,0.152445 -0.2067057,0.149862 -0.2067057,0.428915 0,0.330729 0.5451864,0.58136 0.4030763,0.186035 0.5322673,0.258382 0.1317749,0.07235 0.2661335,0.198954 0.1343589,0.126607 0.2144572,0.299724 0.082682,0.170532 0.082682,0.384989 0,0.532267 -0.3591512,0.826823 -0.3565673,0.291972 -0.8423256,0.291972 -0.4702556,0 -0.8242393,-0.186036 l 0.08785,-0.364318 q 0.4159953,0.188619 0.7260539,0.188619 0.3617349,0 0.5787761,-0.186036 0.2196248,-0.188619 0.2196248,-0.516764 0,-0.242879 -0.1421101,-0.410828 Q 5.8551557,15.089723 5.4727503,14.914023 5.0800094,14.733156 4.9637374,14.66856 4.8500492,14.601381 4.7363611,14.485109 q -0.1136882,-0.116272 -0.1757,-0.260966 -0.062012,-0.144694 -0.062012,-0.315226 0,-0.452169 0.3255616,-0.705383 0.3255616,-0.253215 0.824239,-0.253215 0.3643188,0 0.72347,0.111104 z m 3.7542933,-0.403076 -1.1394657,2.085144 v 1.560628 H 8.4699833 V 15.105226 L 7.3305179,13.020082 H 7.808525 l 0.8707477,1.640727 0.8733321,-1.640727 z m 2.919718,3.645772 h -0.470255 l -1.307414,-2.878377 v 2.878377 h -0.423747 v -3.645772 h 0.472839 l 1.312582,2.852539 v -2.852539 h 0.415995 z m 3.255615,-0.227376 q -0.428914,0.29714 -0.994771,0.29714 -0.707967,0 -1.077454,-0.485759 -0.366902,-0.485758 -0.366902,-1.405599 0,-0.888834 0.356567,-1.390096 0.356568,-0.503845 1.087789,-0.503845 0.26355,0 0.521932,0.06718 0.258382,0.06718 0.415995,0.178284 l -0.139526,0.333313 q -0.364319,-0.206706 -0.798401,-0.206706 -0.503845,0 -0.749308,0.366903 -0.245463,0.364319 -0.245463,1.154968 0,1.519287 0.994771,1.519287 0.421163,0 0.862996,-0.258382 z"
       id="text3"
       aria-label="GATE&#10;SYNC" />
  </g>
  <g
     inkscape:groupmode="layer"
     id="layer2"
     inkscape:label="components" />
</svg>
