<?xml version="1.0" encoding="UTF-8" standalone="no"?>
<!-- Created with Inkscape (http://www.inkscape.org/) -->

<svg
   width="20.32mm"
   height="128.5mm"
   viewBox="0 0 20.32 128.5"
   version="1.1"
   id="svg1"
   inkscape:version="1.4 (e7c3feb1, 2024-10-09)"
   sodipodi:docname="minifx.svg"
   xmlns:inkscape="http://www.inkscape.org/namespaces/inkscape"
   xmlns:sodipodi="http://sodipodi.sourceforge.net/DTD/sodipodi-0.dtd"
   xmlns="http://www.w3.org/2000/svg"
   xmlns:svg="http://www.w3.org/2000/svg">
  <sodipodi:namedview
     id="namedview1"
     pagecolor="#ffffff"
     bordercolor="#000000"
     borderopacity="0.25"
     inkscape:showpageshadow="2"
     inkscape:pageopacity="0.0"
     inkscape:pagecheckerboard="0"
     inkscape:deskcolor="#d1d1d1"
     inkscape:document-units="mm"
     inkscape:zoom="2.6620735"
     inkscape:cx="-1.8782351"
     inkscape:cy="-6.198176"
     inkscape:window-width="1104"
     inkscape:window-height="762"
     inkscape:window-x="0"
     inkscape:window-y="25"
     inkscape:window-maximized="0"
     inkscape:current-layer="layer3" />
  <defs
     id="defs1" />
  <g
     inkscape:label="Layer 1"
     inkscape:groupmode="layer"
     id="layer1">
    <rect
       style="fill:#ebebeb;stroke:#ebebeb;stroke-width:0.79375"
       id="rect1"
       width="20.319998"
       height="128.5"
       x="0"
       y="0"
       ry="0" />
  </g>
  <g
     inkscape:groupmode="layer"
     id="layer3"
     inkscape:label="deco">
    <rect
       style="fill:#d37506;fill-opacity:1;stroke:#ebebeb;stroke-width:0"
       id="rect2"
       width="9"
       height="3"
       x="5.6599998"
       y="16.75" />
    <rect
       style="fill:#c13c05;fill-opacity:1;stroke:#ebebeb;stroke-width:0"
       id="rect3"
       width="9"
       height="3"
       x="5.6599998"
       y="28.25" />
    <rect
       style="fill:#a6a6a6;fill-opacity:1;stroke:#ebebeb;stroke-width:0"
       id="rect4"
       width="9"
       height="1"
       x="5.6599998"
       y="40.75" />
    <rect
       style="fill:#c13c05;fill-opacity:1;stroke:#ebebeb;stroke-width:0"
       id="rect5"
       width="9"
       height="3"
       x="5.6599998"
       y="51.25" />
    <rect
       style="fill:#d37506;fill-opacity:1;stroke:#ebebeb;stroke-width:0"
       id="rect6"
       width="9"
       height="3"
       x="5.6599998"
       y="62.75" />
    <rect
       style="fill:#a91c03;fill-opacity:1;stroke:#ebebeb;stroke-width:0"
       id="rect7"
       width="3"
       height="20"
       x="8.6599998"
       y="75" />
    <path
       d="m 10.16,25.5 v -1 h 0.5 l 1.5,1.5 -1.5,1.5 h -0.5 v -1 h -2 v -1 z"
       fill="#000000"
       id="path1"
       style="fill:#c13c05;fill-opacity:1;stroke-width:0.25" />
    <path
       d="m 10.16,57 v 1 H 9.66 L 8.16,56.5 9.66,55 h 0.5 v 1 h 2 v 1 z"
       fill="#000000"
       id="path2"
       style="fill:#c13c05;fill-opacity:1;stroke-width:0.25" />
    <g
       id="g7"
       transform="matrix(0.26999906,0,0,0.71492465,0.65368529,32.168738)">
      <rect
         style="fill:#232323;fill-opacity:1;stroke:#ebebeb;stroke-width:0"
         id="rect7-5"
         width="68.866905"
         height="26.008335"
         x="0.77524233"
         y="98.659714"
         ry="1.9839103" />
      <rect
         style="fill:#ebebeb;fill-opacity:1;stroke:#ebebeb;stroke-width:0"
         id="rect7-7"
         width="64.950714"
         height="23.803341"
         x="2.7328489"
         y="99.761612"
         ry="1.5163045" />
    </g>
    <text
       xml:space="preserve"
       style="font-style:normal;font-variant:normal;font-weight:100;font-stretch:normal;font-size:7.05556px;font-family:'GB18030 Bitmap';-inkscape-font-specification:'GB18030 Bitmap, Thin';font-variant-ligatures:normal;font-variant-caps:normal;font-variant-numeric:normal;font-variant-east-asian:normal;text-align:start;writing-mode:lr-tb;direction:ltr;text-anchor:start;display:none;fill:#d37506;stroke:#ebebeb;stroke-width:0"
       x="9.1380711"
       y="5.8068943"
       id="text2"><tspan
         sodipodi:role="line"
         id="tspan2"
         style="font-style:normal;font-variant:normal;font-weight:100;font-stretch:normal;font-size:7.05556px;font-family:'GB18030 Bitmap';-inkscape-font-specification:'GB18030 Bitmap, Thin';font-variant-ligatures:normal;font-variant-caps:normal;font-variant-numeric:normal;font-variant-east-asian:normal;stroke-width:0"
         x="9.1380711"
         y="5.8068943">mF</tspan></text>
    <path
       d="M 15.419282,6.303844 H 14.860039 V 4.1976672 q 0,-0.2384352 -0.02083,-0.4603122 -0.01785,-0.2218772 -0.08032,-0.3543411 -0.06842,-0.1423988 -0.19633,-0.2152539 -0.127912,-0.072855 -0.368862,-0.072855 -0.235001,0 -0.470001,0.1324639 -0.235001,0.1291523 -0.470002,0.3311599 0.0089,0.076166 0.01487,0.1788264 0.006,0.099348 0.006,0.1986958 v 2.367793 h -0.55927 V 4.1976672 q 0,-0.2450584 -0.02083,-0.4636238 Q 12.676614,3.5121662 12.614144,3.3797023 12.545724,3.2373035 12.417815,3.16776 12.289903,3.094905 12.048953,3.094905 q -0.229051,0 -0.461077,0.1258407 -0.229052,0.1258407 -0.458103,0.3212251 V 6.303844 h -0.55924 V 2.6047882 h 0.559243 v 0.4106382 q 0.261772,-0.2417467 0.520571,-0.3775223 0.261772,-0.1357755 0.556267,-0.1357755 0.339115,0 0.574116,0.1589567 0.237976,0.1589568 0.353988,0.4404427 0.339116,-0.3179135 0.618736,-0.4570007 0.279621,-0.1423987 0.597913,-0.1423987 0.547344,0 0.806142,0.3708991 0.261773,0.3675874 0.261773,1.0299072 z M 19.369673,1.9557148 H 17.12973 v 1.3908714 h 1.924626 V 3.9294276 H 17.12973 V 6.303844 H 16.540741 V 1.3728734 h 2.828932 z"
       id="text3"
       style="font-weight:100;font-size:7.05556px;font-family:'GB18030 Bitmap';-inkscape-font-specification:'GB18030 Bitmap, Thin';fill:#a91c03;stroke:#ebebeb;stroke-width:0;fill-opacity:1"
       aria-label="mF" />
  </g>
  <g
     inkscape:groupmode="layer"
     id="layer2"
     inkscape:label="components" />
</svg>
