<?xml version="1.0" encoding="UTF-8" standalone="no"?>
<!-- Created with Inkscape (http://www.inkscape.org/) -->

<svg
   width="50.799999mm"
   height="128.5mm"
   viewBox="0 0 50.799999 128.5"
   version="1.1"
   id="svg1"
   inkscape:version="1.4 (e7c3feb1, 2024-10-09)"
   sodipodi:docname="orgex.svg"
   xmlns:inkscape="http://www.inkscape.org/namespaces/inkscape"
   xmlns:sodipodi="http://sodipodi.sourceforge.net/DTD/sodipodi-0.dtd"
   xmlns:xlink="http://www.w3.org/1999/xlink"
   xmlns="http://www.w3.org/2000/svg"
   xmlns:svg="http://www.w3.org/2000/svg">
  <sodipodi:namedview
     id="namedview1"
     pagecolor="#ffffff"
     bordercolor="#000000"
     borderopacity="0.25"
     inkscape:showpageshadow="2"
     inkscape:pageopacity="0.0"
     inkscape:pagecheckerboard="0"
     inkscape:deskcolor="#d1d1d1"
     inkscape:document-units="mm"
     inkscape:zoom="2.0983622"
     inkscape:cx="66.242139"
     inkscape:cy="442.24968"
     inkscape:window-width="1104"
     inkscape:window-height="713"
     inkscape:window-x="0"
     inkscape:window-y="25"
     inkscape:window-maximized="0"
     inkscape:current-layer="layer1" />
  <defs
     id="defs1">
    <linearGradient
       id="swatch4"
       inkscape:swatch="solid">
      <stop
         style="stop-color:#ebebeb;stop-opacity:1;"
         offset="0"
         id="stop4" />
    </linearGradient>
    <rect
       x="56.982734"
       y="58.22149"
       width="69.370285"
       height="35.923898"
       id="rect1" />
    <linearGradient
       inkscape:collect="always"
       xlink:href="#swatch4"
       id="linearGradient9"
       gradientUnits="userSpaceOnUse"
       gradientTransform="matrix(38.363924,0,0,4.3043397,-409.71781,-63.343862)"
       x1="10.766602"
       y1="20.369247"
       x2="11.930559"
       y2="20.369247" />
    <linearGradient
       inkscape:collect="always"
       xlink:href="#swatch4"
       id="linearGradient11"
       gradientUnits="userSpaceOnUse"
       gradientTransform="matrix(38.363924,0,0,4.3043397,-409.71782,6.0636659)"
       x1="10.766602"
       y1="20.369247"
       x2="11.930559"
       y2="20.369247" />
    <linearGradient
       inkscape:collect="always"
       xlink:href="#swatch4"
       id="linearGradient12"
       gradientUnits="userSpaceOnUse"
       gradientTransform="matrix(38.363924,0,0,4.3043397,-409.71781,-7.81784)"
       x1="10.766602"
       y1="20.369247"
       x2="11.930559"
       y2="20.369247" />
    <linearGradient
       inkscape:collect="always"
       xlink:href="#swatch4"
       id="linearGradient13"
       gradientUnits="userSpaceOnUse"
       gradientTransform="matrix(38.363924,0,0,4.3043397,-409.71781,19.945162)"
       x1="10.766602"
       y1="20.369247"
       x2="11.930559"
       y2="20.369247" />
    <linearGradient
       inkscape:collect="always"
       xlink:href="#swatch4"
       id="linearGradient14"
       gradientUnits="userSpaceOnUse"
       gradientTransform="matrix(38.363924,0,0,4.3043397,-409.71781,-21.699348)"
       x1="10.766602"
       y1="20.369247"
       x2="11.930559"
       y2="20.369247" />
    <linearGradient
       inkscape:collect="always"
       xlink:href="#swatch4"
       id="linearGradient15"
       gradientUnits="userSpaceOnUse"
       gradientTransform="matrix(38.363924,0,0,4.3043397,-409.71781,-35.58085)"
       x1="10.766602"
       y1="20.369247"
       x2="11.930559"
       y2="20.369247" />
    <linearGradient
       inkscape:collect="always"
       xlink:href="#swatch4"
       id="linearGradient16"
       gradientUnits="userSpaceOnUse"
       gradientTransform="matrix(38.363924,0,0,4.3043397,-409.71781,-49.462355)"
       x1="10.766602"
       y1="20.369247"
       x2="11.930559"
       y2="20.369247" />
  </defs>
  <g
     inkscape:label="Layer 1"
     inkscape:groupmode="layer"
     id="layer1">
    <rect
       style="fill:#ebebeb;stroke-width:0.264583;fill-opacity:1"
       id="rect2"
       width="50.799999"
       height="128.5"
       x="0"
       y="0"
       inkscape:label="base" />
    <path
       d="m 59.267312,60.343193 0.261962,0.06549 h 0.145534 q 0.0946,0.02911 0.174642,0.05821 0.07277,0.02911 0.138257,0.05821 0.06549,0.02183 0.08732,0.04366 0.109151,0.05821 0.247408,0.101874 0.145535,0.03638 0.240132,0.138258 0.05821,0.05094 0.116428,0.174641 0.06549,0.123704 0.123704,0.174641 0.247408,0.211025 0.312899,0.407497 0.07277,0.189194 0.07277,0.342005 l -0.02183,0.480264 v 0.203748 q 0,0.08004 -0.06549,0.240132 -0.05821,0.160088 -0.145534,0.334729 -0.08004,0.174641 -0.152811,0.327452 -0.07277,0.145535 -0.0946,0.189195 -0.05094,0.152811 -0.181918,0.254685 -0.123705,0.0946 -0.247409,0.152811 -0.196471,0.152812 -0.371113,0.276516 -0.167364,0.123704 -0.378389,0.123704 -0.08732,0 -0.174641,-0.02183 -0.08004,-0.01455 -0.225579,-0.01455 -0.02911,0 -0.07277,0 -0.04366,0.0073 -0.0946,0.01455 -0.05821,0.0073 -0.116428,0.0073 h -0.123704 q -0.05821,0 -0.152811,-0.02183 -0.08732,-0.02183 -0.167365,-0.05821 -0.0946,-0.03638 -0.203748,-0.08732 -0.196471,-0.08732 -0.400219,-0.189195 -0.203749,-0.10915 -0.327453,-0.356559 -0.152811,-0.363836 -0.283792,-0.756779 -0.123704,-0.392943 -0.123704,-0.756779 0,-0.07277 0.01455,-0.130981 0.01455,-0.05821 0.03638,-0.116427 0.02183,-0.06549 0.05094,-0.130981 0.02911,-0.06549 0.05821,-0.167365 0,-0.109151 0.02911,-0.203748 0.03638,-0.0946 0.0946,-0.203748 0,-0.02183 0.06549,-0.138258 0.06549,-0.116427 0.160088,-0.247408 0.0946,-0.130981 0.196472,-0.232855 0.10915,-0.109151 0.181918,-0.109151 l 0.203748,-0.08004 q 0.0946,0 0.167364,-0.0073 0.08004,-0.0073 0.160088,-0.05094 0.08004,-0.03638 0.152811,-0.05821 0.07277,-0.02911 0.145535,-0.02911 h 0.349282 z m -0.625798,0.567584 q -0.123704,0 -0.247408,0.167364 -0.123705,0.167365 -0.225579,0.385667 -0.0946,0.211024 -0.160088,0.407496 -0.05821,0.196471 -0.05821,0.254685 v 0.123704 0.44388 q 0,0.101874 0.123704,0.312899 0.130981,0.203748 0.320176,0.414773 0.189194,0.203748 0.400219,0.363836 0.218302,0.160088 0.392943,0.160088 h 0.138258 q 0.152811,0 0.327452,-0.08004 0.181918,-0.08004 0.327453,-0.218301 0.152811,-0.138258 0.254685,-0.320176 0.101874,-0.189195 0.101874,-0.392943 v -0.203748 -0.480264 q 0,-0.152811 -0.04366,-0.240131 -0.03638,-0.0946 -0.101874,-0.174642 -0.06549,-0.08732 -0.152811,-0.189194 -0.08732,-0.109151 -0.181918,-0.291069 -0.05821,-0.04366 -0.130981,-0.109151 -0.06549,-0.06549 -0.145534,-0.123704 -0.07277,-0.05821 -0.160088,-0.101874 -0.08004,-0.04366 -0.152811,-0.04366 h -0.138258 q -0.05821,0 -0.138257,-0.0073 -0.08004,-0.0073 -0.160088,-0.02183 -0.08732,-0.01455 -0.189195,-0.03638 z m 5.624909,-0.662182 q 0.145535,0 0.269239,0.116428 0.130981,0.109151 0.232855,0.203748 0.05821,0.174641 0.181918,0.261962 0.04366,0.05094 0.08732,0.109151 0.04366,0.05821 0.05821,0.138257 0.02911,0 0.05821,0.06549 0.02911,0.05821 0.05094,0.145534 0.02183,0.08004 0.03638,0.152811 0.01455,0.07277 0.01455,0.0946 0,0.101874 -0.03638,0.225578 -0.03638,0.123704 -0.0946,0.247409 -0.05094,0.123704 -0.116427,0.240131 -0.05821,0.109151 -0.101874,0.181918 -0.02911,0.05094 -0.08004,0.08004 -0.04366,0.02911 -0.08732,0.05821 -0.04366,0.02183 -0.08004,0.06549 -0.02911,0.04366 -0.02911,0.116428 0,0.08004 0.04366,0.211025 0.04366,0.130981 0.109151,0.261962 0.06549,0.130981 0.130981,0.232855 0.07277,0.101874 0.116427,0.123704 0.08732,0.05821 0.152811,0.145534 0.07277,0.08732 0.145535,0.174642 0.08004,0.08732 0.167364,0.160088 0.08732,0.06549 0.203748,0.08732 0.04366,0.01455 0.138258,0.05821 0.0946,0.03638 0.145534,0.08732 0.04366,0.04366 0.04366,0.06549 0.0073,0.01455 -0.0073,0.07277 -0.02183,0.08004 -0.109151,0.116428 -0.08004,0.03638 -0.181918,0.04366 -0.0946,0.01455 -0.174641,0.0073 -0.08004,0 -0.0946,-0.0073 -0.05094,-0.04366 -0.138258,-0.04366 -0.08004,0 -0.130981,-0.01455 -0.196472,-0.116427 -0.276515,-0.189194 -0.08004,-0.07277 -0.189195,-0.138258 -0.04366,-0.02183 -0.109151,-0.07277 -0.06549,-0.05821 -0.145534,-0.130981 -0.07277,-0.07277 -0.152812,-0.152811 -0.07277,-0.08004 -0.138257,-0.145535 -0.08732,-0.109151 -0.152811,-0.211025 -0.05821,-0.101874 -0.109151,-0.189194 -0.04366,-0.0946 -0.08732,-0.167365 -0.04366,-0.08004 -0.0946,-0.123704 -0.101874,-0.05821 -0.152811,-0.109151 -0.04366,-0.05094 -0.145535,-0.05094 -0.08732,0 -0.138257,0.05821 -0.04366,0.05094 -0.07277,0.123704 -0.02183,0.07277 -0.02911,0.152811 -0.0073,0.08004 -0.0073,0.130981 l 0.08004,0.342006 v 0.145534 q 0,0.174642 0.109151,0.261962 0.116427,0.08732 0.247408,0.145535 0.130981,0.05821 0.240132,0.116427 0.116427,0.05094 0.116427,0.160088 0,0.05094 -0.05094,0.08732 -0.05094,0.03638 -0.0946,0.03638 h -0.261962 l -0.407496,-0.05821 h -0.160088 -0.342006 -0.123704 -0.283792 q -0.02183,0 -0.145535,-0.01455 -0.116427,-0.0073 -0.254685,-0.03638 -0.130981,-0.02183 -0.240132,-0.07277 -0.10915,-0.04366 -0.10915,-0.123704 0,-0.02183 0.02183,-0.04366 0.02183,-0.02183 0.05094,-0.04366 0.02911,-0.02911 0.07277,-0.05094 0.02183,0 0.06549,0.0073 0.04366,0.0073 0.08732,0.01455 0.05094,0.0073 0.109151,0.01455 h 0.145534 q 0.145535,0 0.240132,-0.08004 0.101874,-0.08732 0.101874,-0.181918 v -0.764056 -1.178828 l 0.05821,-0.523924 q -0.02183,-0.07277 -0.02911,-0.174641 -0.0073,-0.101874 -0.02911,-0.189195 -0.01455,-0.0946 -0.06549,-0.167365 -0.04366,-0.07277 -0.138258,-0.0946 h -0.283792 q -0.08004,0 -0.160088,-0.01455 -0.08004,-0.01455 -0.152811,-0.05094 -0.06549,-0.03638 -0.109151,-0.101875 -0.04366,-0.06549 -0.04366,-0.174641 0,-0.02183 0.02911,-0.04366 0.03638,-0.02911 0.07277,-0.05094 0.04366,-0.02911 0.101874,-0.05094 l 1.229766,-0.05821 h 0.749502 q 0.02183,0 0.08004,-0.0073 0.05821,-0.0073 0.116427,-0.02183 0.07277,-0.01455 0.152811,-0.02911 z m -0.691288,0.742226 q -0.02911,0.0073 -0.06549,0.01455 -0.03638,0.01455 -0.08004,0.02911 -0.04366,0.0073 -0.0946,0.04366 -0.05094,0 -0.101874,0.05094 -0.04366,0.04366 -0.04366,0.145535 v 0.123704 0.283792 0.123704 q 0,0.05821 -0.02911,0.109151 -0.02911,0.04366 -0.02911,0.08732 l 0.02911,0.01455 q 0.01455,0.01455 0.02183,0.02911 0.0073,0.0073 0.0073,0.04366 -0.02183,0.07277 0.01455,0.138258 0.03638,0.05821 0.101874,0.109151 0.06549,0.04366 0.138258,0.07277 0.08004,0.02183 0.130981,0.02183 0.06549,-0.02911 0.130981,-0.05821 0.05821,-0.02183 0.101874,-0.04366 0.05094,-0.02183 0.08732,-0.02183 l 0.145534,0.05821 q 0.0946,0 0.160088,-0.07277 0.06549,-0.08004 0.101874,-0.174642 0.04366,-0.101874 0.06549,-0.189194 0.02183,-0.0946 0.03638,-0.123705 l -0.04366,-0.203748 q 0,-0.05094 -0.01455,-0.0946 -0.0073,-0.05094 -0.06549,-0.109151 0,-0.04366 -0.01455,-0.130981 -0.0073,-0.08732 -0.06549,-0.130981 -0.02183,0 -0.109151,-0.02183 -0.08004,-0.02183 -0.181918,-0.05094 -0.0946,-0.02911 -0.196471,-0.05094 -0.0946,-0.02183 -0.138258,-0.02183 z m 5.086429,-0.662182 h 0.138258 0.203748 q 0.152811,0 0.254686,0.130981 0.10915,0.123704 0.167364,0.283792 0.06549,0.160088 0.0946,0.305622 0.02911,0.138258 0.02911,0.167365 0,0.05821 0.0073,0.0946 0.0073,0.02911 0.02183,0.05821 0.01455,0.02911 0.02911,0.05094 0,0.02183 -0.0073,0.05094 -0.01455,0.05094 -0.05094,0.08732 0,0.05094 -0.0073,0.101874 -0.0073,0.04366 -0.05094,0.04366 -0.03638,0 -0.116428,-0.08004 -0.08004,-0.08732 -0.167365,-0.189194 -0.101874,-0.123705 -0.225578,-0.276516 -0.08004,-0.04366 -0.218301,-0.0946 -0.130981,-0.05094 -0.254686,-0.0946 -0.152811,-0.05094 -0.312899,-0.0946 -0.232855,0 -0.46571,0.08732 -0.225578,0.08732 -0.414773,0.254685 -0.181918,0.167365 -0.312899,0.407496 -0.123704,0.240132 -0.145534,0.545754 0,0.145535 -0.02911,0.232855 -0.02911,0.08732 -0.02911,0.189195 0,0.101874 0.0073,0.174641 0.0073,0.06549 0.05094,0.167365 0.05094,0.152811 0.145534,0.327452 0.0946,0.174642 0.218302,0.327453 0.130981,0.145534 0.291069,0.247408 0.160088,0.0946 0.342006,0.0946 l 0.261961,-0.08732 q 0.101875,0 0.218302,-0.07277 0.123704,-0.08004 0.123704,-0.225579 v -0.145534 q -0.01455,-0.08732 -0.03638,-0.174641 -0.02183,-0.0946 -0.06549,-0.189195 -0.05821,-0.101874 -0.145534,-0.203748 -0.08004,-0.109151 -0.138258,-0.138258 -0.101874,-0.03638 -0.101874,-0.101874 0,-0.02911 0.02911,-0.04366 0.03638,-0.02183 0.08004,-0.02911 0.05094,-0.0073 0.116427,-0.0073 h 0.320176 0.349283 0.138257 q 0.05094,0 0.08004,-0.0073 0.03638,-0.0073 0.07277,-0.01455 0.03638,-0.01455 0.0946,-0.02183 0.05821,-0.01455 0.160088,-0.01455 0.05094,0.01455 0.0946,0.03638 0.03638,0.01455 0.06549,0.04366 0.03638,0.02911 0.03638,0.05821 0,0.04366 -0.03638,0.145535 -0.03638,0.0946 -0.08004,0.0946 h -0.08004 q -0.152811,0 -0.254686,0.116427 -0.0946,0.116428 -0.0946,0.211025 v 0.203748 0.218302 q 0,0.0946 -0.02911,0.145534 -0.02911,0.05094 -0.02911,0.160088 0.01455,0.05821 0.02183,0.116428 0.0073,0.05094 0,0.116427 0,0.05821 -0.02183,0.109151 0,0.05094 -0.03638,0.08732 -0.02911,0.02911 -0.06549,0.05821 -0.04366,0.02911 -0.101874,0.05821 l -0.48754,0.08004 h -0.116428 q -0.02911,0 -0.0946,-0.01455 -0.05821,-0.0073 -0.130981,-0.02911 -0.06549,-0.01455 -0.145534,-0.02911 -0.07277,-0.0073 -0.138258,-0.0073 h -0.196471 q -0.03638,0 -0.101875,-0.01455 -0.06549,-0.01455 -0.123704,-0.04366 -0.109151,-0.03638 -0.218301,-0.05094 -0.109151,-0.01455 -0.167365,-0.01455 -0.02183,-0.02911 -0.07277,-0.04366 -0.04366,-0.02183 -0.101874,-0.04366 -0.05094,-0.02183 -0.101874,-0.05094 -0.04366,-0.02911 -0.06549,-0.08004 -0.05821,-0.02183 -0.152811,-0.145534 -0.08732,-0.130981 -0.174641,-0.291069 -0.08732,-0.160088 -0.152811,-0.320175 -0.06549,-0.167365 -0.06549,-0.276516 v -0.123704 q 0,-0.05821 -0.04366,-0.138258 -0.03638,-0.08732 -0.03638,-0.145534 v -0.283792 -0.196472 q 0.04366,-0.116427 0.08004,-0.218301 0.02911,-0.08732 0.05094,-0.174642 0.02911,-0.0946 0.02911,-0.152811 l 0.05821,-0.123704 q 0,-0.160088 0.123704,-0.342006 0.123704,-0.181918 0.291069,-0.342006 0.174641,-0.160087 0.356559,-0.261961 0.189195,-0.109151 0.320176,-0.109151 0.05821,-0.0073 0.109151,-0.01455 0.04366,-0.0073 0.08732,-0.01455 0.04366,-0.0073 0.07277,-0.0073 h 0.08004 q 0.109151,0 0.152812,-0.0073 0.05094,-0.01455 0.0946,-0.02911 0.04366,-0.02183 0.101874,-0.02911 0.06549,-0.01455 0.196471,-0.01455 h 0.283793 z m 2.401316,1.666369 q 0.05821,0 0.116428,-0.05094 0.05821,-0.05821 0.145534,-0.02911 0.05094,-0.05094 0.101874,-0.08732 0.05821,-0.03638 0.181918,-0.03638 v 0.123704 q 0,0.02183 -0.01455,0.08732 -0.01455,0.05821 -0.04366,0.138257 -0.02911,0.07277 -0.07277,0.152812 -0.03638,0.07277 -0.08732,0.123704 -0.05094,0 -0.109151,0.01455 -0.05094,0.0073 -0.160088,0.0073 -0.04366,0 -0.116427,0.02911 -0.06549,0.02183 -0.123705,0.07277 -0.04366,0.04366 -0.145534,0.05821 -0.0946,0.01455 -0.196472,0.05821 -0.05821,0 -0.116427,0.05094 -0.05821,0.05094 -0.109151,0.05094 -0.04366,0.05094 -0.152811,0.05821 -0.101874,0.0073 -0.211025,0.0073 h -0.05821 q 0,-0.05094 0.0073,-0.174641 0.0073,-0.123704 0.05094,-0.174641 0.167365,-0.08732 0.305622,-0.181918 0.138258,-0.101874 0.305623,-0.160088 0.04366,-0.04366 0.130981,-0.04366 0.08732,-0.0073 0.189194,-0.05821 z m 2.605069,-1.586325 q 0.04366,0 0.08004,0.0073 0.04366,0.0073 0.0946,0.01455 0.05821,0 0.130981,0.0073 0.08004,0.0073 0.203748,0.0073 l 0.240132,-0.05821 q 0.05821,-0.01455 0.10915,-0.02911 0.04366,-0.01455 0.08732,-0.02183 0.04366,-0.0073 0.06549,-0.0073 0.05094,0 0.123704,0.03638 0.08004,0.03638 0.138257,0.08004 0.05094,0.0946 0.06549,0.225578 0.01455,0.130981 0.05821,0.225578 0.02183,0.02183 0.05094,0.08732 0.02911,0.05821 0.05821,0.116428 0.02911,0.08004 0.07277,0.160087 0,0.138258 -0.181918,0.138258 -0.04366,0 -0.130981,-0.06549 -0.08732,-0.07277 -0.225579,-0.152812 -0.138257,-0.08732 -0.327452,-0.152811 -0.189195,-0.07277 -0.451157,-0.07277 l -0.138257,0.03638 q -0.04366,0.06549 -0.08732,0.109151 -0.03638,0.04366 -0.03638,0.07277 v 0.06549 q -0.01455,0.05821 -0.02911,0.109151 -0.01455,0.04366 -0.02183,0.08732 -0.0073,0.04366 -0.0073,0.06549 v 0.523924 q 0,0.109151 0.04366,0.211025 0.04366,0.0946 0.138258,0.0946 0.02183,0 0.07277,-0.0073 0.05094,-0.0073 0.109151,-0.02183 0.06549,-0.01455 0.138257,-0.02911 h 0.145535 q 0.05821,0 0.101874,-0.02911 0.05094,-0.02911 0.0946,-0.05821 0.04366,-0.03638 0.08004,-0.06549 0.04366,-0.02911 0.08732,-0.02911 0.02183,0 0.05094,0.02911 0.02911,0.02911 0.05821,0.06549 l 0.07277,0.08732 v 0.480264 q 0,0.203748 -0.181918,0.203748 -0.08004,0 -0.138258,-0.02911 -0.05821,-0.03638 -0.101874,-0.07277 -0.08004,-0.02911 -0.138258,-0.06549 -0.05094,-0.03638 -0.130981,-0.03638 h -0.116427 -0.145535 q -0.181918,0 -0.232855,0.06549 -0.05094,0.06549 -0.05094,0.261962 v 0.181918 q 0.02183,0.101874 0.02911,0.203749 0.0073,0.101874 0.02183,0.189194 0.02183,0.08732 0.07277,0.152811 0.05094,0.05821 0.160087,0.08004 h 0.407497 q 0.101874,0 0.218301,-0.03638 0.123705,-0.04366 0.247409,-0.109151 0.123704,-0.04366 0.225578,-0.08004 0.109151,-0.03638 0.196472,-0.03638 0.02911,0.02183 0.05821,0.05094 0.02183,0.02183 0.04366,0.04366 0.02183,0.02183 0.02183,0.04366 0,0.05094 -0.03638,0.0946 -0.03638,0.04366 -0.08732,0.08732 -0.101874,0.0946 -0.145535,0.196471 -0.04366,0.0946 -0.08732,0.181918 -0.03638,0.08004 -0.0946,0.130981 -0.05821,0.05821 -0.174641,0.05821 -0.04366,0 -0.08004,-0.01455 -0.03638,-0.0073 -0.08004,-0.02911 -0.03638,-0.01455 -0.0946,-0.02911 -0.05094,-0.0073 -0.130981,-0.0073 l -0.705842,0.02183 -0.247409,0.05821 h -0.385666 -0.218301 l -0.145535,0.04366 -0.218301,0.01455 q -0.03638,0 -0.08004,-0.02911 -0.04366,-0.02911 -0.08004,-0.07277 -0.03638,-0.03638 -0.06549,-0.07277 -0.02183,-0.04366 -0.02183,-0.06549 0,-0.181918 0.269239,-0.181918 0.05821,-0.02183 0.116427,-0.05094 0.109151,-0.05094 0.181918,-0.07277 0.152812,-0.02911 0.203749,-0.0946 0.05821,-0.06549 0.05821,-0.305623 0,-0.03638 0.02183,-0.07277 0.02911,-0.04366 -0.02183,-0.08732 0,-0.03638 -0.0073,-0.07277 -0.0073,-0.04366 -0.02183,-0.08004 -0.01455,-0.04366 -0.02911,-0.0946 v -0.138258 -0.261962 -0.181918 l 0.05821,-0.50937 v -0.123704 q 0,-0.04366 0.0073,-0.05821 0.01455,-0.01455 0.01455,-0.05821 v -0.385666 -0.203748 -0.218302 q 0,-0.06549 -0.07277,-0.101874 -0.07277,-0.04366 -0.109151,-0.04366 h -0.203748 q -0.138257,0 -0.203748,-0.116428 -0.05821,-0.116427 -0.05821,-0.269238 0,-0.04366 0.03638,-0.08004 0.04366,-0.03638 0.08732,-0.03638 h 0.240131 0.145535 q 0.04366,0 0.130981,-0.0073 0.0946,-0.01455 0.232855,-0.01455 z m 5.442987,-0.225578 q 0.02911,0 0.08732,0.01455 0.06549,0.0073 0.123705,0.02183 0.07277,0.01455 0.152811,0.02911 0.145534,0.05821 0.261962,0.101874 0.116427,0.03638 0.283792,0.03638 0.152811,0 0.203748,0.05821 0.05821,0.05821 0.05821,0.225578 0,0.08004 -0.05821,0.145534 -0.05821,0.05821 -0.138258,0.101875 -0.08004,0.04366 -0.181918,0.07277 -0.0946,0.02183 -0.167364,0.02183 -0.181918,0.02183 -0.342006,0.152811 -0.160088,0.123704 -0.305622,0.298346 -0.145535,0.174641 -0.291069,0.363836 -0.145535,0.189194 -0.298346,0.342005 v 0.196472 q 0,0.05821 0.02911,0.123704 0.03638,0.05821 0.08004,0.130981 0.05094,0.07277 0.0946,0.152811 0.05094,0.07277 0.08004,0.145535 0.04366,0.101874 0.138258,0.240131 0.0946,0.138258 0.189195,0.240132 0.07277,0.08004 0.130981,0.196471 0.06549,0.109151 0.130981,0.218302 0.07277,0.101874 0.167364,0.167365 0.101874,0.05821 0.254685,0.02911 h 0.283793 q 0.130981,0.02911 0.211024,0.0946 0.08004,0.05821 0.123705,0.138258 0.04366,0.07277 0.05821,0.160087 0.01455,0.08004 0.01455,0.152812 v 0.160087 q 0,0.04366 -0.08004,0.08004 -0.08004,0.04366 -0.123704,0.04366 -0.05821,0 -0.08732,-0.02183 -0.02911,-0.02183 -0.06549,-0.05094 -0.02911,-0.02911 -0.07277,-0.06549 -0.04366,-0.03638 -0.116427,-0.06549 h -0.269239 q -0.08004,0.02183 -0.152811,0.04366 -0.130981,0.03638 -0.211025,0.03638 l -0.261962,-0.08004 h -0.138257 q -0.05094,0 -0.138258,-0.04366 -0.08004,-0.03638 -0.123704,-0.03638 -0.05821,-0.01455 -0.130981,-0.0073 -0.07277,0.0073 -0.138258,0.0073 -0.06549,0 -0.116427,-0.02183 -0.04366,-0.02183 -0.04366,-0.101874 0,-0.138257 0.05821,-0.181918 0.06549,-0.04366 0.145534,-0.05821 0.05821,-0.03638 0.109151,-0.08004 0.05094,-0.04366 0.05094,-0.167365 0,-0.05094 -0.02911,-0.08732 -0.02183,-0.04366 -0.05821,-0.08732 -0.02911,-0.04366 -0.06549,-0.0946 -0.02911,-0.05821 -0.04366,-0.130981 -0.03638,-0.05094 -0.08004,-0.130981 -0.03638,-0.08732 -0.0946,-0.167364 -0.05094,-0.08004 -0.116428,-0.130981 -0.06549,-0.05821 -0.138258,-0.05821 -0.04366,0 -0.101874,0.05094 -0.05094,0.04366 -0.101874,0.152811 -0.07277,0.109151 -0.167364,0.203749 -0.0946,0.08732 -0.181918,0.189194 -0.08004,0.0946 -0.138258,0.203748 -0.05821,0.101874 -0.05821,0.232855 0,0.08004 0.04366,0.145535 0.04366,0.05821 0.0946,0.116427 0.05821,0.05094 0.101874,0.08732 0.04366,0.04366 0.04366,0.07277 0,0.03638 -0.05094,0.03638 -0.05094,0.0073 -0.109151,0.0073 h -1.35347 q -0.116427,-0.02183 -0.203748,-0.05094 -0.08004,-0.02911 -0.145534,-0.08004 -0.05821,-0.05094 -0.05821,-0.130981 0,-0.05094 0.05094,-0.101874 0.05821,-0.05821 0.123704,-0.0946 0.07277,-0.03638 0.138258,-0.05821 0.07277,-0.02911 0.0946,-0.02911 h 0.342006 q 0.0946,0 0.181918,-0.07277 0.0946,-0.08004 0.174642,-0.181918 0.08732,-0.10915 0.167364,-0.218301 0.08004,-0.116428 0.160088,-0.196472 0.0946,-0.167364 0.203748,-0.276515 0.109151,-0.116428 0.203748,-0.269239 0.05821,-0.05821 0.07277,-0.109151 0.02183,-0.05821 0.07277,-0.0946 v -0.160088 q 0,-0.04366 -0.04366,-0.123704 -0.04366,-0.08004 -0.101874,-0.160088 -0.05821,-0.08732 -0.116427,-0.152811 -0.05821,-0.06549 -0.08732,-0.08732 -0.101874,-0.10915 -0.138258,-0.203748 -0.03638,-0.101874 -0.145534,-0.167364 -0.05094,-0.04366 -0.0946,-0.109151 -0.03638,-0.07277 -0.08004,-0.138258 -0.04366,-0.07277 -0.101874,-0.130981 -0.05094,-0.05821 -0.123705,-0.08004 -0.08004,-0.02183 -0.160087,-0.02911 -0.07277,-0.0073 -0.160088,-0.01455 -0.08004,-0.0073 -0.174642,-0.02183 -0.08732,-0.02183 -0.196471,-0.08004 -0.101874,-0.04366 -0.181918,-0.138258 -0.08004,-0.0946 -0.08004,-0.181918 0,-0.123704 0.07277,-0.174641 0.07277,-0.05094 0.130981,-0.05094 h 0.138258 q 0.05094,0.04366 0.130981,0.05094 0.08732,0.0073 0.138258,0.0073 h 0.822269 q 0.02183,0 0.07277,-0.0073 0.05821,-0.0073 0.116428,-0.02183 0.06549,-0.01455 0.138257,-0.02911 h 0.363836 q 0.04366,0 0.160088,-0.02911 0.116428,-0.02911 0.160088,-0.02911 l 0.283792,0.05821 h 0.123704 q 0.02911,-0.02183 0.123705,-0.05094 0.0946,-0.03638 0.203748,-0.06549 0.109151,-0.03638 0.211025,-0.05821 0.10915,-0.02911 0.152811,-0.02911 z m -0.814993,0.342006 q -0.116427,0.06549 -0.218301,0.123704 -0.08732,0.05821 -0.181918,0.116427 -0.08732,0.05094 -0.145535,0.109151 -0.101874,0.04366 -0.08004,0.101874 0.02183,0.05094 0.02183,0.101874 0,0.02183 0.03638,0.152811 0.03638,0.130981 0.0946,0.283793 0.06549,0.152811 0.145535,0.276515 0.08732,0.116427 0.189194,0.116427 0.05094,0 0.160088,-0.130981 0.116428,-0.13098 0.232855,-0.298345 0.116428,-0.174641 0.203749,-0.327452 0.08732,-0.160088 0.08732,-0.218302 l -0.05821,-0.05821 q -0.02911,-0.02183 -0.101874,-0.08004 -0.06549,-0.05821 -0.145534,-0.116427 -0.07277,-0.06549 -0.145534,-0.109151 -0.06549,-0.04366 -0.0946,-0.04366 z"
       id="text1"
       style="font-size:7.27672px;font-family:Trattatello;-inkscape-font-specification:'Trattatello, Normal';white-space:pre"
       inkscape:label="title"
       transform="matrix(0.46164508,0,0,1.1455267,-6.9459597,-64.672279)"
       aria-label="ORG-EX" />
    <rect
       style="fill:url(#linearGradient9);stroke:#000000;stroke-width:0.829471;stroke-dasharray:none;stroke-opacity:1"
       id="rect3-8"
       width="45.170521"
       height="13.881503"
       x="2.8147426"
       y="16.713373"
       inkscape:label="brect"
       ry="3.1759207" />
    <rect
       style="fill:url(#linearGradient11);stroke:#000000;stroke-width:0.829471;stroke-dasharray:none;stroke-opacity:1"
       id="rect3-8-9"
       width="45.170521"
       height="13.881503"
       x="2.8147364"
       y="86.120903"
       inkscape:label="drect"
       ry="3.1759207" />
    <rect
       style="fill:url(#linearGradient12);stroke:#000000;stroke-width:0.829471;stroke-dasharray:none;stroke-opacity:1"
       id="rect3-8-6"
       width="45.170521"
       height="13.881503"
       x="2.8147354"
       y="72.239388"
       inkscape:label="erect"
       ry="3.1759207" />
    <rect
       style="fill:url(#linearGradient13);stroke:#000000;stroke-width:0.829471;stroke-dasharray:none;stroke-opacity:1"
       id="rect3-8-0"
       width="45.170521"
       height="13.881503"
       x="2.8147364"
       y="100.0024"
       inkscape:label="crect"
       ry="3.1759207" />
    <rect
       style="fill:#1e1e1e;stroke:#000000;stroke-width:0.79375;stroke-dasharray:none;stroke-opacity:1;fill-opacity:1"
       id="rect3-8-0-2"
       width="27.007347"
       height="9.4702435"
       x="2.7143431"
       y="94.658287"
       inkscape:label="csrect"
       ry="2.1666777" />
    <rect
       style="fill:#1e1e1e;fill-opacity:1;stroke:#000000;stroke-width:0.79375;stroke-dasharray:none;stroke-opacity:1"
       id="rect3-8-0-2-0"
       width="27.007347"
       height="9.4702435"
       x="2.8147364"
       y="81.38578"
       inkscape:label="csrect"
       ry="2.1666777" />
    <rect
       style="fill:url(#linearGradient14);stroke:#000000;stroke-width:0.829471;stroke-dasharray:none;stroke-opacity:1"
       id="rect3-8-4"
       width="45.170521"
       height="13.881503"
       x="2.8147364"
       y="58.357891"
       inkscape:label="frect"
       ry="3.1759207" />
    <rect
       style="fill:url(#linearGradient15);stroke:#000000;stroke-width:0.829471;stroke-dasharray:none;stroke-opacity:1"
       id="rect3-8-09"
       width="45.170521"
       height="13.881503"
       x="2.8147364"
       y="44.476387"
       inkscape:label="grect"
       ry="3.1759207" />
    <rect
       style="fill:url(#linearGradient16);stroke:#000000;stroke-width:0.829471;stroke-dasharray:none;stroke-opacity:1"
       id="rect3-8-2"
       width="45.170521"
       height="13.881503"
       x="2.8147402"
       y="30.594877"
       inkscape:label="arect"
       ry="3.1759207" />
    <rect
       style="fill:#1e1e1e;fill-opacity:1;stroke:#000000;stroke-width:0.79375;stroke-dasharray:none;stroke-opacity:1"
       id="rect3-8-0-2-0-3"
       width="27.007347"
       height="9.4702435"
       x="2.8147364"
       y="53.622768"
       inkscape:label="csrect"
       ry="2.1666777" />
    <rect
       style="fill:#1e1e1e;fill-opacity:1;stroke:#000000;stroke-width:0.79375;stroke-dasharray:none;stroke-opacity:1"
       id="rect3-8-0-2-0-3-1"
       width="27.007347"
       height="9.4702435"
       x="2.8147402"
       y="39.741257"
       inkscape:label="csrect"
       ry="2.1666777" />
    <rect
       style="fill:#1e1e1e;fill-opacity:1;stroke:#000000;stroke-width:0.79375;stroke-dasharray:none;stroke-opacity:1"
       id="rect3-8-0-2-0-3-0"
       width="27.007347"
       height="9.4702435"
       x="2.8147426"
       y="25.859753"
       inkscape:label="csrect"
       ry="2.1666777" />
    <rect
       style="fill:#232323;stroke:#ebebeb;stroke-width:0"
       id="rect3"
       width="9.5939999"
       height="9.5939999"
       x="29.069"
       y="115.203"
       ry="2.7564285" />
  </g>
  <g
     inkscape:groupmode="layer"
     id="layer2"
     inkscape:label="components" />
</svg>
