<?xml version="1.0" encoding="UTF-8" standalone="no"?>
<!-- Created with Inkscape (http://www.inkscape.org/) -->

<svg
   width="10.16mm"
   height="128.5mm"
   viewBox="0 0 10.16 128.5"
   version="1.1"
   id="svg1"
   inkscape:version="1.4 (e7c3feb1, 2024-10-09)"
   sodipodi:docname="pushsync.svg"
   xmlns:inkscape="http://www.inkscape.org/namespaces/inkscape"
   xmlns:sodipodi="http://sodipodi.sourceforge.net/DTD/sodipodi-0.dtd"
   xmlns="http://www.w3.org/2000/svg"
   xmlns:svg="http://www.w3.org/2000/svg">
  <sodipodi:namedview
     id="namedview1"
     pagecolor="#ffffff"
     bordercolor="#000000"
     borderopacity="0.25"
     inkscape:showpageshadow="2"
     inkscape:pageopacity="0.0"
     inkscape:pagecheckerboard="0"
     inkscape:deskcolor="#d1d1d1"
     inkscape:document-units="mm"
     inkscape:zoom="3.0589383"
     inkscape:cx="1.6345541"
     inkscape:cy="24.354855"
     inkscape:window-width="1104"
     inkscape:window-height="760"
     inkscape:window-x="0"
     inkscape:window-y="25"
     inkscape:window-maximized="0"
     inkscape:current-layer="layer1" />
  <defs
     id="defs1" />
  <g
     inkscape:label="Layer 1"
     inkscape:groupmode="layer"
     id="layer1">
    <rect
       style="fill:#ebebeb;stroke:#ebebeb;stroke-width:0.79375"
       id="rect1"
       width="10.159999"
       height="128.5"
       x="0"
       y="0"
       ry="3.0582201e-18"
       inkscape:label="back" />
    <rect
       style="fill:#a91c03;stroke:#ebebeb;stroke-width:0;fill-opacity:1"
       id="rect2"
       width="2"
       height="80.5"
       x="4.0799999"
       y="28.5"
       ry="0" />
    <text
       xml:space="preserve"
       style="font-weight:100;font-size:7.05556px;font-family:'GB18030 Bitmap';-inkscape-font-specification:'GB18030 Bitmap, Thin';text-align:start;writing-mode:lr-tb;direction:ltr;text-anchor:start;display:none;fill:#a91c03;stroke:#ebebeb;stroke-width:0"
       x="0.86495155"
       y="8.5630198"
       id="text1"><tspan
         sodipodi:role="line"
         id="tspan1"
         style="font-style:normal;font-variant:normal;font-weight:normal;font-stretch:normal;font-size:7.05556px;font-family:'Avenir Next';-inkscape-font-specification:'Avenir Next, Normal';font-variant-ligatures:normal;font-variant-caps:normal;font-variant-numeric:normal;font-variant-east-asian:normal;stroke-width:0"
         x="0.86495155"
         y="8.5630198">PS</tspan></text>
    <path
       style="font-size:7.05556px;font-family:'Avenir Next';-inkscape-font-specification:'Avenir Next, Normal';fill:#a91c03;stroke:#ebebeb;stroke-width:0"
       d="m 1.428,6.5679999 h 1.411112 q 0.3810003,0 0.6914449,0.084667 0.3104447,0.077611 0.529167,0.2469446 0.2257779,0.1622779 0.3457225,0.4162781 0.1199445,0.2469446 0.1199445,0.5856115 0,0.3386669 -0.1270001,0.5926669 Q 4.2784463,8.741112 4.0526684,8.910446 3.833946,9.072724 3.5164458,9.15739 3.2060011,9.24206 2.8250009,9.24206 H 1.9360003 v 2.321279 H 1.428 Z M 1.9360003,8.811668 h 0.8607784 q 0.5997226,0 0.9101672,-0.232834 0.3104447,-0.232833 0.3104447,-0.6773332 0,-0.465667 -0.3245558,-0.6773338 Q 3.3753346,7.0054446 2.7967787,7.0054446 H 1.9360003 Z M 7.9402812,7.3723337 Q 7.7780034,7.1465558 7.5240032,7.0125002 7.270003,6.871389 6.9101695,6.871389 q -0.1834446,0 -0.3739447,0.056445 Q 6.3457247,6.984278 6.1905023,7.104223 6.03528,7.2171119 5.9365022,7.3935009 q -0.091722,0.176389 -0.091722,0.4162781 0,0.239889 0.091722,0.395111 0.091722,0.155223 0.239889,0.268112 0.1552223,0.105833 0.3457225,0.176389 0.1975556,0.07056 0.4092224,0.141111 0.2610558,0.08467 0.5221115,0.183444 0.2681113,0.09878 0.4797781,0.261056 0.2116668,0.155222 0.3457224,0.402167 0.1340557,0.239889 0.1340557,0.613834 0,0.373944 -0.1481668,0.649111 -0.1411112,0.268111 -0.3739447,0.4445 -0.2257779,0.176389 -0.5221114,0.261056 -0.289278,0.08467 -0.5856115,0.08467 -0.2257779,0 -0.4515559,-0.04939 Q 6.1058356,11.598614 5.9012244,11.506892 5.6966131,11.41517 5.5202241,11.274058 5.3438351,11.132947 5.2097795,10.949503 l 0.4374447,-0.324556 q 0.1622779,0.268111 0.4515559,0.451556 0.2963335,0.176389 0.6914448,0.176389 0.1905002,0 0.3880558,-0.05644 0.1975557,-0.0635 0.3527781,-0.183445 0.1622778,-0.127 0.2610557,-0.303389 0.1058334,-0.183445 0.1058334,-0.423334 0,-0.261056 -0.1058334,-0.430389 Q 7.6933366,9.679502 7.5240032,9.566613 7.3546698,9.446668 7.1359474,9.369057 6.917225,9.291446 6.677336,9.213835 6.4303914,9.136224 6.1905023,9.037446 5.9506133,8.938668 5.7601132,8.783446 5.569613,8.621168 5.4496685,8.388334 5.3367796,8.155501 5.3367796,7.816834 q 0,-0.3598335 0.1411112,-0.6208893 Q 5.6260575,6.934889 5.858891,6.7655556 6.0917245,6.5962221 6.3739469,6.518611 6.6561693,6.441 6.9313361,6.441 q 0.5080004,0 0.8678339,0.1834446 0.3598336,0.176389 0.5432782,0.4233336 z"
       id="text2"
       aria-label="PS" />
  </g>
  <g
     inkscape:groupmode="layer"
     id="layer2"
     inkscape:label="components" />
</svg>
