<?xml version="1.0" encoding="UTF-8" standalone="no"?>
<!-- Created with Inkscape (http://www.inkscape.org/) -->

<svg
   width="60.959999mm"
   height="128.5mm"
   viewBox="0 0 60.959999 128.5"
   version="1.1"
   id="svg1"
   inkscape:version="1.4 (e7c3feb1, 2024-10-09)"
   sodipodi:docname="retours.svg"
   xmlns:inkscape="http://www.inkscape.org/namespaces/inkscape"
   xmlns:sodipodi="http://sodipodi.sourceforge.net/DTD/sodipodi-0.dtd"
   xmlns="http://www.w3.org/2000/svg"
   xmlns:svg="http://www.w3.org/2000/svg">
  <sodipodi:namedview
     id="namedview1"
     pagecolor="#ffffff"
     bordercolor="#000000"
     borderopacity="0.25"
     inkscape:showpageshadow="2"
     inkscape:pageopacity="0.0"
     inkscape:pagecheckerboard="0"
     inkscape:deskcolor="#d1d1d1"
     inkscape:document-units="mm"
     inkscape:zoom="0.6945576"
     inkscape:cx="7.198827"
     inkscape:cy="159.09408"
     inkscape:window-width="1104"
     inkscape:window-height="760"
     inkscape:window-x="0"
     inkscape:window-y="25"
     inkscape:window-maximized="0"
     inkscape:current-layer="layer1" />
  <defs
     id="defs1" />
  <g
     inkscape:label="Layer 1"
     inkscape:groupmode="layer"
     id="layer1">
    <rect
       style="fill:#ebebeb;stroke:#ebebeb;stroke-width:0.864247"
       id="rect1"
       width="60.257385"
       height="128.4295"
       x="0.035248484"
       y="0.035248484"
       ry="6.2818531e-17" />
    <g
       id="g27"
       inkscape:label="circles"
       transform="matrix(-1,0,0,1,60.96,0)">
      <g
         id="g2"
         transform="translate(-18.0907,29.031998)">
        <circle
           style="opacity:1;fill:#d77706;fill-opacity:1;stroke:#ebebeb;stroke-width:0"
           id="circle2"
           cx="28.0907"
           cy="35.968002"
           r="4.7969999" />
        <circle
           style="fill:#c13c05;fill-opacity:1;stroke:#ebebeb;stroke-width:0"
           id="circle1"
           cx="32.4207"
           cy="28.468002"
           r="4.7969999" />
        <circle
           style="fill:#a91c03;fill-opacity:1;stroke:#ebebeb;stroke-width:0"
           id="path1"
           cx="23.7607"
           cy="28.468002"
           r="4.7969999" />
      </g>
      <g
         id="g26"
         transform="translate(22.8693,83.531998)">
        <circle
           style="opacity:1;fill:#d77706;fill-opacity:1;stroke:#ebebeb;stroke-width:0"
           id="circle24"
           cx="28.0907"
           cy="35.968002"
           r="4.7969999" />
        <circle
           style="fill:#c13c05;fill-opacity:1;stroke:#ebebeb;stroke-width:0"
           id="circle25"
           cx="32.4207"
           cy="28.468002"
           r="4.7969999" />
        <circle
           style="fill:#a91c03;fill-opacity:1;stroke:#ebebeb;stroke-width:0"
           id="circle26"
           cx="23.7607"
           cy="28.468002"
           r="4.7969999" />
      </g>
      <g
         id="g5"
         transform="translate(9.4092997,68.351998)">
        <circle
           style="opacity:1;fill:#d77706;fill-opacity:1;stroke:#ebebeb;stroke-width:0"
           id="circle3"
           cx="28.0907"
           cy="35.968002"
           r="4.7969999" />
        <circle
           style="fill:#c13c05;fill-opacity:1;stroke:#ebebeb;stroke-width:0"
           id="circle4"
           cx="32.4207"
           cy="28.468002"
           r="4.7969999" />
        <circle
           style="fill:#a91c03;fill-opacity:1;stroke:#ebebeb;stroke-width:0"
           id="circle5"
           cx="23.7607"
           cy="28.468002"
           r="4.7969999" />
      </g>
      <g
         id="g8"
         transform="translate(22.8693,53.531998)">
        <circle
           style="opacity:1;fill:#d77706;fill-opacity:1;stroke:#ebebeb;stroke-width:0"
           id="circle6"
           cx="28.0907"
           cy="35.968002"
           r="4.7969999" />
        <circle
           style="fill:#c13c05;fill-opacity:1;stroke:#ebebeb;stroke-width:0"
           id="circle7"
           cx="32.4207"
           cy="28.468002"
           r="4.7969999" />
        <circle
           style="fill:#a91c03;fill-opacity:1;stroke:#ebebeb;stroke-width:0"
           id="circle8"
           cx="23.7607"
           cy="28.468002"
           r="4.7969999" />
      </g>
      <g
         id="g11"
         transform="translate(9.4092997,38.351998)">
        <circle
           style="opacity:1;fill:#d77706;fill-opacity:1;stroke:#ebebeb;stroke-width:0"
           id="circle9"
           cx="28.0907"
           cy="35.968002"
           r="4.7969999" />
        <circle
           style="fill:#c13c05;fill-opacity:1;stroke:#ebebeb;stroke-width:0"
           id="circle10"
           cx="32.4207"
           cy="28.468002"
           r="4.7969999" />
        <circle
           style="fill:#a91c03;fill-opacity:1;stroke:#ebebeb;stroke-width:0"
           id="circle11"
           cx="23.7607"
           cy="28.468002"
           r="4.7969999" />
      </g>
      <g
         id="g14"
         transform="translate(22.8693,23.531998)">
        <circle
           style="opacity:1;fill:#d77706;fill-opacity:1;stroke:#ebebeb;stroke-width:0"
           id="circle12"
           cx="28.0907"
           cy="35.968002"
           r="4.7969999" />
        <circle
           style="fill:#c13c05;fill-opacity:1;stroke:#ebebeb;stroke-width:0"
           id="circle13"
           cx="32.4207"
           cy="28.468002"
           r="4.7969999" />
        <circle
           style="fill:#a91c03;fill-opacity:1;stroke:#ebebeb;stroke-width:0"
           id="circle14"
           cx="23.7607"
           cy="28.468002"
           r="4.7969999" />
      </g>
      <g
         id="g17"
         transform="translate(9.4092997,8.5319976)">
        <circle
           style="opacity:1;fill:#d77706;fill-opacity:1;stroke:#ebebeb;stroke-width:0"
           id="circle15"
           cx="28.0907"
           cy="35.968002"
           r="4.7969999" />
        <circle
           style="fill:#c13c05;fill-opacity:1;stroke:#ebebeb;stroke-width:0"
           id="circle16"
           cx="32.4207"
           cy="28.468002"
           r="4.7969999" />
        <circle
           style="fill:#a91c03;fill-opacity:1;stroke:#ebebeb;stroke-width:0"
           id="circle17"
           cx="23.7607"
           cy="28.468002"
           r="4.7969999" />
      </g>
      <g
         id="g20"
         transform="translate(22.8693,-6.4680024)">
        <circle
           style="opacity:1;fill:#d77706;fill-opacity:1;stroke:#ebebeb;stroke-width:0"
           id="circle18"
           cx="28.0907"
           cy="35.968002"
           r="4.7969999" />
        <circle
           style="fill:#c13c05;fill-opacity:1;stroke:#ebebeb;stroke-width:0"
           id="circle19"
           cx="32.4207"
           cy="28.468002"
           r="4.7969999" />
        <circle
           style="fill:#a91c03;fill-opacity:1;stroke:#ebebeb;stroke-width:0"
           id="circle20"
           cx="23.7607"
           cy="28.468002"
           r="4.7969999" />
      </g>
      <g
         id="g23"
         transform="translate(9.4092997,-21.468002)"
         inkscape:label="g23">
        <circle
           style="opacity:1;fill:#d77706;fill-opacity:1;stroke:#ebebeb;stroke-width:0"
           id="circle21"
           cx="28.0907"
           cy="35.968002"
           r="4.7969999" />
        <circle
           style="fill:#c13c05;fill-opacity:1;stroke:#ebebeb;stroke-width:0"
           id="circle22"
           cx="32.4207"
           cy="28.468002"
           r="4.7969999" />
        <circle
           style="fill:#a91c03;fill-opacity:1;stroke:#ebebeb;stroke-width:0"
           id="circle23"
           cx="23.7607"
           cy="28.468002"
           r="4.7969999" />
      </g>
    </g>
    <rect
       style="fill:#a6a6a6;fill-opacity:1;stroke:#5ad7ff;stroke-width:0;stroke-opacity:1"
       id="rect29"
       width="1"
       height="105.5"
       x="35.459999"
       y="9.5" />
    <text
       xml:space="preserve"
       style="font-weight:bold;font-size:7.05556px;font-family:'Al Bayan';-inkscape-font-specification:'Al Bayan Bold';text-align:start;writing-mode:lr-tb;direction:ltr;text-anchor:start;display:none;fill:#d77706;fill-opacity:1;stroke:#5ad7ff;stroke-width:0"
       x="27.677147"
       y="-33.284042"
       id="text1"
       transform="rotate(70)"><tspan
         sodipodi:role="line"
         id="tspan1"
         style="fill:#d77706;fill-opacity:1;stroke-width:0"
         x="27.677147"
         y="-33.284042">RETOURS</tspan></text>
    <rect
       style="fill:#d77706;fill-opacity:1;stroke:#5ad7ff;stroke-width:0"
       id="rect2"
       width="36.604454"
       height="1"
       x="27.927681"
       y="-32.644123"
       ry="3.4484819e-17"
       transform="rotate(70)" />
    <path
       d="m 31.208372,-36.842828 q 0,-0.192926 -0.07924,-0.33073 -0.07924,-0.137804 -0.272163,-0.217041 -0.134359,-0.05512 -0.313504,-0.06546 -0.179145,-0.01378 -0.416857,-0.01378 h -0.478868 v 1.381484 h 0.406521 q 0.316949,0 0.530545,-0.03101 0.213596,-0.03101 0.358291,-0.141249 0.137803,-0.106798 0.199815,-0.234266 0.06546,-0.130914 0.06546,-0.347955 z m 2.063614,3.558786 h -1.615751 l -1.39871,-1.881024 h -0.609782 v 1.881024 h -1.316028 v -5.129751 h 2.218643 q 0.454753,0 0.782038,0.05168 0.327284,0.05168 0.613227,0.223931 0.289388,0.172255 0.458198,0.447863 0.172255,0.272162 0.172255,0.685574 0,0.568441 -0.265273,0.926731 -0.261827,0.358291 -0.751031,0.596002 z m 4.289146,0 h -3.71037 v -5.129751 h 3.71037 v 0.992188 h -2.394343 v 0.88539 h 2.222088 v 0.992189 h -2.222088 v 1.267796 h 2.394343 z m 5.12286,-4.137563 h -1.601971 v 4.137563 h -1.322917 v -4.137563 h -1.601971 v -0.992188 h 4.526859 z m 5.784319,1.57441 q 0,1.226455 -0.7028,1.949925 -0.7028,0.720026 -1.943035,0.720026 -1.23679,0 -1.93959,-0.720026 -0.7028,-0.72347 -0.7028,-1.949925 0,-1.23679 0.7028,-1.95337 0.7028,-0.720026 1.93959,-0.720026 1.233345,0 1.93959,0.720026 0.706245,0.71658 0.706245,1.95337 z m -1.753555,1.298802 q 0.192926,-0.234267 0.285944,-0.551216 0.09302,-0.320394 0.09302,-0.751031 0,-0.461643 -0.106798,-0.785482 -0.106798,-0.32384 -0.279053,-0.523655 -0.1757,-0.206706 -0.406521,-0.299724 -0.227377,-0.09302 -0.475424,-0.09302 -0.251492,0 -0.475423,0.08957 -0.220487,0.08957 -0.406522,0.296279 -0.172255,0.192925 -0.282498,0.53399 -0.106798,0.337619 -0.106798,0.785482 0,0.458198 0.103353,0.782037 0.106798,0.320394 0.279053,0.523655 0.172255,0.203261 0.403076,0.299723 0.230822,0.09646 0.485759,0.09646 0.254937,0 0.485759,-0.09646 0.230822,-0.09991 0.403076,-0.306613 z m 7.255376,-0.592557 q 0,0.950847 -0.578776,1.457276 -0.578776,0.50643 -1.705323,0.50643 -1.126547,0 -1.705324,-0.50643 -0.575331,-0.506429 -0.575331,-1.453831 v -3.276288 h 1.329808 v 3.200496 q 0,0.53399 0.223931,0.795817 0.223931,0.261828 0.726916,0.261828 0.496094,0 0.72347,-0.251492 0.230822,-0.251492 0.230822,-0.806153 v -3.200496 h 1.329807 z m 4.113446,-1.701878 q 0,-0.192926 -0.07924,-0.33073 -0.07924,-0.137804 -0.272163,-0.217041 -0.134359,-0.05512 -0.313504,-0.06546 -0.179145,-0.01378 -0.416857,-0.01378 h -0.478868 v 1.381484 h 0.406521 q 0.316949,0 0.530545,-0.03101 0.213596,-0.03101 0.358291,-0.141249 0.137803,-0.106798 0.199815,-0.234266 0.06546,-0.130914 0.06546,-0.347955 z m 2.063614,3.558786 h -1.615751 l -1.39871,-1.881024 h -0.609782 v 1.881024 h -1.316028 v -5.129751 h 2.218643 q 0.454753,0 0.782038,0.05168 0.327284,0.05168 0.613227,0.223931 0.289388,0.172255 0.458198,0.447863 0.172255,0.272162 0.172255,0.685574 0,0.568441 -0.265273,0.926731 -0.261827,0.358291 -0.751031,0.596002 z m 4.685333,-1.612306 q 0,0.757921 -0.644234,1.233345 -0.640788,0.471978 -1.743219,0.471978 -0.637343,0 -1.112767,-0.110243 -0.471978,-0.113688 -0.88539,-0.285943 v -1.2299 h 0.144694 q 0.409967,0.327284 0.916396,0.502984 0.509875,0.1757 0.978408,0.1757 0.120579,0 0.316949,-0.02067 0.196371,-0.02067 0.320394,-0.0689 0.151585,-0.06201 0.248047,-0.15503 0.09991,-0.09302 0.09991,-0.275607 0,-0.16881 -0.144694,-0.289389 -0.141249,-0.124023 -0.416857,-0.18948 -0.289388,-0.0689 -0.613227,-0.127469 -0.320394,-0.06201 -0.602892,-0.155029 -0.647679,-0.210151 -0.933622,-0.568441 -0.282498,-0.361735 -0.282498,-0.895725 0,-0.716581 0.640788,-1.167889 0.644234,-0.454752 1.653647,-0.454752 0.50643,0 0.999079,0.09991 0.496094,0.09646 0.857829,0.244602 v 1.181669 h -0.141249 q -0.310059,-0.248047 -0.761367,-0.413412 -0.447862,-0.16881 -0.916396,-0.16881 -0.165364,0 -0.330729,0.02412 -0.16192,0.02067 -0.313504,0.08268 -0.134359,0.05168 -0.230821,0.158475 -0.09646,0.103353 -0.09646,0.237712 0,0.20326 0.155029,0.313503 0.15503,0.106798 0.585667,0.196371 0.282498,0.05857 0.54088,0.113688 0.261828,0.05512 0.561551,0.151585 0.589112,0.192925 0.868165,0.527099 0.282498,0.33073 0.282498,0.861275 z"
       id="text2"
       style="font-weight:bold;font-size:7.05556px;font-family:'Al Bayan';-inkscape-font-specification:'Al Bayan Bold';fill:#d77706;stroke:#5ad7ff;stroke-width:0"
       transform="rotate(70)"
       aria-label="RETOURS" />
    <g
       style="fill:none"
       id="g28"
       transform="matrix(0.25625,0,0,0.29166667,55,97.916667)">
      <path
         d="M 8,6 V 2 h 2 l 6,6 -6,6 H 8 V 10 H -1.74845e-7 L -3.01991e-7,6 Z"
         fill="#000000"
         id="path1-4" />
    </g>
    <g
       style="fill:none"
       id="g29"
       transform="matrix(-0.25625,0,0,-0.29166667,59.1,117.58334)">
      <path
         d="M 8,6 V 2 h 2 l 6,6 -6,6 H 8 V 10 H -1.74845e-7 L -3.01991e-7,6 Z"
         fill="#000000"
         id="path28" />
    </g>
  </g>
  <g
     inkscape:groupmode="layer"
     id="layer2"
     inkscape:label="components" />
</svg>
