<?xml version="1.0" encoding="UTF-8" standalone="no"?>
<!-- Created with Inkscape (http://www.inkscape.org/) -->

<svg
   width="40.639999mm"
   height="128.5mm"
   viewBox="0 0 40.639999 128.5"
   version="1.1"
   id="svg1"
   inkscape:version="1.4 (e7c3feb1, 2024-10-09)"
   sodipodi:docname="saturn.svg"
   xml:space="preserve"
   xmlns:inkscape="http://www.inkscape.org/namespaces/inkscape"
   xmlns:sodipodi="http://sodipodi.sourceforge.net/DTD/sodipodi-0.dtd"
   xmlns="http://www.w3.org/2000/svg"
   xmlns:svg="http://www.w3.org/2000/svg"><sodipodi:namedview
     id="namedview1"
     pagecolor="#ffffff"
     bordercolor="#000000"
     borderopacity="0.25"
     inkscape:showpageshadow="2"
     inkscape:pageopacity="0.0"
     inkscape:pagecheckerboard="0"
     inkscape:deskcolor="#d1d1d1"
     inkscape:document-units="mm"
     inkscape:zoom="3.4567049"
     inkscape:cx="46.286855"
     inkscape:cy="295.36799"
     inkscape:window-width="1104"
     inkscape:window-height="761"
     inkscape:window-x="0"
     inkscape:window-y="25"
     inkscape:window-maximized="0"
     inkscape:current-layer="layer1" /><defs
     id="defs1"><rect
       x="98.869093"
       y="396.63954"
       width="16.865904"
       height="43.037135"
       id="rect3" /><style
       id="style1">.h{fill:none;stroke:#000;stroke-linecap:round;stroke-linejoin:round;}</style></defs><g
     inkscape:label="Layer 1"
     inkscape:groupmode="layer"
     id="layer1"><rect
       style="fill:#14141c;stroke-width:0.79375;fill-opacity:1"
       id="rect1"
       width="40.639996"
       height="128.5"
       x="0"
       y="0"
       ry="0"
       inkscape:label="back" /><g
       id="g1"
       transform="matrix(0.26458333,0,0,0.26458333,13.971828,-1.3544209)"><path
         id="e"
         class="h"
         d="m 26.899948,13.373096 v 0 c -0.382261,-0.0361 -0.766015,-0.05412 -1.149978,-0.054 -5.055908,0 -9.35083,3.115943 -10.889802,7.445864 -0.325994,1.963965 4.625916,5.782895 5.209905,5.4209 -0.196997,-5.743894 3.018946,-11.50779 6.829875,-12.812764 z"
         style="stroke:#ffffff;stroke-opacity:1" /><path
         id="f"
         class="h"
         d="m 14.331178,25.574874 c 0.609989,4.989909 4.729914,8.958837 9.939819,9.596826 -2.004965,-1.703968 -3.207942,-3.81993 -3.786932,-6.06289"
         style="stroke:#e5ffff;stroke-opacity:1" /><path
         id="g"
         class="h"
         d="m 36.345777,24.095901 c 5.289905,3.88393 7.928857,7.451864 6.954876,9.402829 v 0 C 41.76668,36.574674 31.882861,34.775707 21.223056,29.481803 10.564247,24.187899 3.1673817,17.403022 4.7013539,14.328079 5.8343332,12.05712 11.635227,12.388114 19.361086,15.165063"
         style="stroke:#ffffff;stroke-opacity:1" /></g><g
       id="g2"
       transform="translate(2.650751,7.6607637)"
       inkscape:label="out"><rect
         style="fill:#ebebeb;fill-opacity:1;stroke:#5ad7ff;stroke-width:0"
         id="rect2"
         width="9.5939999"
         height="9.5939999"
         x="12.552249"
         y="107.54224"
         ry="1.5581911" /><rect
         style="fill:#14141c;fill-opacity:1;stroke:#5ad7ff;stroke-width:0"
         id="rect2-8"
         width="8.5939999"
         height="8.5939999"
         x="13.052"
         y="108.042"
         ry="1.3957781" /></g><g
       id="g6"
       inkscape:label="t"><text
         xml:space="preserve"
         style="font-style:normal;font-variant:normal;font-weight:normal;font-stretch:normal;font-size:9.26078px;font-family:sans-serif;-inkscape-font-specification:'sans-serif, Normal';font-variant-ligatures:normal;font-variant-caps:normal;font-variant-numeric:normal;font-variant-east-asian:normal;text-align:start;writing-mode:lr-tb;direction:ltr;text-anchor:start;display:none;fill:#ebebeb;fill-opacity:1;stroke:#5ad7ff;stroke-width:0"
         x="38.253906"
         y="82.574448"
         id="text3"
         transform="scale(0.7618755,1.3125504)"><tspan
           sodipodi:role="line"
           id="tspan3"
           style="font-style:normal;font-variant:normal;font-weight:normal;font-stretch:normal;font-size:9.26078px;font-family:sans-serif;-inkscape-font-specification:'sans-serif, Normal';font-variant-ligatures:normal;font-variant-caps:normal;font-variant-numeric:normal;font-variant-east-asian:normal;fill:#ebebeb;fill-opacity:1;stroke-width:0"
           x="38.253906"
           y="82.574448">{</tspan></text><path
         d="m 30.036898,115.56038 h -0.491386 q -0.586387,0 -0.953289,-0.8466 -0.363626,-0.83815 -0.363626,-2.42977 v -1.26144 q 0,-1.43076 -0.271901,-2.23505 -0.2719,-0.81273 -0.83208,-0.81273 h -0.167072 v -1.32071 h 0.167072 q 0.56018,0 0.83208,-0.80428 0.271901,-0.81275 0.271901,-2.24351 v -1.26146 q 0,-1.59162 0.363626,-2.42975 0.366902,-0.846609 0.953289,-0.846609 h 0.491386 v 1.168319 h -0.373454 q -0.445522,0 -0.64863,0.53336 -0.199829,0.53337 -0.199829,1.71862 v 1.48157 q 0,1.17678 -0.252246,1.98105 -0.252245,0.79581 -0.701044,1.26145 v 0.20317 q 0.448799,0.46564 0.701044,1.26992 0.252246,0.79582 0.252246,1.9726 v 1.48156 q 0,1.18526 0.199829,1.71861 0.203108,0.53336 0.64863,0.53336 h 0.373454 z"
         id="text4"
         style="font-size:9.26078px;-inkscape-font-specification:'sans-serif, Normal';fill:#ebebeb;stroke:#5ad7ff;stroke-width:0"
         aria-label="{" /><text
         xml:space="preserve"
         style="font-style:normal;font-variant:normal;font-weight:normal;font-stretch:normal;font-size:7.05556px;font-family:'.SF Compact';-inkscape-font-specification:'.SF Compact, @wght=455';font-variant-ligatures:normal;font-variant-caps:normal;font-variant-numeric:normal;font-variant-east-asian:normal;font-variation-settings:'wght' 455;text-align:start;writing-mode:lr-tb;direction:ltr;text-anchor:start;display:none;fill:#ebebeb;fill-opacity:1;stroke:#5ad7ff;stroke-width:0"
         x="19.164125"
         y="109.17986"
         id="text5"><tspan
           sodipodi:role="line"
           id="tspan4"
           style="font-style:normal;font-variant:normal;font-weight:normal;font-stretch:normal;font-size:7.05556px;font-family:'.SF Compact';-inkscape-font-specification:'.SF Compact, @wght=455';font-variant-ligatures:normal;font-variant-caps:normal;font-variant-numeric:normal;font-variant-east-asian:normal;font-variation-settings:'wght' 455;stroke-width:0"
           x="19.164125"
           y="109.17986">t</tspan></text><path
         d="m 24.576374,105.56596 h -0.544325 l -0.09302,0.50298 h 0.54777 l -0.347954,1.97404 q -0.05168,0.30317 -0.05168,0.46509 0,0.3514 0.227377,0.5271 0.230821,0.1757 0.682129,0.1757 0.141249,0 0.285943,-0.0172 0.148139,-0.0138 0.220486,-0.031 l 0.08957,-0.49954 q -0.07235,0.0172 -0.192926,0.031 -0.120578,0.0103 -0.234266,0.0103 -0.223932,0 -0.33073,-0.0861 -0.103353,-0.0861 -0.103353,-0.27561 0,-0.0758 0.01378,-0.18603 0.01723,-0.11024 0.05857,-0.3514 l 0.306614,-1.73633 h 0.782037 l 0.08957,-0.50298 h -0.785482 l 0.158474,-0.90951 h -0.613227 z"
         id="text6"
         style="font-size:7.05556px;font-family:'.SF Compact';-inkscape-font-specification:'.SF Compact, @wght=455';font-variation-settings:'wght' 455;fill:#ebebeb;stroke:#5ad7ff;stroke-width:0"
         aria-label="t" /></g><g
       id="g7"
       inkscape:label="bag"
       transform="matrix(0.50302317,0,0,0.40952377,7.2118503,70.6716)"><circle
         style="font-variation-settings:'wght' 455;fill:none;fill-opacity:1;stroke:#ebebeb;stroke-width:0.5;stroke-dasharray:none;stroke-opacity:1"
         id="path6"
         cx="15"
         cy="85"
         r="5" /><rect
         style="font-variation-settings:'wght' 455;fill:#ebebeb;fill-opacity:1;stroke:#ebebeb;stroke-width:0;stroke-dasharray:none;stroke-opacity:1"
         id="rect6"
         width="0.6913327"
         height="7.6046591"
         x="34.941547"
         y="69.07151"
         ry="0.34566635"
         transform="rotate(15.820045)" /><rect
         style="font-variation-settings:'wght' 455;fill:#ebebeb;fill-opacity:1;stroke:#ebebeb;stroke-width:0;stroke-dasharray:none;stroke-opacity:1"
         id="rect6-66"
         width="0.6913327"
         height="4.6565814"
         x="14.507394"
         y="88.043243"
         ry="0.2116628" /><rect
         style="font-variation-settings:'wght' 455;fill:#ebebeb;fill-opacity:1;stroke:#ebebeb;stroke-width:0;stroke-dasharray:none;stroke-opacity:1"
         id="rect6-6"
         width="0.6913327"
         height="7.6046591"
         x="59.975269"
         y="51.725601"
         ry="0.34566635"
         transform="rotate(35.406719)" /><rect
         style="font-variation-settings:'wght' 455;fill:#ebebeb;fill-opacity:1;stroke:#ebebeb;stroke-width:0;stroke-dasharray:none;stroke-opacity:1"
         id="rect6-9"
         width="0.6913327"
         height="7.6046591"
         x="81.402191"
         y="17.791069"
         ry="0.34566635"
         transform="rotate(61.787832)" /></g><text
       xml:space="preserve"
       style="font-style:normal;font-variant:normal;font-weight:normal;font-stretch:normal;font-size:7.05556px;font-family:'.SF Compact';-inkscape-font-specification:'.SF Compact, @wght=455';font-variant-ligatures:normal;font-variant-caps:normal;font-variant-numeric:normal;font-variant-east-asian:normal;font-variation-settings:'wght' 455;text-align:start;writing-mode:lr-tb;direction:ltr;text-anchor:start;display:none;fill:#ebebeb;fill-opacity:1;stroke:#ebebeb;stroke-width:0;stroke-dasharray:none;stroke-opacity:1"
       x="10.718429"
       y="53.586784"
       id="text7"><tspan
         sodipodi:role="line"
         id="tspan7"
         style="stroke-width:0"
         x="10.718429"
         y="53.586784">f</tspan></text><text
       xml:space="preserve"
       style="font-style:normal;font-variant:normal;font-weight:normal;font-stretch:normal;font-size:7.05556px;font-family:'.SF Compact';-inkscape-font-specification:'.SF Compact, @wght=455';font-variant-ligatures:normal;font-variant-caps:normal;font-variant-numeric:normal;font-variant-east-asian:normal;font-variation-settings:'wght' 455;text-align:start;writing-mode:lr-tb;direction:ltr;text-anchor:start;display:none;fill:#ebebeb;fill-opacity:1;stroke:#ebebeb;stroke-width:0;stroke-dasharray:none;stroke-opacity:1"
       x="25.797266"
       y="72.152626"
       id="text8"><tspan
         sodipodi:role="line"
         id="tspan8"
         style="stroke-width:0"
         x="25.797266"
         y="72.152626">a</tspan></text><path
       d="m 15.53812,72.107629 h 0.623563 l 0.54777,-3.110923 h 0.823379 l 0.09302,-0.502984 h -0.830268 l 0.0379,-0.210151 q 0.05857,-0.316949 0.217041,-0.458198 0.158475,-0.141249 0.461643,-0.141249 0.07924,0 0.172255,0.0069 0.09646,0.0069 0.141249,0.01723 l 0.08957,-0.482314 q -0.09302,-0.01723 -0.203261,-0.02756 -0.110243,-0.01033 -0.217041,-0.01033 -0.571886,0 -0.892281,0.279053 -0.316949,0.279053 -0.392741,0.844049 l -0.02412,0.18259 h -0.592557 l -0.08613,0.502984 h 0.582222 z"
       id="text9"
       style="font-size:7.05556px;font-family:'.SF Compact';-inkscape-font-specification:'.SF Compact, @wght=455';font-variation-settings:'wght' 455;fill:#ebebeb;stroke:#ebebeb;stroke-width:0"
       aria-label="f"
       inkscape:label="text9" /><path
       d="m 30.255222,95.494541 q 0.275608,0 0.478869,-0.08268 0.206706,-0.08613 0.34451,-0.210151 0.137804,-0.127468 0.203261,-0.254937 h 0.04134 l -0.08613,0.489204 h 0.599447 l 0.3514,-1.994712 q 0.02756,-0.134358 0.04479,-0.275607 0.02067,-0.144694 0.02067,-0.282498 0,-0.33073 -0.148139,-0.585667 -0.144694,-0.254937 -0.434082,-0.399631 -0.289389,-0.144694 -0.720026,-0.144694 -0.399631,0 -0.69591,0.124023 -0.296278,0.124024 -0.478868,0.33762 -0.179145,0.210151 -0.230822,0.482313 h 0.606337 q 0.0379,-0.113688 0.130914,-0.210151 0.09646,-0.09991 0.248047,-0.158474 0.15503,-0.05857 0.372071,-0.05857 0.285943,0 0.447862,0.09991 0.165365,0.09646 0.234267,0.248047 0.07235,0.148139 0.07235,0.303169 0,0.04479 -0.0034,0.09302 -0.0034,0.04479 -0.01034,0.07235 l -0.03445,0.223932 h -0.971518 q -0.465088,0 -0.782037,0.130913 -0.313504,0.127469 -0.485759,0.358291 -0.168809,0.227376 -0.199815,0.53399 -0.0034,0.0379 -0.0069,0.07579 0,0.0379 0,0.07235 0,0.320394 0.14814,0.547771 0.148139,0.227376 0.396186,0.347954 0.251492,0.117134 0.54777,0.117134 z m -0.465088,-1.071426 q 0,-0.254937 0.199816,-0.447862 0.199816,-0.196371 0.627008,-0.196371 h 0.89228 l -0.07579,0.437527 q -0.06201,0.334175 -0.347955,0.554661 -0.282498,0.217041 -0.647678,0.217041 -0.206706,0 -0.3514,-0.07579 -0.144694,-0.07579 -0.220487,-0.203261 -0.07579,-0.127468 -0.07579,-0.285943 z"
       id="text10"
       style="font-size:7.05556px;font-family:'.SF Compact';-inkscape-font-specification:'.SF Compact, @wght=455';font-variation-settings:'wght' 455;fill:#ebebeb;stroke:#ebebeb;stroke-width:0"
       aria-label="a" /><text
       xml:space="preserve"
       style="font-style:normal;font-variant:normal;font-weight:normal;font-stretch:normal;font-size:4.62027px;font-family:'.SF Compact';-inkscape-font-specification:'.SF Compact, @wght=455';font-variant-ligatures:normal;font-variant-caps:normal;font-variant-numeric:normal;font-variant-east-asian:normal;font-variation-settings:'wght' 455;text-align:start;writing-mode:lr-tb;direction:ltr;text-anchor:start;display:none;fill:#ebebeb;fill-opacity:1;stroke:#ebebeb;stroke-width:0;stroke-dasharray:none;stroke-opacity:1"
       x="3.3790522"
       y="32.171886"
       id="text11"
       transform="scale(0.97630684,1.0242681)"><tspan
         sodipodi:role="line"
         id="tspan10"
         style="stroke-width:0"
         x="0"
         y="0">m</tspan></text><text
       xml:space="preserve"
       style="font-style:normal;font-variant:normal;font-weight:normal;font-stretch:normal;font-size:4.35624px;font-family:'.SF Compact';-inkscape-font-specification:'.SF Compact, @wght=455';font-variant-ligatures:normal;font-variant-caps:normal;font-variant-numeric:normal;font-variant-east-asian:normal;font-variation-settings:'wght' 455;text-align:start;writing-mode:lr-tb;direction:ltr;text-anchor:start;display:none;fill:#ebebeb;fill-opacity:1;stroke:#ebebeb;stroke-width:0;stroke-dasharray:none;stroke-opacity:1"
       x="37.596775"
       y="28.862995"
       id="text12"
       transform="scale(0.87926967,1.1373075)"><tspan
         sodipodi:role="line"
         id="tspan11"
         style="stroke-width:0"
         x="0"
         y="0">p</tspan></text><path
       d="m 4.0896894,32.171886 h 0.4105903 l 0.2436471,-1.387434 q 0.03384,-0.189503 0.1127995,-0.345167 0.07896,-0.155663 0.2098072,-0.248159 0.1308475,-0.09249 0.3158388,-0.09249 0.1579193,0 0.245903,0.06768 0.09024,0.06542 0.1263355,0.173712 0.036096,0.108287 0.036096,0.236879 0,0.07445 -0.00902,0.151151 -0.00677,0.0767 -0.015792,0.126336 l -0.232367,1.317498 h 0.4060784 l 0.245903,-1.387434 q 0.038352,-0.203039 0.1150555,-0.356447 0.07896,-0.153407 0.2007832,-0.241391 0.1240796,-0.08798 0.2865109,-0.08798 0.2188312,0 0.3068148,0.139871 0.087984,0.137616 0.087984,0.342911 0,0.07219 -0.00902,0.148895 -0.00902,0.07445 -0.018048,0.12408 l -0.2301111,1.317498 h 0.4083344 l 0.2278551,-1.292682 q 0.018048,-0.09701 0.031584,-0.200784 0.015792,-0.106031 0.015792,-0.198527 0,-0.194015 -0.072192,-0.356446 -0.072192,-0.162432 -0.2255991,-0.261695 -0.1534074,-0.09926 -0.3947985,-0.09926 -0.2030392,0 -0.3451666,0.06994 -0.1398715,0.06768 -0.2278551,0.169199 -0.087984,0.10152 -0.1353595,0.200783 h -0.024816 q -0.040608,-0.130847 -0.1285915,-0.230111 -0.087984,-0.09926 -0.2210871,-0.153407 -0.1331035,-0.0564 -0.3068148,-0.0564 -0.263951,0 -0.4263823,0.128591 -0.1624314,0.126336 -0.2346231,0.302303 h -0.029328 l 0.069936,-0.394798 H 4.5070477 Z"
       id="text13"
       style="font-size:4.62027px;font-family:'.SF Compact';-inkscape-font-specification:'.SF Compact, @wght=455';font-variation-settings:'wght' 455;fill:#ebebeb;stroke:#ebebeb;stroke-width:0"
       transform="scale(0.97630684,1.0242681)"
       aria-label="m" /><path
       d="m 40.64274,28.897028 q 0.26801,0 0.461574,-0.106353 0.19569,-0.108481 0.314806,-0.291409 0.119116,-0.182928 0.155276,-0.408397 l 0.07445,-0.402017 q 0.01276,-0.06594 0.01489,-0.134005 0.0021,-0.07019 0.0021,-0.129751 0,-0.389254 -0.221215,-0.610469 -0.221215,-0.223343 -0.567928,-0.223343 -0.191436,0 -0.321187,0.06381 -0.127625,0.06169 -0.202072,0.153149 -0.07445,0.09146 -0.110608,0.176547 h -0.02978 l 0.06594,-0.359475 h -0.382873 l -0.521132,2.980026 h 0.387126 l 0.204199,-1.186906 h 0.02765 q 0.01914,0.09785 0.09997,0.21058 0.08083,0.110608 0.219089,0.18931 0.138259,0.0787 0.329696,0.0787 z m -0.580691,-0.948673 q 0,-0.0064 0.0021,-0.03616 0.0021,-0.02978 0.0085,-0.06807 l 0.04892,-0.306299 q 0.03191,-0.185055 0.112735,-0.327568 0.08296,-0.142514 0.21058,-0.221216 0.127624,-0.08083 0.295663,-0.08083 0.168038,0 0.289281,0.06807 0.121243,0.06594 0.18931,0.193563 0.06807,0.127624 0.06807,0.304171 0,0.04467 -0.0021,0.09785 -0.0021,0.05105 -0.0085,0.09146 l -0.05743,0.314806 q -0.02552,0.155276 -0.106354,0.289281 -0.08083,0.131879 -0.21058,0.212708 -0.127624,0.0787 -0.29779,0.0787 -0.12337,0 -0.248867,-0.06381 -0.125497,-0.06594 -0.21058,-0.202072 -0.08296,-0.136132 -0.08296,-0.344585 z"
       id="text14"
       style="font-size:4.35624px;font-family:'.SF Compact';-inkscape-font-specification:'.SF Compact, @wght=455';font-variation-settings:'wght' 455;fill:#ebebeb;stroke:#ebebeb;stroke-width:0"
       transform="scale(0.87926967,1.1373075)"
       aria-label="p" /><text
       xml:space="preserve"
       style="font-style:normal;font-variant:normal;font-weight:normal;font-stretch:normal;font-size:7.05556px;font-family:'.SF Compact';-inkscape-font-specification:'.SF Compact, @wght=455';font-variant-ligatures:normal;font-variant-caps:normal;font-variant-numeric:normal;font-variant-east-asian:normal;font-variation-settings:'wght' 455;text-align:start;writing-mode:lr-tb;direction:ltr;text-anchor:start;display:none;fill:#ebebeb;fill-opacity:1;stroke:#ebebeb;stroke-width:0;stroke-dasharray:none;stroke-opacity:1"
       x="28.591261"
       y="72.205048"
       id="text15"><tspan
         sodipodi:role="line"
         id="tspan14"
         style="stroke-width:0"
         x="28.591261"
         y="72.205048">λ</tspan></text><path
       d="m 35.358122,73.263382 h 0.689019 l 1.340143,-2.490806 h 0.02756 l 0.313504,1.863798 q 0.05168,0.296278 0.16192,0.437527 0.110243,0.141249 0.261827,0.18259 0.151584,0.04134 0.323839,0.04134 0.0689,0 0.130914,-0.01034 0.06201,-0.01033 0.08957,-0.01378 l 0.08957,-0.496094 q -0.02067,0.0069 -0.05857,0.01378 -0.03445,0.0034 -0.06546,0.0034 -0.148139,0 -0.244601,-0.06201 -0.09302,-0.06201 -0.130914,-0.282498 l -0.540881,-3.048912 q -0.07924,-0.458198 -0.21015,-0.706245 -0.127469,-0.251492 -0.334175,-0.347955 -0.203261,-0.09646 -0.509874,-0.09646 -0.02412,0 -0.06546,0.0034 -0.0379,0.0034 -0.07579,0.01033 l -0.09646,0.502984 q 0.02756,-0.0034 0.06201,-0.0034 0.0379,-0.0034 0.06546,-0.0034 0.296279,0 0.427193,0.18259 0.130913,0.179145 0.206705,0.651124 l 0.05168,0.323839 z"
       id="text16"
       style="font-size:7.05556px;font-family:'.SF Compact';-inkscape-font-specification:'.SF Compact, @wght=455';font-variation-settings:'wght' 455;fill:#ebebeb;stroke:#ebebeb;stroke-width:0"
       aria-label="λ" /><circle
       style="font-variation-settings:'wght' 455;fill:none;fill-opacity:1;stroke:#ebebeb;stroke-width:0.636364;stroke-dasharray:none;stroke-opacity:1"
       id="path16"
       cx="31.639999"
       cy="75"
       r="3.181818" /><text
       xml:space="preserve"
       style="font-style:normal;font-variant:normal;font-weight:normal;font-stretch:normal;font-size:7.05556px;font-family:'.SF Compact';-inkscape-font-specification:'.SF Compact, @wght=455';font-variant-ligatures:normal;font-variant-caps:normal;font-variant-numeric:normal;font-variant-east-asian:normal;font-variation-settings:'wght' 455;text-align:start;writing-mode:lr-tb;direction:ltr;text-anchor:start;display:none;fill:#ebebeb;fill-opacity:1;stroke:#ebebeb;stroke-width:0;stroke-dasharray:none;stroke-opacity:1"
       x="0.67468715"
       y="87.840408"
       id="text17"><tspan
         sodipodi:role="line"
         id="tspan16"
         style="fill:#ebebeb;fill-opacity:1;stroke-width:0;stroke-dasharray:none"
         x="0"
         y="0">q</tspan></text><path
       d="m 5.4978239,84.161044 q -0.423747,0 -0.7372509,0.1757 -0.3135039,0.172255 -0.5064294,0.465088 -0.1929255,0.289388 -0.2618274,0.644233 l -0.1343588,0.644234 q -0.020671,0.103353 -0.027561,0.217041 -0.00345,0.110243 -0.00345,0.213596 0,0.416857 0.1688098,0.72347 0.1688098,0.306614 0.4616431,0.475424 0.2962784,0.165365 0.6614587,0.165365 0.3031686,0 0.5098745,-0.106798 0.2067058,-0.106798 0.3307294,-0.258383 0.1240235,-0.151584 0.179145,-0.275608 h 0.048231 L 5.8526689,89.042747 H 6.4762316 L 7.3443962,84.216166 H 6.7311688 L 6.6071453,84.912075 H 6.5623591 Q 6.5313532,84.750156 6.3969944,84.577901 6.2626356,84.402201 6.0352591,84.281622 5.8113278,84.161044 5.4978239,84.161044 Z m 0.9474018,1.495172 q 0,0.0069 -0.00345,0.0689 0,0.05857 -0.010335,0.113689 l -0.086127,0.496094 q -0.048231,0.299723 -0.1825902,0.5271 -0.1309137,0.227376 -0.3410646,0.35829 -0.2067059,0.127468 -0.4823137,0.127468 -0.3961863,0 -0.6373431,-0.241156 -0.2411568,-0.244602 -0.2411568,-0.678685 0,-0.0689 0,-0.151584 0.00345,-0.08613 0.017225,-0.148139 l 0.103353,-0.499539 q 0.051676,-0.248047 0.1757,-0.461643 0.1274686,-0.217042 0.3272842,-0.3514 0.2032608,-0.134359 0.4788686,-0.134359 0.210151,0 0.4099667,0.103353 0.2032607,0.103353 0.3376195,0.316949 0.1343588,0.213596 0.1343588,0.55466 z"
       id="text18"
       style="font-size:7.05556px;font-family:'.SF Compact';-inkscape-font-specification:'.SF Compact, @wght=455';font-variation-settings:'wght' 455;fill:#ebebeb;stroke:#ebebeb;stroke-width:0"
       aria-label="q" /></g><g
     inkscape:groupmode="layer"
     id="layer2"
     inkscape:label="components" /></svg>
