<?xml version="1.0" encoding="UTF-8" standalone="no"?>
<!-- Created with Inkscape (http://www.inkscape.org/) -->

<svg
   width="40.639999mm"
   height="128.5mm"
   viewBox="0 0 40.639999 128.5"
   version="1.1"
   id="svg1"
   inkscape:version="1.4 (e7c3feb1, 2024-10-09)"
   sodipodi:docname="saturn.svg"
   xml:space="preserve"
   xmlns:inkscape="http://www.inkscape.org/namespaces/inkscape"
   xmlns:sodipodi="http://sodipodi.sourceforge.net/DTD/sodipodi-0.dtd"
   xmlns="http://www.w3.org/2000/svg"
   xmlns:svg="http://www.w3.org/2000/svg"><sodipodi:namedview
     id="namedview1"
     pagecolor="#ffffff"
     bordercolor="#000000"
     borderopacity="0.25"
     inkscape:showpageshadow="2"
     inkscape:pageopacity="0.0"
     inkscape:pagecheckerboard="0"
     inkscape:deskcolor="#d1d1d1"
     inkscape:document-units="mm"
     inkscape:zoom="1.608501"
     inkscape:cx="24.246177"
     inkscape:cy="144.85537"
     inkscape:window-width="1104"
     inkscape:window-height="761"
     inkscape:window-x="0"
     inkscape:window-y="25"
     inkscape:window-maximized="0"
     inkscape:current-layer="layer1" /><defs
     id="defs1"><style
       id="style1">.h{fill:none;stroke:#000;stroke-linecap:round;stroke-linejoin:round;}</style></defs><g
     inkscape:label="Layer 1"
     inkscape:groupmode="layer"
     id="layer1"><rect
       style="fill:#19191e;stroke-width:0.79375;fill-opacity:1"
       id="rect1"
       width="40.639996"
       height="128.5"
       x="0"
       y="0"
       ry="0"
       inkscape:label="back" /><g
       id="g1"
       transform="matrix(0.26458333,0,0,0.26458333,13.971828,-1.3544209)"><path
         id="e"
         class="h"
         d="m 26.899948,13.373096 v 0 c -0.382261,-0.0361 -0.766015,-0.05412 -1.149978,-0.054 -5.055908,0 -9.35083,3.115943 -10.889802,7.445864 -0.325994,1.963965 4.625916,5.782895 5.209905,5.4209 -0.196997,-5.743894 3.018946,-11.50779 6.829875,-12.812764 z"
         style="stroke:#ffffff;stroke-opacity:1" /><path
         id="f"
         class="h"
         d="m 14.331178,25.574874 c 0.609989,4.989909 4.729914,8.958837 9.939819,9.596826 -2.004965,-1.703968 -3.207942,-3.81993 -3.786932,-6.06289"
         style="stroke:#e5ffff;stroke-opacity:1" /><path
         id="g"
         class="h"
         d="m 36.345777,24.095901 c 5.289905,3.88393 7.928857,7.451864 6.954876,9.402829 v 0 C 41.76668,36.574674 31.882861,34.775707 21.223056,29.481803 10.564247,24.187899 3.1673817,17.403022 4.7013539,14.328079 5.8343332,12.05712 11.635227,12.388114 19.361086,15.165063"
         style="stroke:#ffffff;stroke-opacity:1" /></g></g><g
     inkscape:groupmode="layer"
     id="layer2"
     inkscape:label="components" /></svg>
