<?xml version="1.0" encoding="UTF-8" standalone="no"?>
<!-- Created with Inkscape (http://www.inkscape.org/) -->

<svg
   width="71.120003mm"
   height="128.5mm"
   viewBox="0 0 71.120003 128.5"
   version="1.1"
   id="svg1"
   inkscape:version="1.4 (e7c3feb1, 2024-10-09)"
   sodipodi:docname="supply.svg"
   xmlns:inkscape="http://www.inkscape.org/namespaces/inkscape"
   xmlns:sodipodi="http://sodipodi.sourceforge.net/DTD/sodipodi-0.dtd"
   xmlns="http://www.w3.org/2000/svg"
   xmlns:svg="http://www.w3.org/2000/svg">
  <sodipodi:namedview
     id="namedview1"
     pagecolor="#ffffff"
     bordercolor="#000000"
     borderopacity="0.25"
     inkscape:showpageshadow="2"
     inkscape:pageopacity="0.0"
     inkscape:pagecheckerboard="0"
     inkscape:deskcolor="#d1d1d1"
     inkscape:document-units="mm"
     inkscape:zoom="1.2181627"
     inkscape:cx="94.404468"
     inkscape:cy="201.94347"
     inkscape:window-width="1104"
     inkscape:window-height="761"
     inkscape:window-x="0"
     inkscape:window-y="25"
     inkscape:window-maximized="0"
     inkscape:current-layer="layer1" />
  <defs
     id="defs1">
    <rect
       x="93.340125"
       y="21.408286"
       width="46.241897"
       height="19.695623"
       id="rect3" />
    <rect
       x="24.225573"
       y="448.65762"
       width="33.915803"
       height="16.47339"
       id="rect56" />
    <rect
       x="161.82683"
       y="23.25655"
       width="48.451147"
       height="13.566321"
       id="rect55" />
    <rect
       x="156.01269"
       y="22.287527"
       width="42.152495"
       height="32.946781"
       id="rect54" />
    <rect
       x="23.25655"
       y="22.287527"
       width="32.94678"
       height="15.504367"
       id="rect53" />
    <rect
       x="26.163619"
       y="26.163619"
       width="21.108899"
       height="31.246309"
       id="rect52" />
  </defs>
  <g
     inkscape:label="Layer 1"
     inkscape:groupmode="layer"
     id="layer1">
    <rect
       style="fill:#e6e6e6;stroke-width:0.264583;fill-opacity:1"
       id="rect1"
       width="71.120003"
       height="128.5"
       x="0"
       y="0" />
    <rect
       style="display:inline;fill:#000000;stroke-width:0.232108"
       id="rect2"
       width="15.91014"
       height="5.424859"
       x="2.1152904"
       y="118.01212"
       ry="1.9709895" />
    <path
       d="m 15.279715,22.032435 q 0,0.440283 -0.199988,0.646472 -0.199988,0.206189 -0.615466,0.206189 -0.137976,0 -0.269751,-0.02015 -0.130225,-0.0186 -0.257349,-0.05426 v -0.297657 h 0.0155 q 0.07131,0.02791 0.226343,0.06821 0.155029,0.04186 0.310059,0.04186 0.148828,0 0.246496,-0.03566 0.09767,-0.03566 0.151929,-0.09922 0.05426,-0.06046 0.07752,-0.145727 0.02325,-0.08527 0.02325,-0.190687 v -0.158129 q -0.131775,0.10542 -0.252698,0.15813 -0.119373,0.05116 -0.305408,0.05116 -0.310058,0 -0.492993,-0.223243 -0.181384,-0.224792 -0.181384,-0.632519 0,-0.223242 0.06201,-0.384472 0.06356,-0.162781 0.172082,-0.280604 0.100769,-0.11007 0.244946,-0.170532 0.144178,-0.06201 0.286805,-0.06201 0.150378,0 0.251147,0.03101 0.10232,0.02946 0.215491,0.09147 l 0.0186,-0.07441 h 0.272851 z M 14.98826,21.753382 v -0.944128 q -0.116272,-0.05271 -0.217041,-0.07441 -0.09922,-0.02325 -0.198438,-0.02325 -0.240295,0 -0.378271,0.16123 -0.137976,0.161231 -0.137976,0.468189 0,0.291455 0.102319,0.441833 0.102319,0.150379 0.339514,0.150379 0.127124,0 0.254248,-0.04806 0.128675,-0.04961 0.235645,-0.131776 z m 2.210718,0.47594 h -0.289905 v -0.184485 q -0.03876,0.02636 -0.10542,0.07441 -0.06511,0.04651 -0.127124,0.07441 -0.07286,0.03566 -0.167432,0.05891 -0.09457,0.02481 -0.221692,0.02481 -0.234094,0 -0.396875,-0.155029 -0.16278,-0.155029 -0.16278,-0.395325 0,-0.196887 0.08371,-0.31781 0.08527,-0.122473 0.241846,-0.192236 0.15813,-0.06976 0.379822,-0.09457 0.221692,-0.02481 0.47594,-0.03721 v -0.04496 q 0,-0.09922 -0.03566,-0.164331 -0.03411,-0.06511 -0.09922,-0.10232 -0.06201,-0.03566 -0.148828,-0.04806 -0.08682,-0.0124 -0.181384,-0.0124 -0.114722,0 -0.255798,0.03101 -0.141077,0.02946 -0.291455,0.08682 h -0.0155 v -0.296102 q 0.08527,-0.02325 0.246496,-0.05116 0.161231,-0.02791 0.31781,-0.02791 0.182935,0 0.31781,0.03101 0.136426,0.02946 0.235645,0.102319 0.09767,0.07131 0.148828,0.184485 0.05116,0.113172 0.05116,0.280603 z M 16.909073,21.802991 V 21.32085 q -0.133325,0.0078 -0.31471,0.02325 -0.179834,0.0155 -0.285254,0.04496 -0.125573,0.03566 -0.203088,0.111621 -0.07751,0.07441 -0.07751,0.206189 0,0.148828 0.08992,0.224793 0.08992,0.07441 0.274402,0.07441 0.153479,0 0.280603,-0.05891 0.127124,-0.06046 0.235645,-0.144177 z m 1.750281,0.410828 q -0.08217,0.0217 -0.179835,0.03566 -0.09612,0.01395 -0.172082,0.01395 -0.2651,0 -0.403076,-0.142627 -0.137976,-0.142627 -0.137976,-0.457336 V 20.74259 h -0.196887 v -0.244946 h 0.196887 V 20 h 0.291455 v 0.497644 h 0.601514 V 20.74259 H 18.05784 v 0.789099 q 0,0.136426 0.0062,0.21394 0.0062,0.07596 0.04341,0.142627 0.03411,0.06201 0.09302,0.09147 0.06046,0.02791 0.182935,0.02791 0.07131,0 0.148828,-0.02015 0.07751,-0.0217 0.111621,-0.03566 h 0.0155 z m 1.80144,-0.820105 h -1.275891 q 0,0.15968 0.04806,0.279053 0.04806,0.117822 0.131775,0.193786 0.08061,0.07441 0.190686,0.111621 0.111621,0.03721 0.244946,0.03721 0.176734,0 0.355017,-0.06976 0.179834,-0.07131 0.255799,-0.139526 h 0.0155 v 0.31781 q -0.147278,0.06201 -0.300757,0.10387 -0.153479,0.04186 -0.322461,0.04186 -0.430982,0 -0.672827,-0.232544 -0.241846,-0.234095 -0.241846,-0.663526 0,-0.42478 0.230994,-0.674377 0.232544,-0.249597 0.610815,-0.249597 0.350366,0 0.539502,0.204639 0.190686,0.204638 0.190686,0.581359 z M 20.17709,21.170472 q -0.0016,-0.229443 -0.116272,-0.355017 -0.113171,-0.125574 -0.345715,-0.125574 -0.234094,0 -0.373621,0.137976 -0.137976,0.137977 -0.156579,0.342615 z m 1.962671,0.559655 q 0,0.237195 -0.196887,0.389124 -0.195337,0.151929 -0.534851,0.151929 -0.192236,0 -0.353467,-0.04496 -0.15968,-0.04651 -0.268201,-0.100769 v -0.327113 h 0.0155 q 0.137977,0.10387 0.306958,0.165882 0.168982,0.06046 0.324012,0.06046 0.192236,0 0.300757,-0.06201 0.10852,-0.06201 0.10852,-0.195337 0,-0.102319 -0.05891,-0.155029 -0.05891,-0.05271 -0.226343,-0.08992 -0.06201,-0.01395 -0.162781,-0.03256 -0.09922,-0.0186 -0.181384,-0.04031 -0.227893,-0.06046 -0.324011,-0.176734 -0.09457,-0.117822 -0.09457,-0.288354 0,-0.10697 0.04341,-0.201538 0.04496,-0.09457 0.134875,-0.168982 0.08682,-0.07286 0.220142,-0.114722 0.134876,-0.04341 0.300757,-0.04341 0.155029,0 0.313159,0.03876 0.15968,0.03721 0.2651,0.09147 v 0.311609 h -0.0155 q -0.111621,-0.08217 -0.271301,-0.137976 -0.15968,-0.05736 -0.313159,-0.05736 -0.15968,0 -0.269751,0.06201 -0.110071,0.06046 -0.110071,0.181384 0,0.106971 0.06666,0.161231 0.06511,0.05426 0.21084,0.08837 0.08062,0.0186 0.179834,0.03721 0.100769,0.0186 0.167432,0.03411 0.203088,0.04651 0.313159,0.15968 0.110071,0.114722 0.110071,0.303857 z"
       id="text53"
       style="white-space:pre;stroke-width:0.264583"
       aria-label="gates" />
    <path
       d="m 42.319763,20.892969 q 0,0.21084 -0.06046,0.386023 -0.06046,0.173633 -0.170534,0.294555 -0.102317,0.114722 -0.241845,0.178284 -0.137975,0.06201 -0.293005,0.06201 -0.134877,0 -0.244946,-0.02946 -0.108522,-0.02946 -0.221692,-0.09147 v 0.725537 h -0.291454 v -2.370389 h 0.291454 v 0.181385 q 0.116271,-0.09767 0.260448,-0.162781 Q 41.493456,20 41.657789,20 q 0.313158,0 0.486791,0.237195 0.175183,0.235644 0.175183,0.655774 z m -0.300757,0.0077 q 0,-0.313159 -0.106968,-0.468189 -0.106971,-0.155029 -0.328663,-0.155029 -0.125574,0 -0.252698,0.05426 -0.127125,0.05426 -0.243396,0.142627 v 0.981335 q 0.124024,0.05581 0.212389,0.07596 0.08992,0.02015 0.203089,0.02015 0.243396,0 0.379823,-0.164332 0.136424,-0.16433 0.136424,-0.486791 z m 2.100649,0.879016 H 43.829748 V 21.59525 q -0.03876,0.02636 -0.105418,0.07441 -0.06511,0.04651 -0.127124,0.07442 -0.07286,0.03566 -0.167434,0.05891 -0.09457,0.0248 -0.221691,0.0248 -0.234093,0 -0.396875,-0.155029 -0.16278,-0.155029 -0.16278,-0.395325 0,-0.196887 0.08372,-0.31781 0.08526,-0.122473 0.241845,-0.192236 0.158128,-0.06976 0.37982,-0.09457 0.221694,-0.02481 0.47594,-0.03721 v -0.04496 q 0,-0.09922 -0.03566,-0.164331 -0.03411,-0.06511 -0.09922,-0.10232 -0.06201,-0.03566 -0.148828,-0.04806 -0.08682,-0.0124 -0.181385,-0.0124 -0.114721,0 -0.255799,0.03101 -0.141076,0.02946 -0.291455,0.08682 h -0.0155 v -0.296106 q 0.08526,-0.02325 0.246496,-0.05116 0.161229,-0.02791 0.31781,-0.02791 0.182935,0 0.317809,0.03101 0.136428,0.02946 0.235646,0.102319 0.09767,0.07131 0.148828,0.184485 0.05116,0.113172 0.05116,0.280603 z m -0.289907,-0.42633 v -0.482139 q -0.133323,0.0077 -0.314708,0.02325 -0.179835,0.0155 -0.285256,0.04496 -0.125571,0.03566 -0.203086,0.111621 -0.07752,0.07441 -0.07752,0.206188 0,0.148828 0.08992,0.224793 0.08992,0.07441 0.274402,0.07441 0.15348,0 0.280604,-0.05891 0.127124,-0.06046 0.235643,-0.144177 z m 1.931665,-0.987537 h -0.0155 q -0.06511,-0.0155 -0.127124,-0.0217 -0.06046,-0.0077 -0.144177,-0.0077 -0.134876,0 -0.26045,0.06046 -0.125572,0.05891 -0.241845,0.153479 v 1.229382 h -0.29146 V 20.04806 h 0.291455 v 0.255798 q 0.173632,-0.139527 0.305408,-0.196887 0.133326,-0.05891 0.271301,-0.05891 0.07596,0 0.110072,0.0046 0.03411,0.0031 0.102317,0.01395 z m 1.564246,1.413867 H 47.035755 V 21.59525 q -0.03876,0.02636 -0.105421,0.07441 -0.06511,0.04651 -0.127124,0.07442 -0.07286,0.03566 -0.167431,0.05891 -0.09457,0.0248 -0.221692,0.0248 -0.234093,0 -0.396875,-0.155029 -0.16278,-0.155029 -0.16278,-0.395325 0,-0.196887 0.08371,-0.31781 0.08527,-0.122473 0.241847,-0.192236 0.158129,-0.06976 0.37982,-0.09457 0.221692,-0.02481 0.475941,-0.03721 v -0.04496 q 0,-0.09922 -0.03566,-0.164331 -0.0341,-0.06511 -0.09922,-0.10232 -0.06201,-0.03566 -0.148828,-0.04806 -0.08681,-0.0124 -0.181382,-0.0124 -0.114724,0 -0.2558,0.03101 -0.141075,0.02946 -0.291454,0.08682 h -0.01551 v -0.296106 q 0.08527,-0.02325 0.246499,-0.05116 0.16123,-0.02791 0.31781,-0.02791 0.182933,0 0.31781,0.03101 0.136424,0.02946 0.235643,0.102319 0.09767,0.07131 0.148828,0.184485 0.05116,0.113172 0.05116,0.280603 z m -0.289904,-0.42633 v -0.482139 q -0.133326,0.0077 -0.314709,0.02325 -0.179835,0.0155 -0.285255,0.04496 -0.125574,0.03566 -0.203089,0.111621 -0.07751,0.07441 -0.07751,0.206188 0,0.148828 0.08992,0.224793 0.08992,0.07441 0.274402,0.07441 0.153479,0 0.280604,-0.05891 0.127121,-0.06046 0.235643,-0.144177 z m 3.378089,0.42633 h -0.291455 v -0.985984 q 0,-0.111621 -0.01085,-0.21549 -0.0093,-0.10387 -0.04186,-0.165882 -0.03566,-0.06666 -0.10232,-0.100769 -0.06666,-0.03411 -0.192235,-0.03411 -0.122473,0 -0.244949,0.06201 -0.122473,0.06046 -0.244946,0.155029 0.0047,0.03566 0.0078,0.08372 0.0031,0.04651 0.0031,0.09302 v 1.108458 h -0.291501 v -0.985986 q 0,-0.114721 -0.01085,-0.217041 -0.0093,-0.103869 -0.04186,-0.165881 -0.03566,-0.06666 -0.10232,-0.09922 -0.06666,-0.03411 -0.192236,-0.03411 -0.119374,0 -0.240297,0.05891 -0.119372,0.05891 -0.238744,0.150378 v 1.292944 H 47.886872 V 20.04806 h 0.291454 v 0.192237 q 0.136425,-0.113172 0.271301,-0.176734 0.136427,-0.06356 0.289904,-0.06356 0.176734,0 0.299207,0.07441 0.124023,0.07441 0.184486,0.206189 0.176734,-0.148828 0.322461,-0.21394 0.145727,-0.06666 0.311608,-0.06666 0.285255,0 0.420129,0.173632 0.136427,0.172083 0.136427,0.482141 z m 1.798338,-0.499194 q 0,0.237195 -0.196887,0.389123 -0.195337,0.151929 -0.53485,0.151929 -0.192236,0 -0.353467,-0.04496 -0.159679,-0.04651 -0.268201,-0.100769 v -0.327111 h 0.0155 q 0.137978,0.103869 0.306959,0.165881 0.168981,0.06046 0.324011,0.06046 0.192236,0 0.300758,-0.06201 0.108518,-0.06201 0.108518,-0.195337 0,-0.102319 -0.05891,-0.155029 -0.05891,-0.05271 -0.226343,-0.08992 -0.06201,-0.01395 -0.162782,-0.03256 -0.09922,-0.0186 -0.181383,-0.04031 -0.227893,-0.06046 -0.324011,-0.176734 -0.09457,-0.117822 -0.09457,-0.288354 0,-0.106971 0.04341,-0.201539 0.04496,-0.09457 0.134874,-0.168981 0.08682,-0.07286 0.220144,-0.114722 0.134874,-0.04341 0.300754,-0.04341 0.15503,0 0.313161,0.03876 0.159679,0.03721 0.265099,0.09147 v 0.311609 h -0.0155 q -0.111623,-0.08217 -0.271301,-0.137976 -0.159682,-0.05736 -0.313161,-0.05736 -0.159679,0 -0.269751,0.06201 -0.110069,0.06046 -0.110069,0.181384 0,0.10697 0.06666,0.16123 0.06511,0.05426 0.210838,0.08837 0.08062,0.0186 0.179835,0.03721 0.100769,0.0186 0.167431,0.03411 0.203089,0.04651 0.313161,0.159681 0.110069,0.114722 0.110069,0.303857 z"
       id="text55"
       style="white-space:pre;stroke-width:0.264583"
       aria-label="params" />
    <path
       style="font-weight:bold;font-size:5.63172px;font-family:Futura;-inkscape-font-specification:'Futura, Bold';stroke-width:0.469311"
       d="m 31.027189,7.1245406 q -0.180215,-0.1464247 -0.36043,-0.2140054 -0.180215,-0.073212 -0.349166,-0.073212 -0.214006,0 -0.349167,0.1013709 -0.135161,0.101371 -0.135161,0.2646909 0,0.1126344 0.06758,0.1858467 0.06758,0.073212 0.174584,0.1295296 0.112634,0.050686 0.247795,0.090108 0.140793,0.039422 0.275955,0.084476 0.540645,0.1802151 0.788441,0.4843279 0.253427,0.2984812 0.253427,0.7828091 0,0.3266398 -0.112634,0.5913306 -0.107003,0.2646909 -0.321008,0.4561691 -0.208374,0.185847 -0.518119,0.287218 -0.304113,0.107003 -0.692701,0.107003 -0.805336,0 -1.492406,-0.4786965 l 0.473064,-0.8898118 q 0.247796,0.2196371 0.48996,0.3266398 0.242164,0.1070026 0.478696,0.1070026 0.270323,0 0.399852,-0.1238978 0.135162,-0.1238978 0.135162,-0.281586 0,-0.095739 -0.03379,-0.1633199 Q 30.413332,8.82532 30.334488,8.7690028 30.255644,8.7070539 30.126114,8.6563684 30.002216,8.605683 29.822001,8.543734 29.607996,8.4761534 29.399622,8.3973093 29.19688,8.3128335 29.033561,8.1776722 28.875872,8.042511 28.774501,7.839769 q -0.09574,-0.2083736 -0.09574,-0.5237499 0,-0.3153764 0.101371,-0.5688038 0.107003,-0.2590591 0.29285,-0.4392741 0.191478,-0.1858468 0.461801,-0.2872177 0.275954,-0.101371 0.613857,-0.101371 0.315376,0 0.658911,0.090108 0.343535,0.084476 0.658912,0.2534274 z m 2.410376,-1.086922 v 2.3090052 q 0,0.1858468 0.01126,0.382957 0.01689,0.1914785 0.08447,0.3491667 0.07321,0.1576881 0.225269,0.2590591 0.152057,0.095739 0.428011,0.095739 0.275954,0 0.422379,-0.095739 0.152056,-0.101371 0.225269,-0.2590591 0.07321,-0.1576882 0.08448,-0.3491667 0.01689,-0.1971102 0.01689,-0.382957 V 6.0376186 h 1.098185 v 2.4610617 q 0,0.9911827 -0.456169,1.447352 -0.450538,0.4561697 -1.391035,0.4561697 -0.940497,0 -1.396667,-0.4561697 Q 32.333748,9.489863 32.333748,8.4986803 V 6.0376186 Z m 4.589855,1.9485752 h 0.366062 q 0.608225,0 0.608225,-0.5293817 0,-0.5293817 -0.608225,-0.5293817 H 38.02742 Z m 0,2.2977422 H 36.923603 V 6.0376186 h 1.757096 q 0.715229,0 1.092554,0.3716935 0.382957,0.3716936 0.382957,1.0475 0,0.6758064 -0.382957,1.0474999 -0.377325,0.3716935 -1.092554,0.3716935 H 38.02742 Z m 3.818303,-2.2977422 h 0.366062 q 0.608226,0 0.608226,-0.5293817 0,-0.5293817 -0.608226,-0.5293817 h -0.366062 z m 0,2.2977422 H 40.741906 V 6.0376186 h 1.757096 q 0.715229,0 1.092554,0.3716935 0.382957,0.3716936 0.382957,1.0475 0,0.6758064 -0.382957,1.0474999 -0.377325,0.3716935 -1.092554,0.3716935 H 41.845723 Z M 45.664026,6.0376186 V 9.34907 h 1.323454 v 0.934866 H 44.560209 V 6.0376186 Z m 2.489218,2.2076343 -1.548723,-2.2076343 h 1.317822 l 0.788441,1.1601344 0.782809,-1.1601344 h 1.317823 l -1.554355,2.2076343 v 2.0386831 h -1.103817 z"
       id="text4"
       transform="scale(0.89657031,1.1153615)"
       aria-label="SUPPLY" />
    <path
       d="m 30.886719,456.33664 q 0,1.59961 -0.820313,2.52539 -0.820312,0.92578 -2.197265,0.92578 -1.388672,0 -2.208985,-0.92578 -0.814453,-0.92578 -0.814453,-2.52539 0,-1.59961 0.814453,-2.52539 0.820313,-0.93165 2.208985,-0.93165 1.376953,0 2.197265,0.93165 0.820313,0.92578 0.820313,2.52539 z m -1.136719,0 q 0,-1.27149 -0.498047,-1.88672 -0.498047,-0.6211 -1.382812,-0.6211 -0.896485,0 -1.394532,0.6211 -0.492187,0.61523 -0.492187,1.88672 0,1.23046 0.498047,1.86914 0.498047,0.63281 1.388672,0.63281 0.878906,0 1.376953,-0.62695 0.503906,-0.63282 0.503906,-1.875 z m 8.267578,3.26953 h -1.101562 v -0.72657 q -0.556641,0.43946 -1.066407,0.67383 -0.509765,0.23438 -1.125,0.23438 -1.03125,0 -1.605468,-0.62696 -0.574219,-0.63281 -0.574219,-1.85156 v -4.24804 h 1.101562 v 3.72656 q 0,0.49804 0.04687,0.85547 0.04687,0.35156 0.199219,0.60351 0.158203,0.25781 0.410156,0.375 0.251953,0.11719 0.732422,0.11719 0.427735,0 0.931641,-0.22266 0.509765,-0.22265 0.949219,-0.56836 v -4.88671 h 1.101562 z m 5.566406,-0.0586 q -0.310547,0.082 -0.679687,0.13477 -0.363281,0.0527 -0.650391,0.0527 -1.001953,0 -1.523437,-0.53906 -0.521485,-0.53906 -0.521485,-1.72851 v -3.48047 h -0.74414 v -0.92578 h 0.74414 v -1.88086 h 1.101563 v 1.88086 h 2.273437 v 0.92578 h -2.273437 v 2.98242 q 0,0.51562 0.02344,0.80859 0.02344,0.28711 0.164063,0.53906 0.128906,0.23438 0.351562,0.34571 0.228516,0.10547 0.691407,0.10547 0.269531,0 0.5625,-0.0762 0.292968,-0.082 0.421875,-0.13476 h 0.05859 z m 6.00586,-1.82812 q 0,0.89648 -0.744141,1.4707 -0.738281,0.57422 -2.021484,0.57422 -0.726563,0 -1.335938,-0.16992 -0.603515,-0.17578 -1.013672,-0.38086 v -1.23633 h 0.05859 q 0.521484,0.39258 1.160156,0.62695 0.638672,0.22852 1.22461,0.22852 0.726562,0 1.136718,-0.23438 0.410157,-0.23437 0.410157,-0.73828 0,-0.38672 -0.222657,-0.58593 -0.222656,-0.19922 -0.855468,-0.33985 -0.234375,-0.0527 -0.615235,-0.12304 -0.375,-0.0703 -0.685547,-0.15235 -0.861328,-0.22851 -1.224609,-0.66797 -0.357422,-0.44531 -0.357422,-1.08984 0,-0.4043 0.164063,-0.76172 0.169922,-0.35742 0.509765,-0.63867 0.328125,-0.27539 0.832032,-0.4336 0.509765,-0.16406 1.136718,-0.16406 0.585938,0 1.183594,0.14649 0.603516,0.14062 1.001953,0.3457 v 1.17773 h -0.05859 q -0.421875,-0.31054 -1.02539,-0.52148 -0.603516,-0.2168 -1.183594,-0.2168 -0.603516,0 -1.019531,0.23438 -0.416016,0.22851 -0.416016,0.68554 0,0.4043 0.251953,0.60938 0.246094,0.20508 0.796875,0.33398 0.304688,0.0703 0.679688,0.14063 0.380859,0.0703 0.632812,0.12891 0.767578,0.17578 1.183594,0.60351 0.416016,0.43359 0.416016,1.14844 z"
       id="text56"
       style="white-space:pre;fill:#ffffff"
       transform="scale(0.26458333)"
       aria-label="outs" />
  </g>
  <g
     inkscape:groupmode="layer"
     id="layer2"
     inkscape:label="components"
     style="display:inline" />
</svg>
