<?xml version="1.0" encoding="UTF-8" standalone="no"?>
<!-- Created with Inkscape (http://www.inkscape.org/) -->

<svg
   width="71.120003mm"
   height="128.5mm"
   viewBox="0 0 71.120003 128.5"
   version="1.1"
   id="svg1"
   inkscape:version="1.4 (e7c3feb1, 2024-10-09)"
   sodipodi:docname="supply.svg"
   xmlns:inkscape="http://www.inkscape.org/namespaces/inkscape"
   xmlns:sodipodi="http://sodipodi.sourceforge.net/DTD/sodipodi-0.dtd"
   xmlns="http://www.w3.org/2000/svg"
   xmlns:svg="http://www.w3.org/2000/svg">
  <sodipodi:namedview
     id="namedview1"
     pagecolor="#ffffff"
     bordercolor="#000000"
     borderopacity="0.25"
     inkscape:showpageshadow="2"
     inkscape:pageopacity="0.0"
     inkscape:pagecheckerboard="0"
     inkscape:deskcolor="#d1d1d1"
     inkscape:document-units="mm"
     inkscape:zoom="1.1281966"
     inkscape:cx="126.75096"
     inkscape:cy="75.784664"
     inkscape:window-width="1104"
     inkscape:window-height="760"
     inkscape:window-x="0"
     inkscape:window-y="25"
     inkscape:window-maximized="0"
     inkscape:current-layer="layer1" />
  <defs
     id="defs1">
    <rect
       x="99.958878"
       y="123.91216"
       width="29.020319"
       height="8.7521598"
       id="rect6" />
    <rect
       x="61.725759"
       y="135.42816"
       width="35.929919"
       height="17.50432"
       id="rect4" />
    <rect
       x="93.340125"
       y="21.408286"
       width="46.241897"
       height="19.695623"
       id="rect3" />
    <rect
       x="24.225573"
       y="448.65762"
       width="33.915803"
       height="16.47339"
       id="rect56" />
    <rect
       x="161.82683"
       y="23.25655"
       width="48.451147"
       height="13.566321"
       id="rect55" />
    <rect
       x="156.01269"
       y="22.287527"
       width="42.152495"
       height="32.946781"
       id="rect54" />
    <rect
       x="23.25655"
       y="22.287527"
       width="32.94678"
       height="15.504367"
       id="rect53" />
    <rect
       x="26.163619"
       y="26.163619"
       width="21.108899"
       height="31.246309"
       id="rect52" />
  </defs>
  <g
     inkscape:label="Layer 1"
     inkscape:groupmode="layer"
     id="layer1">
    <rect
       style="fill:#e6e6e6;stroke-width:0.264583;fill-opacity:1"
       id="rect1"
       width="71.120003"
       height="128.5"
       x="0"
       y="0" />
    <path
       style="font-weight:bold;font-size:5.63172px;font-family:Futura;-inkscape-font-specification:'Futura, Bold';stroke-width:0.469311"
       d="m 31.027189,7.1245406 q -0.180215,-0.1464247 -0.36043,-0.2140054 -0.180215,-0.073212 -0.349166,-0.073212 -0.214006,0 -0.349167,0.1013709 -0.135161,0.101371 -0.135161,0.2646909 0,0.1126344 0.06758,0.1858467 0.06758,0.073212 0.174584,0.1295296 0.112634,0.050686 0.247795,0.090108 0.140793,0.039422 0.275955,0.084476 0.540645,0.1802151 0.788441,0.4843279 0.253427,0.2984812 0.253427,0.7828091 0,0.3266398 -0.112634,0.5913306 -0.107003,0.2646909 -0.321008,0.4561691 -0.208374,0.185847 -0.518119,0.287218 -0.304113,0.107003 -0.692701,0.107003 -0.805336,0 -1.492406,-0.4786965 l 0.473064,-0.8898118 q 0.247796,0.2196371 0.48996,0.3266398 0.242164,0.1070026 0.478696,0.1070026 0.270323,0 0.399852,-0.1238978 0.135162,-0.1238978 0.135162,-0.281586 0,-0.095739 -0.03379,-0.1633199 Q 30.413332,8.82532 30.334488,8.7690028 30.255644,8.7070539 30.126114,8.6563684 30.002216,8.605683 29.822001,8.543734 29.607996,8.4761534 29.399622,8.3973093 29.19688,8.3128335 29.033561,8.1776722 28.875872,8.042511 28.774501,7.839769 q -0.09574,-0.2083736 -0.09574,-0.5237499 0,-0.3153764 0.101371,-0.5688038 0.107003,-0.2590591 0.29285,-0.4392741 0.191478,-0.1858468 0.461801,-0.2872177 0.275954,-0.101371 0.613857,-0.101371 0.315376,0 0.658911,0.090108 0.343535,0.084476 0.658912,0.2534274 z m 2.410376,-1.086922 v 2.3090052 q 0,0.1858468 0.01126,0.382957 0.01689,0.1914785 0.08447,0.3491667 0.07321,0.1576881 0.225269,0.2590591 0.152057,0.095739 0.428011,0.095739 0.275954,0 0.422379,-0.095739 0.152056,-0.101371 0.225269,-0.2590591 0.07321,-0.1576882 0.08448,-0.3491667 0.01689,-0.1971102 0.01689,-0.382957 V 6.0376186 h 1.098185 v 2.4610617 q 0,0.9911827 -0.456169,1.447352 -0.450538,0.4561697 -1.391035,0.4561697 -0.940497,0 -1.396667,-0.4561697 Q 32.333748,9.489863 32.333748,8.4986803 V 6.0376186 Z m 4.589855,1.9485752 h 0.366062 q 0.608225,0 0.608225,-0.5293817 0,-0.5293817 -0.608225,-0.5293817 H 38.02742 Z m 0,2.2977422 H 36.923603 V 6.0376186 h 1.757096 q 0.715229,0 1.092554,0.3716935 0.382957,0.3716936 0.382957,1.0475 0,0.6758064 -0.382957,1.0474999 -0.377325,0.3716935 -1.092554,0.3716935 H 38.02742 Z m 3.818303,-2.2977422 h 0.366062 q 0.608226,0 0.608226,-0.5293817 0,-0.5293817 -0.608226,-0.5293817 h -0.366062 z m 0,2.2977422 H 40.741906 V 6.0376186 h 1.757096 q 0.715229,0 1.092554,0.3716935 0.382957,0.3716936 0.382957,1.0475 0,0.6758064 -0.382957,1.0474999 -0.377325,0.3716935 -1.092554,0.3716935 H 41.845723 Z M 45.664026,6.0376186 V 9.34907 h 1.323454 v 0.934866 H 44.560209 V 6.0376186 Z m 2.489218,2.2076343 -1.548723,-2.2076343 h 1.317822 l 0.788441,1.1601344 0.782809,-1.1601344 h 1.317823 l -1.554355,2.2076343 v 2.0386831 h -1.103817 z"
       id="text4"
       transform="scale(0.89657031,1.1153615)"
       aria-label="SUPPLY" />
    <rect
       style="fill:#d77706;fill-opacity:1;stroke:#ebebeb;stroke-width:0"
       id="rect2-2"
       width="2"
       height="80.5"
       x="14.75"
       y="28.5"
       ry="0" />
    <rect
       style="fill:#232323;fill-opacity:1;stroke:#ebebeb;stroke-width:0"
       id="rect5"
       width="45.308998"
       height="10.465347"
       x="12.763"
       y="114.91158"
       ry="3.4817078" />
  </g>
  <g
     inkscape:groupmode="layer"
     id="layer2"
     inkscape:label="components"
     style="display:inline" />
</svg>
