<?xml version="1.0" encoding="UTF-8" standalone="no"?>
<!-- Created with Inkscape (http://www.inkscape.org/) -->

<svg
   width="20.32mm"
   height="128.5mm"
   viewBox="0 0 20.32 128.5"
   version="1.1"
   id="svg1"
   inkscape:version="1.4 (e7c3feb1, 2024-10-09)"
   sodipodi:docname="ut1.svg"
   xmlns:inkscape="http://www.inkscape.org/namespaces/inkscape"
   xmlns:sodipodi="http://sodipodi.sourceforge.net/DTD/sodipodi-0.dtd"
   xmlns="http://www.w3.org/2000/svg"
   xmlns:svg="http://www.w3.org/2000/svg">
  <sodipodi:namedview
     id="namedview1"
     pagecolor="#ffffff"
     bordercolor="#000000"
     borderopacity="0.25"
     inkscape:showpageshadow="2"
     inkscape:pageopacity="0.0"
     inkscape:pagecheckerboard="0"
     inkscape:deskcolor="#d1d1d1"
     inkscape:document-units="mm"
     inkscape:zoom="1.0507062"
     inkscape:cx="-21.41417"
     inkscape:cy="429.711"
     inkscape:window-width="1104"
     inkscape:window-height="762"
     inkscape:window-x="110"
     inkscape:window-y="26"
     inkscape:window-maximized="0"
     inkscape:current-layer="layer1"
     showgrid="false" />
  <defs
     id="defs1">
    <rect
       x="2.9440456"
       y="460.00713"
       width="48.208747"
       height="22.448348"
       id="rect3" />
  </defs>
  <g
     inkscape:label="Layer 1"
     inkscape:groupmode="layer"
     id="layer1">
    <rect
       style="fill:#ebebeb;stroke:#ebebeb;stroke-width:0.79375"
       id="rect1"
       width="20.319998"
       height="128.5"
       x="0"
       y="0"
       ry="0" />
    <rect
       style="fill:#c1c1c1;fill-opacity:1;stroke:#ebebeb;stroke-width:0"
       id="rect2"
       width="17.420292"
       height="1.3400871"
       x="1.4686236"
       y="25.5"
       ry="0.36057648" />
    <rect
       style="fill:#c1c1c1;fill-opacity:1;stroke:#ebebeb;stroke-width:0"
       id="rect2-2"
       width="17.420292"
       height="1.3400871"
       x="1.469"
       y="48"
       ry="0.36057648" />
    <rect
       style="fill:#c1c1c1;fill-opacity:1;stroke:#ebebeb;stroke-width:0"
       id="rect2-2-6"
       width="17.420292"
       height="1.3400871"
       x="1.469"
       y="79.5"
       ry="0.36057648" />
    <text
       xml:space="preserve"
       style="font-weight:bold;font-size:3.88056px;font-family:Monospace;-inkscape-font-specification:'Monospace Bold';text-align:start;writing-mode:lr-tb;direction:ltr;text-anchor:start;display:none;fill:#c1c1c1;fill-opacity:1;stroke:#ebebeb;stroke-width:0"
       x="0.38947231"
       y="127.35757"
       id="text4"><tspan
         sodipodi:role="line"
         id="tspan4"
         style="font-size:3.88056px;fill:#a91c03;fill-opacity:1;stroke-width:0"
         x="0.38947231"
         y="127.35757">ut-1</tspan></text>
    <path
       style="font-weight:bold;font-size:3.88056px;font-family:Monospace;-inkscape-font-specification:'Monospace Bold';fill:#a91c03;stroke:#ebebeb;stroke-width:0"
       d="M 2.3145938,127.35757 H 2.0190043 v -0.2918 q -0.3183272,0.33917 -0.6707608,0.33917 -0.5551778,0 -0.5551778,-0.67266 v -1.3491 h 0.2955895 v 1.26384 q 0,0.252 0.079582,0.37706 0.079582,0.12316 0.2690623,0.12316 0.270957,0 0.581705,-0.33727 v -1.42679 h 0.2955895 z m 2.3514525,-0.0891 q -0.2974843,0.13643 -0.5854946,0.13643 -0.5286505,0 -0.5286505,-0.55897 v -1.20699 H 3.1729403 v -0.2558 h 0.3789609 v -0.54002 h 0.2880103 v 0.54002 h 0.6707609 v 0.2558 H 3.8399115 v 1.1293 q 0,0.18001 0.079582,0.28043 0.079582,0.0985 0.2160077,0.0985 0.242535,0 0.4793856,-0.108 z M 6.754121,126.4348 H 5.628607 v -0.28801 h 1.125514 z m 2.550407,0.92277 H 7.8985829 v -0.27096 h 0.5665466 v -2.07671 l -0.5343349,0.26717 v -0.31075 L 8.50871,124.66884 h 0.2671675 v 2.41777 H 9.304528 Z"
       id="text5"
       aria-label="ut-1" />
  </g>
  <g
     inkscape:groupmode="layer"
     id="layer2"
     inkscape:label="components" />
</svg>
